<mxfile host="app.diagrams.net" modified="2023-06-06T12:54:05.581Z" agent="Mozilla/5.0 (Windows NT 10.0; Win64; x64) AppleWebKit/537.36 (KHTML, like Gecko) Chrome/114.0.0.0 Safari/537.36" etag="sCDTtzPfErO24wltz9l7" version="21.3.7" type="github" pages="2">
  <diagram name="ER" id="ei8fi8gPT5rXZid7RnSF">
    <mxGraphModel dx="2126" dy="732" grid="0" gridSize="10" guides="1" tooltips="1" connect="1" arrows="1" fold="1" page="0" pageScale="1" pageWidth="1169" pageHeight="827" math="0" shadow="0">
      <root>
        <mxCell id="mUWgfkTVN4Pzx1sX07Q9-0" />
        <mxCell id="mUWgfkTVN4Pzx1sX07Q9-1" parent="mUWgfkTVN4Pzx1sX07Q9-0" />
        <mxCell id="mUWgfkTVN4Pzx1sX07Q9-2" value="utente" style="whiteSpace=wrap;html=1;align=center;" parent="mUWgfkTVN4Pzx1sX07Q9-1" vertex="1">
          <mxGeometry x="380" y="542" width="100" height="40" as="geometry" />
        </mxCell>
        <mxCell id="mUWgfkTVN4Pzx1sX07Q9-3" style="edgeStyle=orthogonalEdgeStyle;rounded=0;orthogonalLoop=1;jettySize=auto;html=1;" parent="mUWgfkTVN4Pzx1sX07Q9-1" source="mUWgfkTVN4Pzx1sX07Q9-5" target="mUWgfkTVN4Pzx1sX07Q9-2" edge="1">
          <mxGeometry relative="1" as="geometry" />
        </mxCell>
        <mxCell id="mUWgfkTVN4Pzx1sX07Q9-4" style="edgeStyle=orthogonalEdgeStyle;rounded=0;orthogonalLoop=1;jettySize=auto;html=1;entryX=0;entryY=0.5;entryDx=0;entryDy=0;endArrow=none;endFill=0;" parent="mUWgfkTVN4Pzx1sX07Q9-1" source="mUWgfkTVN4Pzx1sX07Q9-5" target="mUWgfkTVN4Pzx1sX07Q9-55" edge="1">
          <mxGeometry relative="1" as="geometry">
            <Array as="points">
              <mxPoint x="620" y="480" />
              <mxPoint x="620" y="552" />
            </Array>
          </mxGeometry>
        </mxCell>
        <mxCell id="mUWgfkTVN4Pzx1sX07Q9-5" value="studente" style="whiteSpace=wrap;html=1;align=center;" parent="mUWgfkTVN4Pzx1sX07Q9-1" vertex="1">
          <mxGeometry x="380" y="462" width="100" height="40" as="geometry" />
        </mxCell>
        <mxCell id="mUWgfkTVN4Pzx1sX07Q9-7" style="edgeStyle=orthogonalEdgeStyle;rounded=0;orthogonalLoop=1;jettySize=auto;html=1;entryX=0.5;entryY=1;entryDx=0;entryDy=0;endArrow=none;endFill=0;" parent="mUWgfkTVN4Pzx1sX07Q9-1" source="mUWgfkTVN4Pzx1sX07Q9-10" target="mUWgfkTVN4Pzx1sX07Q9-33" edge="1">
          <mxGeometry relative="1" as="geometry">
            <Array as="points">
              <mxPoint x="700" y="372" />
            </Array>
          </mxGeometry>
        </mxCell>
        <mxCell id="mUWgfkTVN4Pzx1sX07Q9-8" style="edgeStyle=orthogonalEdgeStyle;rounded=0;orthogonalLoop=1;jettySize=auto;html=1;entryX=0;entryY=0.5;entryDx=0;entryDy=0;endArrow=none;endFill=0;" parent="mUWgfkTVN4Pzx1sX07Q9-1" source="mUWgfkTVN4Pzx1sX07Q9-10" target="mUWgfkTVN4Pzx1sX07Q9-68" edge="1">
          <mxGeometry relative="1" as="geometry" />
        </mxCell>
        <mxCell id="mUWgfkTVN4Pzx1sX07Q9-9" style="edgeStyle=orthogonalEdgeStyle;rounded=0;orthogonalLoop=1;jettySize=auto;html=1;entryX=0.5;entryY=0;entryDx=0;entryDy=0;endArrow=none;endFill=0;" parent="mUWgfkTVN4Pzx1sX07Q9-1" source="mUWgfkTVN4Pzx1sX07Q9-10" target="mUWgfkTVN4Pzx1sX07Q9-51" edge="1">
          <mxGeometry relative="1" as="geometry">
            <Array as="points">
              <mxPoint x="790" y="400" />
            </Array>
          </mxGeometry>
        </mxCell>
        <mxCell id="yzNuoIXm0FhoeVT1ui_O-1" style="edgeStyle=orthogonalEdgeStyle;rounded=0;orthogonalLoop=1;jettySize=auto;html=1;" parent="mUWgfkTVN4Pzx1sX07Q9-1" source="mUWgfkTVN4Pzx1sX07Q9-10" target="mUWgfkTVN4Pzx1sX07Q9-2" edge="1">
          <mxGeometry relative="1" as="geometry">
            <Array as="points">
              <mxPoint x="300" y="390" />
              <mxPoint x="300" y="520" />
              <mxPoint x="430" y="520" />
            </Array>
          </mxGeometry>
        </mxCell>
        <mxCell id="mUWgfkTVN4Pzx1sX07Q9-10" value="docente" style="whiteSpace=wrap;html=1;align=center;" parent="mUWgfkTVN4Pzx1sX07Q9-1" vertex="1">
          <mxGeometry x="650" y="370" width="100" height="40" as="geometry" />
        </mxCell>
        <mxCell id="yzNuoIXm0FhoeVT1ui_O-0" style="edgeStyle=orthogonalEdgeStyle;rounded=0;orthogonalLoop=1;jettySize=auto;html=1;entryX=0.5;entryY=0;entryDx=0;entryDy=0;" parent="mUWgfkTVN4Pzx1sX07Q9-1" source="mUWgfkTVN4Pzx1sX07Q9-12" target="mUWgfkTVN4Pzx1sX07Q9-2" edge="1">
          <mxGeometry relative="1" as="geometry">
            <Array as="points">
              <mxPoint x="300" y="390" />
              <mxPoint x="300" y="520" />
              <mxPoint x="430" y="520" />
            </Array>
          </mxGeometry>
        </mxCell>
        <mxCell id="mUWgfkTVN4Pzx1sX07Q9-12" value="segreteria" style="whiteSpace=wrap;html=1;align=center;" parent="mUWgfkTVN4Pzx1sX07Q9-1" vertex="1">
          <mxGeometry x="166" y="370" width="100" height="40" as="geometry" />
        </mxCell>
        <mxCell id="mUWgfkTVN4Pzx1sX07Q9-13" value="matricola" style="text;html=1;align=center;verticalAlign=middle;resizable=0;points=[];autosize=1;strokeColor=none;fillColor=none;fontStyle=4" parent="mUWgfkTVN4Pzx1sX07Q9-1" vertex="1">
          <mxGeometry x="500" y="640" width="70" height="30" as="geometry" />
        </mxCell>
        <mxCell id="mUWgfkTVN4Pzx1sX07Q9-14" style="edgeStyle=orthogonalEdgeStyle;rounded=0;orthogonalLoop=1;jettySize=auto;html=1;entryX=0;entryY=0.5;entryDx=0;entryDy=0;endArrow=none;endFill=0;" parent="mUWgfkTVN4Pzx1sX07Q9-1" source="mUWgfkTVN4Pzx1sX07Q9-16" target="mUWgfkTVN4Pzx1sX07Q9-36" edge="1">
          <mxGeometry relative="1" as="geometry" />
        </mxCell>
        <mxCell id="mUWgfkTVN4Pzx1sX07Q9-16" value="Corso_Laurea" style="whiteSpace=wrap;html=1;align=center;" parent="mUWgfkTVN4Pzx1sX07Q9-1" vertex="1">
          <mxGeometry x="250" y="150" width="100" height="40" as="geometry" />
        </mxCell>
        <mxCell id="mUWgfkTVN4Pzx1sX07Q9-17" style="edgeStyle=orthogonalEdgeStyle;rounded=0;orthogonalLoop=1;jettySize=auto;html=1;entryX=0.5;entryY=0;entryDx=0;entryDy=0;endArrow=none;endFill=0;" parent="mUWgfkTVN4Pzx1sX07Q9-1" source="mUWgfkTVN4Pzx1sX07Q9-19" target="mUWgfkTVN4Pzx1sX07Q9-47" edge="1">
          <mxGeometry relative="1" as="geometry" />
        </mxCell>
        <mxCell id="mUWgfkTVN4Pzx1sX07Q9-18" style="edgeStyle=orthogonalEdgeStyle;rounded=0;orthogonalLoop=1;jettySize=auto;html=1;entryX=0;entryY=0.5;entryDx=0;entryDy=0;endArrow=none;endFill=0;" parent="mUWgfkTVN4Pzx1sX07Q9-1" source="mUWgfkTVN4Pzx1sX07Q9-19" target="mUWgfkTVN4Pzx1sX07Q9-51" edge="1">
          <mxGeometry relative="1" as="geometry">
            <Array as="points">
              <mxPoint x="610" y="459" />
            </Array>
          </mxGeometry>
        </mxCell>
        <mxCell id="mUWgfkTVN4Pzx1sX07Q9-19" value="Insegnamento" style="whiteSpace=wrap;html=1;align=center;rounded=0;shadow=0;" parent="mUWgfkTVN4Pzx1sX07Q9-1" vertex="1">
          <mxGeometry x="570" y="210" width="100" height="40" as="geometry" />
        </mxCell>
        <mxCell id="mUWgfkTVN4Pzx1sX07Q9-20" value="" style="endArrow=none;html=1;rounded=0;" parent="mUWgfkTVN4Pzx1sX07Q9-1" edge="1">
          <mxGeometry width="50" height="50" relative="1" as="geometry">
            <mxPoint x="408.75" y="612" as="sourcePoint" />
            <mxPoint x="408.75" y="584" as="targetPoint" />
          </mxGeometry>
        </mxCell>
        <mxCell id="mUWgfkTVN4Pzx1sX07Q9-21" value="" style="shape=waypoint;sketch=0;fillStyle=solid;size=6;pointerEvents=1;points=[];fillColor=none;resizable=0;rotatable=0;perimeter=centerPerimeter;snapToPoint=1;" parent="mUWgfkTVN4Pzx1sX07Q9-1" vertex="1">
          <mxGeometry x="398.75" y="602" width="20" height="20" as="geometry" />
        </mxCell>
        <mxCell id="mUWgfkTVN4Pzx1sX07Q9-22" value="nome" style="text;html=1;align=center;verticalAlign=middle;resizable=0;points=[];autosize=1;strokeColor=none;fillColor=none;" parent="mUWgfkTVN4Pzx1sX07Q9-1" vertex="1">
          <mxGeometry x="327.5" y="612" width="50" height="30" as="geometry" />
        </mxCell>
        <mxCell id="mUWgfkTVN4Pzx1sX07Q9-23" value="" style="endArrow=none;html=1;rounded=0;exitX=0.744;exitY=0.208;exitDx=0;exitDy=0;exitPerimeter=0;entryX=0;entryY=0.867;entryDx=0;entryDy=0;entryPerimeter=0;" parent="mUWgfkTVN4Pzx1sX07Q9-1" source="H5gtIbrwGkIfasZEDUU--24" target="mUWgfkTVN4Pzx1sX07Q9-2" edge="1">
          <mxGeometry width="50" height="50" relative="1" as="geometry">
            <mxPoint x="347.5" y="589" as="sourcePoint" />
            <mxPoint x="435" y="582" as="targetPoint" />
          </mxGeometry>
        </mxCell>
        <mxCell id="mUWgfkTVN4Pzx1sX07Q9-25" value="cognome" style="text;html=1;align=center;verticalAlign=middle;resizable=0;points=[];autosize=1;strokeColor=none;fillColor=none;" parent="mUWgfkTVN4Pzx1sX07Q9-1" vertex="1">
          <mxGeometry x="286.75" y="589" width="70" height="30" as="geometry" />
        </mxCell>
        <mxCell id="mUWgfkTVN4Pzx1sX07Q9-26" value="" style="endArrow=none;html=1;rounded=0;" parent="mUWgfkTVN4Pzx1sX07Q9-1" source="H5gtIbrwGkIfasZEDUU--20" edge="1">
          <mxGeometry width="50" height="50" relative="1" as="geometry">
            <mxPoint x="350" y="556" as="sourcePoint" />
            <mxPoint x="380" y="556" as="targetPoint" />
          </mxGeometry>
        </mxCell>
        <mxCell id="mUWgfkTVN4Pzx1sX07Q9-28" value="email" style="text;html=1;align=center;verticalAlign=middle;resizable=0;points=[];autosize=1;strokeColor=none;fillColor=none;" parent="mUWgfkTVN4Pzx1sX07Q9-1" vertex="1">
          <mxGeometry x="300" y="540" width="50" height="30" as="geometry" />
        </mxCell>
        <mxCell id="mUWgfkTVN4Pzx1sX07Q9-29" value="" style="endArrow=none;html=1;rounded=0;" parent="mUWgfkTVN4Pzx1sX07Q9-1" edge="1">
          <mxGeometry width="50" height="50" relative="1" as="geometry">
            <mxPoint x="350" y="576" as="sourcePoint" />
            <mxPoint x="380" y="576" as="targetPoint" />
          </mxGeometry>
        </mxCell>
        <mxCell id="mUWgfkTVN4Pzx1sX07Q9-31" value="password" style="text;html=1;align=center;verticalAlign=middle;resizable=0;points=[];autosize=1;strokeColor=none;fillColor=none;" parent="mUWgfkTVN4Pzx1sX07Q9-1" vertex="1">
          <mxGeometry x="279.5" y="559" width="70" height="30" as="geometry" />
        </mxCell>
        <mxCell id="mUWgfkTVN4Pzx1sX07Q9-32" style="edgeStyle=orthogonalEdgeStyle;rounded=0;orthogonalLoop=1;jettySize=auto;html=1;entryX=0.847;entryY=1.08;entryDx=0;entryDy=0;endArrow=none;endFill=0;entryPerimeter=0;" parent="mUWgfkTVN4Pzx1sX07Q9-1" source="mUWgfkTVN4Pzx1sX07Q9-33" target="mUWgfkTVN4Pzx1sX07Q9-19" edge="1">
          <mxGeometry relative="1" as="geometry" />
        </mxCell>
        <mxCell id="mUWgfkTVN4Pzx1sX07Q9-33" value="essere_responsabile" style="shape=rhombus;perimeter=rhombusPerimeter;whiteSpace=wrap;html=1;align=center;" parent="mUWgfkTVN4Pzx1sX07Q9-1" vertex="1">
          <mxGeometry x="630" y="292" width="140" height="60" as="geometry" />
        </mxCell>
        <mxCell id="mUWgfkTVN4Pzx1sX07Q9-34" value="(1, 3)" style="text;html=1;align=center;verticalAlign=middle;resizable=0;points=[];autosize=1;strokeColor=none;fillColor=none;" parent="mUWgfkTVN4Pzx1sX07Q9-1" vertex="1">
          <mxGeometry x="693" y="344" width="50" height="30" as="geometry" />
        </mxCell>
        <mxCell id="mUWgfkTVN4Pzx1sX07Q9-35" style="edgeStyle=orthogonalEdgeStyle;rounded=0;orthogonalLoop=1;jettySize=auto;html=1;entryX=0.5;entryY=0;entryDx=0;entryDy=0;endArrow=none;endFill=0;" parent="mUWgfkTVN4Pzx1sX07Q9-1" source="mUWgfkTVN4Pzx1sX07Q9-36" target="mUWgfkTVN4Pzx1sX07Q9-19" edge="1">
          <mxGeometry relative="1" as="geometry" />
        </mxCell>
        <mxCell id="mUWgfkTVN4Pzx1sX07Q9-36" value="manifesto_insegnamenti" style="shape=rhombus;perimeter=rhombusPerimeter;whiteSpace=wrap;html=1;align=center;" parent="mUWgfkTVN4Pzx1sX07Q9-1" vertex="1">
          <mxGeometry x="423" y="140" width="145" height="60" as="geometry" />
        </mxCell>
        <mxCell id="mUWgfkTVN4Pzx1sX07Q9-37" value="(0, N)" style="text;html=1;align=center;verticalAlign=middle;resizable=0;points=[];autosize=1;strokeColor=none;fillColor=none;" parent="mUWgfkTVN4Pzx1sX07Q9-1" vertex="1">
          <mxGeometry x="350" y="140" width="50" height="30" as="geometry" />
        </mxCell>
        <mxCell id="mUWgfkTVN4Pzx1sX07Q9-38" value="(1, N)" style="text;html=1;align=center;verticalAlign=middle;resizable=0;points=[];autosize=1;strokeColor=none;fillColor=none;" parent="mUWgfkTVN4Pzx1sX07Q9-1" vertex="1">
          <mxGeometry x="615" y="185" width="50" height="30" as="geometry" />
        </mxCell>
        <mxCell id="mUWgfkTVN4Pzx1sX07Q9-39" value="IDInsegnamento" style="text;html=1;align=center;verticalAlign=middle;resizable=0;points=[];autosize=1;strokeColor=none;fillColor=none;fontStyle=4" parent="mUWgfkTVN4Pzx1sX07Q9-1" vertex="1">
          <mxGeometry x="430" y="202" width="110" height="30" as="geometry" />
        </mxCell>
        <mxCell id="mUWgfkTVN4Pzx1sX07Q9-40" value="nome" style="text;html=1;align=center;verticalAlign=middle;resizable=0;points=[];autosize=1;strokeColor=none;fillColor=none;" parent="mUWgfkTVN4Pzx1sX07Q9-1" vertex="1">
          <mxGeometry x="490" y="245" width="50" height="30" as="geometry" />
        </mxCell>
        <mxCell id="mUWgfkTVN4Pzx1sX07Q9-41" value="descrizione" style="text;html=1;align=center;verticalAlign=middle;resizable=0;points=[];autosize=1;strokeColor=none;fillColor=none;" parent="mUWgfkTVN4Pzx1sX07Q9-1" vertex="1">
          <mxGeometry x="457.5" y="223" width="80" height="30" as="geometry" />
        </mxCell>
        <mxCell id="mUWgfkTVN4Pzx1sX07Q9-42" value="anno" style="text;html=1;align=center;verticalAlign=middle;resizable=0;points=[];autosize=1;strokeColor=none;fillColor=none;" parent="mUWgfkTVN4Pzx1sX07Q9-1" vertex="1">
          <mxGeometry x="520" y="104" width="50" height="30" as="geometry" />
        </mxCell>
        <mxCell id="mUWgfkTVN4Pzx1sX07Q9-43" value="IDCorso" style="text;html=1;align=center;verticalAlign=middle;resizable=0;points=[];autosize=1;strokeColor=none;fillColor=none;fontStyle=4" parent="mUWgfkTVN4Pzx1sX07Q9-1" vertex="1">
          <mxGeometry x="267.5" y="29.04" width="70" height="30" as="geometry" />
        </mxCell>
        <mxCell id="mUWgfkTVN4Pzx1sX07Q9-44" value="nome" style="text;html=1;align=center;verticalAlign=middle;resizable=0;points=[];autosize=1;strokeColor=none;fillColor=none;" parent="mUWgfkTVN4Pzx1sX07Q9-1" vertex="1">
          <mxGeometry x="287.5" y="59.04" width="50" height="30" as="geometry" />
        </mxCell>
        <mxCell id="mUWgfkTVN4Pzx1sX07Q9-45" value="anniTotali" style="text;html=1;align=center;verticalAlign=middle;resizable=0;points=[];autosize=1;strokeColor=none;fillColor=none;" parent="mUWgfkTVN4Pzx1sX07Q9-1" vertex="1">
          <mxGeometry x="307.5" y="87.04" width="70" height="30" as="geometry" />
        </mxCell>
        <mxCell id="mUWgfkTVN4Pzx1sX07Q9-46" style="edgeStyle=orthogonalEdgeStyle;rounded=0;orthogonalLoop=1;jettySize=auto;html=1;exitX=0.5;exitY=1;exitDx=0;exitDy=0;entryX=1;entryY=0.75;entryDx=0;entryDy=0;endArrow=none;endFill=0;" parent="mUWgfkTVN4Pzx1sX07Q9-1" source="mUWgfkTVN4Pzx1sX07Q9-47" target="mUWgfkTVN4Pzx1sX07Q9-19" edge="1">
          <mxGeometry relative="1" as="geometry">
            <mxPoint x="770.6666056315104" y="280" as="targetPoint" />
          </mxGeometry>
        </mxCell>
        <mxCell id="mUWgfkTVN4Pzx1sX07Q9-47" value="propedeuticita" style="shape=rhombus;perimeter=rhombusPerimeter;whiteSpace=wrap;html=1;align=center;" parent="mUWgfkTVN4Pzx1sX07Q9-1" vertex="1">
          <mxGeometry x="815" y="208" width="120" height="60" as="geometry" />
        </mxCell>
        <mxCell id="mUWgfkTVN4Pzx1sX07Q9-48" value="(0, N)" style="text;html=1;align=center;verticalAlign=middle;resizable=0;points=[];autosize=1;strokeColor=none;fillColor=none;" parent="mUWgfkTVN4Pzx1sX07Q9-1" vertex="1">
          <mxGeometry x="835" y="160" width="50" height="30" as="geometry" />
        </mxCell>
        <mxCell id="mUWgfkTVN4Pzx1sX07Q9-49" value="(0, N)" style="text;html=1;align=center;verticalAlign=middle;resizable=0;points=[];autosize=1;strokeColor=none;fillColor=none;" parent="mUWgfkTVN4Pzx1sX07Q9-1" vertex="1">
          <mxGeometry x="830" y="288.5" width="50" height="30" as="geometry" />
        </mxCell>
        <mxCell id="mUWgfkTVN4Pzx1sX07Q9-50" style="edgeStyle=orthogonalEdgeStyle;rounded=0;orthogonalLoop=1;jettySize=auto;html=1;entryX=0.605;entryY=-0.06;entryDx=0;entryDy=0;entryPerimeter=0;endArrow=none;endFill=0;" parent="mUWgfkTVN4Pzx1sX07Q9-1" source="mUWgfkTVN4Pzx1sX07Q9-51" target="mUWgfkTVN4Pzx1sX07Q9-53" edge="1">
          <mxGeometry relative="1" as="geometry" />
        </mxCell>
        <mxCell id="mUWgfkTVN4Pzx1sX07Q9-51" value="riguarda" style="shape=rhombus;perimeter=rhombusPerimeter;whiteSpace=wrap;html=1;align=center;" parent="mUWgfkTVN4Pzx1sX07Q9-1" vertex="1">
          <mxGeometry x="730" y="429" width="120" height="60" as="geometry" />
        </mxCell>
        <mxCell id="mUWgfkTVN4Pzx1sX07Q9-52" style="edgeStyle=orthogonalEdgeStyle;rounded=0;orthogonalLoop=1;jettySize=auto;html=1;entryX=1;entryY=0.5;entryDx=0;entryDy=0;exitX=0;exitY=0.5;exitDx=0;exitDy=0;endArrow=none;endFill=0;" parent="mUWgfkTVN4Pzx1sX07Q9-1" source="mUWgfkTVN4Pzx1sX07Q9-53" target="mUWgfkTVN4Pzx1sX07Q9-55" edge="1">
          <mxGeometry relative="1" as="geometry">
            <Array as="points">
              <mxPoint x="900" y="552" />
            </Array>
          </mxGeometry>
        </mxCell>
        <mxCell id="mUWgfkTVN4Pzx1sX07Q9-53" value="esame" style="whiteSpace=wrap;html=1;align=center;" parent="mUWgfkTVN4Pzx1sX07Q9-1" vertex="1">
          <mxGeometry x="900" y="527" width="100" height="40" as="geometry" />
        </mxCell>
        <mxCell id="mUWgfkTVN4Pzx1sX07Q9-54" value="data" style="text;html=1;align=center;verticalAlign=middle;resizable=0;points=[];autosize=1;strokeColor=none;fillColor=none;" parent="mUWgfkTVN4Pzx1sX07Q9-1" vertex="1">
          <mxGeometry x="909" y="575" width="50" height="30" as="geometry" />
        </mxCell>
        <mxCell id="mUWgfkTVN4Pzx1sX07Q9-55" value="esito" style="shape=rhombus;perimeter=rhombusPerimeter;whiteSpace=wrap;html=1;align=center;" parent="mUWgfkTVN4Pzx1sX07Q9-1" vertex="1">
          <mxGeometry x="670" y="522" width="120" height="60" as="geometry" />
        </mxCell>
        <mxCell id="mUWgfkTVN4Pzx1sX07Q9-56" value="lode" style="text;html=1;align=center;verticalAlign=middle;resizable=0;points=[];autosize=1;strokeColor=none;fillColor=none;" parent="mUWgfkTVN4Pzx1sX07Q9-1" vertex="1">
          <mxGeometry x="652.5" y="573" width="50" height="30" as="geometry" />
        </mxCell>
        <mxCell id="mUWgfkTVN4Pzx1sX07Q9-60" style="edgeStyle=orthogonalEdgeStyle;rounded=0;orthogonalLoop=1;jettySize=auto;html=1;entryX=1;entryY=0.5;entryDx=0;entryDy=0;endArrow=none;endFill=0;" parent="mUWgfkTVN4Pzx1sX07Q9-1" source="mUWgfkTVN4Pzx1sX07Q9-61" target="mUWgfkTVN4Pzx1sX07Q9-137" edge="1">
          <mxGeometry relative="1" as="geometry">
            <Array as="points">
              <mxPoint x="250" y="970" />
              <mxPoint x="250" y="970" />
            </Array>
          </mxGeometry>
        </mxCell>
        <mxCell id="mUWgfkTVN4Pzx1sX07Q9-61" value="storico_studente" style="whiteSpace=wrap;html=1;align=center;" parent="mUWgfkTVN4Pzx1sX07Q9-1" vertex="1">
          <mxGeometry x="312.5" y="948.5" width="100" height="40" as="geometry" />
        </mxCell>
        <mxCell id="mUWgfkTVN4Pzx1sX07Q9-64" value="inizioRapporto" style="text;html=1;align=center;verticalAlign=middle;resizable=0;points=[];autosize=1;strokeColor=none;fillColor=none;" parent="mUWgfkTVN4Pzx1sX07Q9-1" vertex="1">
          <mxGeometry x="608.5" y="409" width="100" height="30" as="geometry" />
        </mxCell>
        <mxCell id="mUWgfkTVN4Pzx1sX07Q9-65" value="fineRapporto" style="text;html=1;align=center;verticalAlign=middle;resizable=0;points=[];autosize=1;strokeColor=none;fillColor=none;" parent="mUWgfkTVN4Pzx1sX07Q9-1" vertex="1">
          <mxGeometry x="626.5" y="428.5" width="90" height="30" as="geometry" />
        </mxCell>
        <mxCell id="mUWgfkTVN4Pzx1sX07Q9-66" value="dataImmatricolazione" style="text;html=1;align=center;verticalAlign=middle;resizable=0;points=[];autosize=1;strokeColor=none;fillColor=none;" parent="mUWgfkTVN4Pzx1sX07Q9-1" vertex="1">
          <mxGeometry x="412.5" y="598" width="140" height="30" as="geometry" />
        </mxCell>
        <mxCell id="mUWgfkTVN4Pzx1sX07Q9-68" value="ex_responsabile" style="shape=rhombus;perimeter=rhombusPerimeter;whiteSpace=wrap;html=1;align=center;" parent="mUWgfkTVN4Pzx1sX07Q9-1" vertex="1">
          <mxGeometry x="1018" y="352.5" width="145" height="75" as="geometry" />
        </mxCell>
        <mxCell id="mUWgfkTVN4Pzx1sX07Q9-77" value="(0, N)" style="text;html=1;align=center;verticalAlign=middle;resizable=0;points=[];autosize=1;strokeColor=none;fillColor=none;" parent="mUWgfkTVN4Pzx1sX07Q9-1" vertex="1">
          <mxGeometry x="480" y="451" width="50" height="30" as="geometry" />
        </mxCell>
        <mxCell id="mUWgfkTVN4Pzx1sX07Q9-78" value="&amp;nbsp;&lt;span style=&quot;white-space: pre;&quot;&gt; &lt;/span&gt;" style="text;html=1;align=center;verticalAlign=middle;resizable=0;points=[];autosize=1;strokeColor=none;fillColor=none;" parent="mUWgfkTVN4Pzx1sX07Q9-1" vertex="1">
          <mxGeometry x="702" y="87.03999999999999" width="50" height="30" as="geometry" />
        </mxCell>
        <mxCell id="mUWgfkTVN4Pzx1sX07Q9-79" value="IDUtente" style="text;html=1;align=center;verticalAlign=middle;resizable=0;points=[];autosize=1;strokeColor=none;fillColor=none;fontStyle=4" parent="mUWgfkTVN4Pzx1sX07Q9-1" vertex="1">
          <mxGeometry x="368.75" y="612" width="70" height="30" as="geometry" />
        </mxCell>
        <mxCell id="mUWgfkTVN4Pzx1sX07Q9-82" value="IDEsame" style="text;html=1;align=center;verticalAlign=middle;resizable=0;points=[];autosize=1;strokeColor=none;fillColor=none;fontStyle=4" parent="mUWgfkTVN4Pzx1sX07Q9-1" vertex="1">
          <mxGeometry x="990" y="575" width="70" height="30" as="geometry" />
        </mxCell>
        <mxCell id="mUWgfkTVN4Pzx1sX07Q9-83" value="(1, 1)" style="text;html=1;align=center;verticalAlign=middle;resizable=0;points=[];autosize=1;strokeColor=none;fillColor=none;" parent="mUWgfkTVN4Pzx1sX07Q9-1" vertex="1">
          <mxGeometry x="650" y="245" width="50" height="30" as="geometry" />
        </mxCell>
        <mxCell id="mUWgfkTVN4Pzx1sX07Q9-84" value="(1, N)" style="text;html=1;align=center;verticalAlign=middle;resizable=0;points=[];autosize=1;strokeColor=none;fillColor=none;" parent="mUWgfkTVN4Pzx1sX07Q9-1" vertex="1">
          <mxGeometry x="605" y="245" width="50" height="30" as="geometry" />
        </mxCell>
        <mxCell id="mUWgfkTVN4Pzx1sX07Q9-85" value="(1, N)" style="text;html=1;align=center;verticalAlign=middle;resizable=0;points=[];autosize=1;strokeColor=none;fillColor=none;" parent="mUWgfkTVN4Pzx1sX07Q9-1" vertex="1">
          <mxGeometry x="743" y="396" width="50" height="30" as="geometry" />
        </mxCell>
        <mxCell id="mUWgfkTVN4Pzx1sX07Q9-86" value="(1, 1)" style="text;html=1;align=center;verticalAlign=middle;resizable=0;points=[];autosize=1;strokeColor=none;fillColor=none;" parent="mUWgfkTVN4Pzx1sX07Q9-1" vertex="1">
          <mxGeometry x="955" y="498" width="50" height="30" as="geometry" />
        </mxCell>
        <mxCell id="mUWgfkTVN4Pzx1sX07Q9-87" value="" style="shape=waypoint;sketch=0;size=6;pointerEvents=1;points=[];fillColor=none;resizable=0;rotatable=0;perimeter=centerPerimeter;snapToPoint=1;" parent="mUWgfkTVN4Pzx1sX07Q9-1" vertex="1">
          <mxGeometry x="799.5" y="518" width="20" height="20" as="geometry" />
        </mxCell>
        <mxCell id="mUWgfkTVN4Pzx1sX07Q9-92" value="(0, N)" style="text;html=1;align=center;verticalAlign=middle;resizable=0;points=[];autosize=1;strokeColor=none;fillColor=none;" parent="mUWgfkTVN4Pzx1sX07Q9-1" vertex="1">
          <mxGeometry x="850" y="522" width="50" height="30" as="geometry" />
        </mxCell>
        <mxCell id="mUWgfkTVN4Pzx1sX07Q9-95" value="" style="endArrow=none;html=1;rounded=0;entryX=0.949;entryY=0.022;entryDx=0;entryDy=0;entryPerimeter=0;" parent="mUWgfkTVN4Pzx1sX07Q9-1" source="H5gtIbrwGkIfasZEDUU--11" target="mUWgfkTVN4Pzx1sX07Q9-64" edge="1">
          <mxGeometry width="50" height="50" relative="1" as="geometry">
            <mxPoint x="709.5" y="425" as="sourcePoint" />
            <mxPoint x="744.5" y="424.7" as="targetPoint" />
          </mxGeometry>
        </mxCell>
        <mxCell id="mUWgfkTVN4Pzx1sX07Q9-96" value="" style="endArrow=none;html=1;rounded=0;entryX=0.643;entryY=0.997;entryDx=0;entryDy=0;entryPerimeter=0;" parent="mUWgfkTVN4Pzx1sX07Q9-1" source="H5gtIbrwGkIfasZEDUU--13" target="mUWgfkTVN4Pzx1sX07Q9-10" edge="1">
          <mxGeometry width="50" height="50" relative="1" as="geometry">
            <mxPoint x="714.5" y="445" as="sourcePoint" />
            <mxPoint x="744.5" y="444.7" as="targetPoint" />
            <Array as="points">
              <mxPoint x="714.5" y="445" />
            </Array>
          </mxGeometry>
        </mxCell>
        <mxCell id="mUWgfkTVN4Pzx1sX07Q9-97" value="" style="endArrow=none;html=1;rounded=0;entryX=0;entryY=0.5;entryDx=0;entryDy=0;" parent="mUWgfkTVN4Pzx1sX07Q9-1" target="mUWgfkTVN4Pzx1sX07Q9-146" edge="1">
          <mxGeometry width="50" height="50" relative="1" as="geometry">
            <mxPoint x="570" y="660" as="sourcePoint" />
            <mxPoint x="440" y="429" as="targetPoint" />
          </mxGeometry>
        </mxCell>
        <mxCell id="mUWgfkTVN4Pzx1sX07Q9-98" value="" style="shape=waypoint;sketch=0;fillStyle=solid;size=6;pointerEvents=1;points=[];fillColor=none;resizable=0;rotatable=0;perimeter=centerPerimeter;snapToPoint=1;" parent="mUWgfkTVN4Pzx1sX07Q9-1" vertex="1">
          <mxGeometry x="560" y="648" width="20" height="20" as="geometry" />
        </mxCell>
        <mxCell id="mUWgfkTVN4Pzx1sX07Q9-101" value="" style="shape=waypoint;sketch=0;fillStyle=solid;size=6;pointerEvents=1;points=[];fillColor=none;resizable=0;rotatable=0;perimeter=centerPerimeter;snapToPoint=1;" parent="mUWgfkTVN4Pzx1sX07Q9-1" vertex="1">
          <mxGeometry x="277.5" y="49.04" width="20" height="20" as="geometry" />
        </mxCell>
        <mxCell id="mUWgfkTVN4Pzx1sX07Q9-102" value="" style="endArrow=none;html=1;rounded=0;" parent="mUWgfkTVN4Pzx1sX07Q9-1" target="mUWgfkTVN4Pzx1sX07Q9-101" edge="1">
          <mxGeometry width="50" height="50" relative="1" as="geometry">
            <mxPoint x="287.5" y="149.04" as="sourcePoint" />
            <mxPoint x="307.5" y="85.04" as="targetPoint" />
          </mxGeometry>
        </mxCell>
        <mxCell id="mUWgfkTVN4Pzx1sX07Q9-107" value="" style="endArrow=none;html=1;rounded=0;exitX=0.201;exitY=0.048;exitDx=0;exitDy=0;exitPerimeter=0;" parent="mUWgfkTVN4Pzx1sX07Q9-1" edge="1">
          <mxGeometry width="50" height="50" relative="1" as="geometry">
            <mxPoint x="302.5999999999999" y="150.96000000000006" as="sourcePoint" />
            <mxPoint x="302.5" y="85.04000000000005" as="targetPoint" />
          </mxGeometry>
        </mxCell>
        <mxCell id="mUWgfkTVN4Pzx1sX07Q9-108" value="" style="endArrow=none;html=1;rounded=0;entryX=0.417;entryY=0.695;entryDx=0;entryDy=0;entryPerimeter=0;exitX=0.453;exitY=-0.025;exitDx=0;exitDy=0;exitPerimeter=0;" parent="mUWgfkTVN4Pzx1sX07Q9-1" edge="1">
          <mxGeometry width="50" height="50" relative="1" as="geometry">
            <mxPoint x="327.7999999999997" y="148.04" as="sourcePoint" />
            <mxPoint x="327.5" y="115.04000000000002" as="targetPoint" />
          </mxGeometry>
        </mxCell>
        <mxCell id="mUWgfkTVN4Pzx1sX07Q9-110" value="" style="shape=waypoint;sketch=0;fillStyle=solid;size=6;pointerEvents=1;points=[];fillColor=none;resizable=0;rotatable=0;perimeter=centerPerimeter;snapToPoint=1;" parent="mUWgfkTVN4Pzx1sX07Q9-1" vertex="1">
          <mxGeometry x="530" y="207" width="20" height="20" as="geometry" />
        </mxCell>
        <mxCell id="mUWgfkTVN4Pzx1sX07Q9-111" style="edgeStyle=orthogonalEdgeStyle;rounded=0;orthogonalLoop=1;jettySize=auto;html=1;endArrow=none;endFill=0;" parent="mUWgfkTVN4Pzx1sX07Q9-1" source="H5gtIbrwGkIfasZEDUU--0" edge="1">
          <mxGeometry relative="1" as="geometry">
            <mxPoint x="570" y="247" as="targetPoint" />
            <Array as="points">
              <mxPoint x="540" y="247" />
            </Array>
            <mxPoint x="540" y="260" as="sourcePoint" />
          </mxGeometry>
        </mxCell>
        <mxCell id="mUWgfkTVN4Pzx1sX07Q9-113" style="edgeStyle=orthogonalEdgeStyle;rounded=0;orthogonalLoop=1;jettySize=auto;html=1;endArrow=none;endFill=0;" parent="mUWgfkTVN4Pzx1sX07Q9-1" source="mUWgfkTVN4Pzx1sX07Q9-114" edge="1">
          <mxGeometry relative="1" as="geometry">
            <mxPoint x="570" y="240" as="targetPoint" />
            <Array as="points">
              <mxPoint x="570" y="238" />
            </Array>
          </mxGeometry>
        </mxCell>
        <mxCell id="mUWgfkTVN4Pzx1sX07Q9-114" value="" style="ellipse;whiteSpace=wrap;html=1;aspect=fixed;" parent="mUWgfkTVN4Pzx1sX07Q9-1" vertex="1">
          <mxGeometry x="535" y="233" width="7" height="7" as="geometry" />
        </mxCell>
        <mxCell id="mUWgfkTVN4Pzx1sX07Q9-115" value="" style="endArrow=none;html=1;rounded=0;entryX=0.676;entryY=0.712;entryDx=0;entryDy=0;entryPerimeter=0;exitX=-0.018;exitY=0.16;exitDx=0;exitDy=0;exitPerimeter=0;" parent="mUWgfkTVN4Pzx1sX07Q9-1" source="mUWgfkTVN4Pzx1sX07Q9-19" target="mUWgfkTVN4Pzx1sX07Q9-110" edge="1">
          <mxGeometry width="50" height="50" relative="1" as="geometry">
            <mxPoint x="280" y="300" as="sourcePoint" />
            <mxPoint x="330" y="250" as="targetPoint" />
          </mxGeometry>
        </mxCell>
        <mxCell id="mUWgfkTVN4Pzx1sX07Q9-116" style="edgeStyle=orthogonalEdgeStyle;rounded=0;orthogonalLoop=1;jettySize=auto;html=1;entryX=0.444;entryY=0.987;entryDx=0;entryDy=0;entryPerimeter=0;endArrow=none;endFill=0;" parent="mUWgfkTVN4Pzx1sX07Q9-1" source="mUWgfkTVN4Pzx1sX07Q9-117" edge="1">
          <mxGeometry relative="1" as="geometry">
            <Array as="points">
              <mxPoint x="990" y="580" />
              <mxPoint x="989" y="580" />
            </Array>
            <mxPoint x="989.3999999999996" y="566.4800000000002" as="targetPoint" />
          </mxGeometry>
        </mxCell>
        <mxCell id="mUWgfkTVN4Pzx1sX07Q9-117" value="" style="shape=waypoint;sketch=0;size=6;pointerEvents=1;points=[];fillColor=none;resizable=0;rotatable=0;perimeter=centerPerimeter;snapToPoint=1;" parent="mUWgfkTVN4Pzx1sX07Q9-1" vertex="1">
          <mxGeometry x="980" y="580" width="20" height="20" as="geometry" />
        </mxCell>
        <mxCell id="mUWgfkTVN4Pzx1sX07Q9-120" value="" style="endArrow=none;html=1;rounded=0;entryX=0.372;entryY=0.406;entryDx=0;entryDy=0;entryPerimeter=0;" parent="mUWgfkTVN4Pzx1sX07Q9-1" source="H5gtIbrwGkIfasZEDUU--5" edge="1">
          <mxGeometry width="50" height="50" relative="1" as="geometry">
            <mxPoint x="546" y="159" as="sourcePoint" />
            <mxPoint x="545" y="128" as="targetPoint" />
          </mxGeometry>
        </mxCell>
        <mxCell id="mUWgfkTVN4Pzx1sX07Q9-121" value="crediti" style="text;html=1;align=center;verticalAlign=middle;resizable=0;points=[];autosize=1;strokeColor=none;fillColor=none;" parent="mUWgfkTVN4Pzx1sX07Q9-1" vertex="1">
          <mxGeometry x="490" y="275" width="60" height="30" as="geometry" />
        </mxCell>
        <mxCell id="mUWgfkTVN4Pzx1sX07Q9-122" style="edgeStyle=orthogonalEdgeStyle;rounded=0;orthogonalLoop=1;jettySize=auto;html=1;entryX=0.116;entryY=1.053;entryDx=0;entryDy=0;entryPerimeter=0;endArrow=none;endFill=0;" parent="mUWgfkTVN4Pzx1sX07Q9-1" target="mUWgfkTVN4Pzx1sX07Q9-19" edge="1">
          <mxGeometry relative="1" as="geometry">
            <mxPoint x="545" y="290" as="sourcePoint" />
          </mxGeometry>
        </mxCell>
        <mxCell id="mUWgfkTVN4Pzx1sX07Q9-136" style="edgeStyle=orthogonalEdgeStyle;rounded=0;orthogonalLoop=1;jettySize=auto;html=1;endArrow=none;endFill=0;" parent="mUWgfkTVN4Pzx1sX07Q9-1" source="mUWgfkTVN4Pzx1sX07Q9-137" target="mUWgfkTVN4Pzx1sX07Q9-16" edge="1">
          <mxGeometry relative="1" as="geometry">
            <Array as="points">
              <mxPoint x="-35" y="150" />
            </Array>
          </mxGeometry>
        </mxCell>
        <mxCell id="mUWgfkTVN4Pzx1sX07Q9-137" value="storico_iscrizione" style="shape=rhombus;perimeter=rhombusPerimeter;whiteSpace=wrap;html=1;align=center;" parent="mUWgfkTVN4Pzx1sX07Q9-1" vertex="1">
          <mxGeometry x="-110" y="940" width="150" height="60" as="geometry" />
        </mxCell>
        <mxCell id="mUWgfkTVN4Pzx1sX07Q9-138" style="edgeStyle=orthogonalEdgeStyle;rounded=0;orthogonalLoop=1;jettySize=auto;html=1;exitX=0.5;exitY=0;exitDx=0;exitDy=0;endArrow=none;endFill=0;entryX=1;entryY=0.75;entryDx=0;entryDy=0;" parent="mUWgfkTVN4Pzx1sX07Q9-1" source="mUWgfkTVN4Pzx1sX07Q9-140" target="mUWgfkTVN4Pzx1sX07Q9-16" edge="1">
          <mxGeometry relative="1" as="geometry">
            <Array as="points">
              <mxPoint x="408" y="270" />
              <mxPoint x="408" y="180" />
            </Array>
          </mxGeometry>
        </mxCell>
        <mxCell id="mUWgfkTVN4Pzx1sX07Q9-139" style="edgeStyle=orthogonalEdgeStyle;rounded=0;orthogonalLoop=1;jettySize=auto;html=1;entryX=0.321;entryY=0.005;entryDx=0;entryDy=0;entryPerimeter=0;endArrow=none;endFill=0;" parent="mUWgfkTVN4Pzx1sX07Q9-1" source="mUWgfkTVN4Pzx1sX07Q9-140" target="mUWgfkTVN4Pzx1sX07Q9-5" edge="1">
          <mxGeometry relative="1" as="geometry">
            <Array as="points">
              <mxPoint x="408" y="462" />
            </Array>
          </mxGeometry>
        </mxCell>
        <mxCell id="mUWgfkTVN4Pzx1sX07Q9-140" value="iscrizione" style="shape=rhombus;perimeter=rhombusPerimeter;whiteSpace=wrap;html=1;align=center;" parent="mUWgfkTVN4Pzx1sX07Q9-1" vertex="1">
          <mxGeometry x="368.75" y="314" width="77.5" height="60" as="geometry" />
        </mxCell>
        <mxCell id="mUWgfkTVN4Pzx1sX07Q9-141" value="(0, N)" style="text;html=1;align=center;verticalAlign=middle;resizable=0;points=[];autosize=1;strokeColor=none;fillColor=none;" parent="mUWgfkTVN4Pzx1sX07Q9-1" vertex="1">
          <mxGeometry x="347.5" y="180" width="50" height="30" as="geometry" />
        </mxCell>
        <mxCell id="mUWgfkTVN4Pzx1sX07Q9-142" value="(1, 1)" style="text;html=1;align=center;verticalAlign=middle;resizable=0;points=[];autosize=1;strokeColor=none;fillColor=none;" parent="mUWgfkTVN4Pzx1sX07Q9-1" vertex="1">
          <mxGeometry x="404.5" y="436" width="50" height="30" as="geometry" />
        </mxCell>
        <mxCell id="mUWgfkTVN4Pzx1sX07Q9-143" style="edgeStyle=orthogonalEdgeStyle;rounded=0;orthogonalLoop=1;jettySize=auto;html=1;endArrow=none;endFill=0;" parent="mUWgfkTVN4Pzx1sX07Q9-1" source="mUWgfkTVN4Pzx1sX07Q9-146" target="mUWgfkTVN4Pzx1sX07Q9-149" edge="1">
          <mxGeometry relative="1" as="geometry" />
        </mxCell>
        <mxCell id="mUWgfkTVN4Pzx1sX07Q9-144" style="edgeStyle=orthogonalEdgeStyle;rounded=0;orthogonalLoop=1;jettySize=auto;html=1;endArrow=none;endFill=0;entryX=0.5;entryY=0;entryDx=0;entryDy=0;" parent="mUWgfkTVN4Pzx1sX07Q9-1" source="mUWgfkTVN4Pzx1sX07Q9-146" target="mUWgfkTVN4Pzx1sX07Q9-153" edge="1">
          <mxGeometry relative="1" as="geometry">
            <Array as="points">
              <mxPoint x="640" y="790" />
              <mxPoint x="640" y="790" />
            </Array>
          </mxGeometry>
        </mxCell>
        <mxCell id="mUWgfkTVN4Pzx1sX07Q9-146" value="matricola" style="whiteSpace=wrap;html=1;align=center;" parent="mUWgfkTVN4Pzx1sX07Q9-1" vertex="1">
          <mxGeometry x="585" y="648" width="100" height="40" as="geometry" />
        </mxCell>
        <mxCell id="mUWgfkTVN4Pzx1sX07Q9-147" style="edgeStyle=orthogonalEdgeStyle;rounded=0;orthogonalLoop=1;jettySize=auto;html=1;exitX=0.5;exitY=1;exitDx=0;exitDy=0;" parent="mUWgfkTVN4Pzx1sX07Q9-1" source="mUWgfkTVN4Pzx1sX07Q9-146" target="mUWgfkTVN4Pzx1sX07Q9-146" edge="1">
          <mxGeometry relative="1" as="geometry" />
        </mxCell>
        <mxCell id="mUWgfkTVN4Pzx1sX07Q9-148" style="edgeStyle=orthogonalEdgeStyle;rounded=0;orthogonalLoop=1;jettySize=auto;html=1;entryX=1;entryY=0.75;entryDx=0;entryDy=0;endArrow=none;endFill=0;" parent="mUWgfkTVN4Pzx1sX07Q9-1" source="mUWgfkTVN4Pzx1sX07Q9-149" target="mUWgfkTVN4Pzx1sX07Q9-5" edge="1">
          <mxGeometry relative="1" as="geometry">
            <Array as="points">
              <mxPoint x="560" y="492" />
            </Array>
          </mxGeometry>
        </mxCell>
        <mxCell id="mUWgfkTVN4Pzx1sX07Q9-149" value="appartenere" style="shape=rhombus;perimeter=rhombusPerimeter;whiteSpace=wrap;html=1;align=center;" parent="mUWgfkTVN4Pzx1sX07Q9-1" vertex="1">
          <mxGeometry x="500" y="547" width="120" height="60" as="geometry" />
        </mxCell>
        <mxCell id="mUWgfkTVN4Pzx1sX07Q9-150" value="(1, 1)" style="text;html=1;align=center;verticalAlign=middle;resizable=0;points=[];autosize=1;strokeColor=none;fillColor=none;" parent="mUWgfkTVN4Pzx1sX07Q9-1" vertex="1">
          <mxGeometry x="477.5" y="490" width="50" height="30" as="geometry" />
        </mxCell>
        <mxCell id="mUWgfkTVN4Pzx1sX07Q9-151" value="(0, 1)" style="text;html=1;align=center;verticalAlign=middle;resizable=0;points=[];autosize=1;strokeColor=none;fillColor=none;" parent="mUWgfkTVN4Pzx1sX07Q9-1" vertex="1">
          <mxGeometry x="590" y="623" width="50" height="30" as="geometry" />
        </mxCell>
        <mxCell id="mUWgfkTVN4Pzx1sX07Q9-152" style="edgeStyle=orthogonalEdgeStyle;rounded=0;orthogonalLoop=1;jettySize=auto;html=1;entryX=1;entryY=0.5;entryDx=0;entryDy=0;exitX=0.5;exitY=1;exitDx=0;exitDy=0;endArrow=none;endFill=0;" parent="mUWgfkTVN4Pzx1sX07Q9-1" source="mUWgfkTVN4Pzx1sX07Q9-153" target="mUWgfkTVN4Pzx1sX07Q9-61" edge="1">
          <mxGeometry relative="1" as="geometry">
            <Array as="points">
              <mxPoint x="620" y="969" />
              <mxPoint x="486" y="969" />
            </Array>
          </mxGeometry>
        </mxCell>
        <mxCell id="mUWgfkTVN4Pzx1sX07Q9-153" value="appartenere" style="shape=rhombus;perimeter=rhombusPerimeter;whiteSpace=wrap;html=1;align=center;" parent="mUWgfkTVN4Pzx1sX07Q9-1" vertex="1">
          <mxGeometry x="580" y="900.5" width="120" height="60" as="geometry" />
        </mxCell>
        <mxCell id="mUWgfkTVN4Pzx1sX07Q9-154" value="(0, 1)" style="text;html=1;align=center;verticalAlign=middle;resizable=0;points=[];autosize=1;strokeColor=none;fillColor=none;" parent="mUWgfkTVN4Pzx1sX07Q9-1" vertex="1">
          <mxGeometry x="635" y="685" width="50" height="30" as="geometry" />
        </mxCell>
        <mxCell id="mUWgfkTVN4Pzx1sX07Q9-155" value="(1, 1)" style="text;html=1;align=center;verticalAlign=middle;resizable=0;points=[];autosize=1;strokeColor=none;fillColor=none;" parent="mUWgfkTVN4Pzx1sX07Q9-1" vertex="1">
          <mxGeometry x="405.5" y="941.5" width="50" height="30" as="geometry" />
        </mxCell>
        <mxCell id="mUWgfkTVN4Pzx1sX07Q9-157" value="(0, N)" style="text;html=1;align=center;verticalAlign=middle;resizable=0;points=[];autosize=1;strokeColor=none;fillColor=none;" parent="mUWgfkTVN4Pzx1sX07Q9-1" vertex="1">
          <mxGeometry x="680" y="642" width="50" height="30" as="geometry" />
        </mxCell>
        <mxCell id="mUWgfkTVN4Pzx1sX07Q9-164" style="edgeStyle=orthogonalEdgeStyle;rounded=0;orthogonalLoop=1;jettySize=auto;html=1;exitX=0;exitY=0.5;exitDx=0;exitDy=0;endArrow=none;endFill=0;entryX=0.129;entryY=-0.001;entryDx=0;entryDy=0;entryPerimeter=0;" parent="mUWgfkTVN4Pzx1sX07Q9-1" target="mUWgfkTVN4Pzx1sX07Q9-16" edge="1">
          <mxGeometry relative="1" as="geometry">
            <Array as="points">
              <mxPoint x="-120" y="1085" />
              <mxPoint x="-120" y="130" />
              <mxPoint x="263" y="130" />
            </Array>
            <mxPoint x="652.5" y="1085" as="sourcePoint" />
          </mxGeometry>
        </mxCell>
        <mxCell id="mUWgfkTVN4Pzx1sX07Q9-177" value="stato" style="text;html=1;align=center;verticalAlign=middle;resizable=0;points=[];autosize=1;strokeColor=none;fillColor=none;" parent="mUWgfkTVN4Pzx1sX07Q9-1" vertex="1">
          <mxGeometry x="743" y="573" width="50" height="30" as="geometry" />
        </mxCell>
        <mxCell id="mUWgfkTVN4Pzx1sX07Q9-186" value="(0, N)" style="text;html=1;align=center;verticalAlign=middle;resizable=0;points=[];autosize=1;strokeColor=none;fillColor=none;" parent="mUWgfkTVN4Pzx1sX07Q9-1" vertex="1">
          <mxGeometry x="205" y="98" width="50" height="30" as="geometry" />
        </mxCell>
        <mxCell id="mUWgfkTVN4Pzx1sX07Q9-187" value="(0, N)" style="text;html=1;align=center;verticalAlign=middle;resizable=0;points=[];autosize=1;strokeColor=none;fillColor=none;" parent="mUWgfkTVN4Pzx1sX07Q9-1" vertex="1">
          <mxGeometry x="205" y="126" width="50" height="30" as="geometry" />
        </mxCell>
        <mxCell id="mUWgfkTVN4Pzx1sX07Q9-188" style="edgeStyle=orthogonalEdgeStyle;rounded=0;orthogonalLoop=1;jettySize=auto;html=1;entryX=0;entryY=1;entryDx=0;entryDy=0;endArrow=none;endFill=0;" parent="mUWgfkTVN4Pzx1sX07Q9-1" target="mUWgfkTVN4Pzx1sX07Q9-55" edge="1">
          <mxGeometry relative="1" as="geometry">
            <mxPoint x="700" y="588" as="sourcePoint" />
          </mxGeometry>
        </mxCell>
        <mxCell id="mUWgfkTVN4Pzx1sX07Q9-190" style="edgeStyle=orthogonalEdgeStyle;rounded=0;orthogonalLoop=1;jettySize=auto;html=1;entryX=0.625;entryY=0.874;entryDx=0;entryDy=0;entryPerimeter=0;endArrow=none;endFill=0;" parent="mUWgfkTVN4Pzx1sX07Q9-1" target="mUWgfkTVN4Pzx1sX07Q9-55" edge="1">
          <mxGeometry relative="1" as="geometry">
            <mxPoint x="745" y="588" as="sourcePoint" />
          </mxGeometry>
        </mxCell>
        <mxCell id="mUWgfkTVN4Pzx1sX07Q9-200" style="edgeStyle=orthogonalEdgeStyle;rounded=0;orthogonalLoop=1;jettySize=auto;html=1;entryX=0;entryY=1;entryDx=0;entryDy=0;endArrow=none;endFill=0;" parent="mUWgfkTVN4Pzx1sX07Q9-1" source="H5gtIbrwGkIfasZEDUU--18" target="mUWgfkTVN4Pzx1sX07Q9-149" edge="1">
          <mxGeometry relative="1" as="geometry">
            <mxPoint x="607" y="436" as="targetPoint" />
            <mxPoint x="515" y="602" as="sourcePoint" />
            <Array as="points">
              <mxPoint x="530" y="602" />
            </Array>
          </mxGeometry>
        </mxCell>
        <mxCell id="mUWgfkTVN4Pzx1sX07Q9-212" value="codiceFiscale" style="text;html=1;align=center;verticalAlign=middle;resizable=0;points=[];autosize=1;strokeColor=none;fillColor=none;" parent="mUWgfkTVN4Pzx1sX07Q9-1" vertex="1">
          <mxGeometry x="470" y="668" width="100" height="30" as="geometry" />
        </mxCell>
        <mxCell id="mUWgfkTVN4Pzx1sX07Q9-213" style="edgeStyle=orthogonalEdgeStyle;rounded=0;orthogonalLoop=1;jettySize=auto;html=1;endArrow=none;endFill=0;entryX=-0.004;entryY=0.873;entryDx=0;entryDy=0;entryPerimeter=0;" parent="mUWgfkTVN4Pzx1sX07Q9-1" target="mUWgfkTVN4Pzx1sX07Q9-146" edge="1">
          <mxGeometry relative="1" as="geometry">
            <mxPoint x="580" y="683" as="targetPoint" />
            <mxPoint x="567" y="683" as="sourcePoint" />
          </mxGeometry>
        </mxCell>
        <mxCell id="mUWgfkTVN4Pzx1sX07Q9-215" value="annoAttivazione" style="text;html=1;align=center;verticalAlign=middle;resizable=0;points=[];autosize=1;strokeColor=none;fillColor=none;" parent="mUWgfkTVN4Pzx1sX07Q9-1" vertex="1">
          <mxGeometry x="467" y="300" width="110" height="30" as="geometry" />
        </mxCell>
        <mxCell id="mUWgfkTVN4Pzx1sX07Q9-216" style="edgeStyle=orthogonalEdgeStyle;rounded=0;orthogonalLoop=1;jettySize=auto;html=1;entryX=0.25;entryY=1;entryDx=0;entryDy=0;endArrow=none;endFill=0;" parent="mUWgfkTVN4Pzx1sX07Q9-1" source="H5gtIbrwGkIfasZEDUU--3" target="mUWgfkTVN4Pzx1sX07Q9-19" edge="1">
          <mxGeometry relative="1" as="geometry">
            <Array as="points">
              <mxPoint x="595" y="315" />
            </Array>
            <mxPoint x="575" y="315" as="sourcePoint" />
          </mxGeometry>
        </mxCell>
        <mxCell id="mUWgfkTVN4Pzx1sX07Q9-221" value="voto" style="text;html=1;align=center;verticalAlign=middle;resizable=0;points=[];autosize=1;strokeColor=none;fillColor=none;" parent="mUWgfkTVN4Pzx1sX07Q9-1" vertex="1">
          <mxGeometry x="645" y="508" width="50" height="30" as="geometry" />
        </mxCell>
        <mxCell id="mUWgfkTVN4Pzx1sX07Q9-222" style="edgeStyle=orthogonalEdgeStyle;rounded=0;orthogonalLoop=1;jettySize=auto;html=1;entryX=0.422;entryY=0.117;entryDx=0;entryDy=0;entryPerimeter=0;endArrow=none;endFill=0;" parent="mUWgfkTVN4Pzx1sX07Q9-1" target="mUWgfkTVN4Pzx1sX07Q9-55" edge="1">
          <mxGeometry relative="1" as="geometry">
            <mxPoint x="692.5" y="523" as="sourcePoint" />
          </mxGeometry>
        </mxCell>
        <mxCell id="mUWgfkTVN4Pzx1sX07Q9-226" value="(0, N)" style="text;html=1;align=center;verticalAlign=middle;resizable=0;points=[];autosize=1;strokeColor=none;fillColor=none;" parent="mUWgfkTVN4Pzx1sX07Q9-1" vertex="1">
          <mxGeometry x="594.5" y="685" width="50" height="30" as="geometry" />
        </mxCell>
        <mxCell id="mUWgfkTVN4Pzx1sX07Q9-230" value="(0, N)" style="text;html=1;align=center;verticalAlign=middle;resizable=0;points=[];autosize=1;strokeColor=none;fillColor=none;" parent="mUWgfkTVN4Pzx1sX07Q9-1" vertex="1">
          <mxGeometry x="743" y="362" width="50" height="30" as="geometry" />
        </mxCell>
        <mxCell id="mUWgfkTVN4Pzx1sX07Q9-231" value="(1, 1)" style="text;html=1;align=center;verticalAlign=middle;resizable=0;points=[];autosize=1;strokeColor=none;fillColor=none;" parent="mUWgfkTVN4Pzx1sX07Q9-1" vertex="1">
          <mxGeometry x="266" y="942" width="50" height="30" as="geometry" />
        </mxCell>
        <mxCell id="mUWgfkTVN4Pzx1sX07Q9-232" value="dataImmatricolazione" style="text;html=1;align=center;verticalAlign=middle;resizable=0;points=[];autosize=1;strokeColor=none;fillColor=none;fontSize=10;" parent="mUWgfkTVN4Pzx1sX07Q9-1" vertex="1">
          <mxGeometry x="347.5" y="1011.5" width="113" height="24" as="geometry" />
        </mxCell>
        <mxCell id="mUWgfkTVN4Pzx1sX07Q9-233" value="dataRimozione" style="text;html=1;align=center;verticalAlign=middle;resizable=0;points=[];autosize=1;strokeColor=none;fillColor=none;" parent="mUWgfkTVN4Pzx1sX07Q9-1" vertex="1">
          <mxGeometry x="262.5" y="1008.5" width="100" height="30" as="geometry" />
        </mxCell>
        <mxCell id="kwuCq1-gE4yX7JOUzjt6-0" style="edgeStyle=orthogonalEdgeStyle;rounded=0;orthogonalLoop=1;jettySize=auto;html=1;entryX=0.5;entryY=1;entryDx=0;entryDy=0;endArrow=none;endFill=0;exitX=0.5;exitY=0;exitDx=0;exitDy=0;" parent="mUWgfkTVN4Pzx1sX07Q9-1" source="kwuCq1-gE4yX7JOUzjt6-2" target="kwuCq1-gE4yX7JOUzjt6-26" edge="1">
          <mxGeometry relative="1" as="geometry">
            <Array as="points">
              <mxPoint x="810" y="668" />
            </Array>
          </mxGeometry>
        </mxCell>
        <mxCell id="kwuCq1-gE4yX7JOUzjt6-1" style="edgeStyle=orthogonalEdgeStyle;rounded=0;orthogonalLoop=1;jettySize=auto;html=1;entryX=0.5;entryY=0;entryDx=0;entryDy=0;endArrow=none;endFill=0;" parent="mUWgfkTVN4Pzx1sX07Q9-1" source="kwuCq1-gE4yX7JOUzjt6-2" target="kwuCq1-gE4yX7JOUzjt6-13" edge="1">
          <mxGeometry relative="1" as="geometry" />
        </mxCell>
        <mxCell id="kwuCq1-gE4yX7JOUzjt6-2" value="laurea" style="whiteSpace=wrap;html=1;align=center;" parent="mUWgfkTVN4Pzx1sX07Q9-1" vertex="1">
          <mxGeometry x="759.5" y="785" width="100" height="40" as="geometry" />
        </mxCell>
        <mxCell id="kwuCq1-gE4yX7JOUzjt6-3" style="edgeStyle=orthogonalEdgeStyle;rounded=0;orthogonalLoop=1;jettySize=auto;html=1;entryX=0;entryY=0.5;entryDx=0;entryDy=0;endArrow=none;endFill=0;" parent="mUWgfkTVN4Pzx1sX07Q9-1" target="kwuCq1-gE4yX7JOUzjt6-26" edge="1">
          <mxGeometry relative="1" as="geometry">
            <mxPoint x="685" y="668" as="sourcePoint" />
          </mxGeometry>
        </mxCell>
        <mxCell id="kwuCq1-gE4yX7JOUzjt6-7" style="edgeStyle=orthogonalEdgeStyle;rounded=0;orthogonalLoop=1;jettySize=auto;html=1;endArrow=none;endFill=0;entryX=1;entryY=0.5;entryDx=0;entryDy=0;" parent="mUWgfkTVN4Pzx1sX07Q9-1" source="kwuCq1-gE4yX7JOUzjt6-9" target="kwuCq1-gE4yX7JOUzjt6-10" edge="1">
          <mxGeometry relative="1" as="geometry">
            <mxPoint x="724.5" y="1085" as="targetPoint" />
          </mxGeometry>
        </mxCell>
        <mxCell id="kwuCq1-gE4yX7JOUzjt6-8" style="edgeStyle=orthogonalEdgeStyle;rounded=0;orthogonalLoop=1;jettySize=auto;html=1;entryX=0.5;entryY=1;entryDx=0;entryDy=0;endArrow=none;endFill=0;" parent="mUWgfkTVN4Pzx1sX07Q9-1" source="kwuCq1-gE4yX7JOUzjt6-9" target="kwuCq1-gE4yX7JOUzjt6-13" edge="1">
          <mxGeometry relative="1" as="geometry">
            <Array as="points">
              <mxPoint x="810" y="1040" />
              <mxPoint x="810" y="1040" />
            </Array>
          </mxGeometry>
        </mxCell>
        <mxCell id="kwuCq1-gE4yX7JOUzjt6-9" value="sessione_laurea" style="whiteSpace=wrap;html=1;align=center;" parent="mUWgfkTVN4Pzx1sX07Q9-1" vertex="1">
          <mxGeometry x="759.5" y="1065" width="100" height="40" as="geometry" />
        </mxCell>
        <mxCell id="kwuCq1-gE4yX7JOUzjt6-10" value="riguardare" style="shape=rhombus;perimeter=rhombusPerimeter;whiteSpace=wrap;html=1;align=center;" parent="mUWgfkTVN4Pzx1sX07Q9-1" vertex="1">
          <mxGeometry x="594.5" y="1055" width="120" height="60" as="geometry" />
        </mxCell>
        <mxCell id="kwuCq1-gE4yX7JOUzjt6-12" value="lode" style="text;html=1;align=center;verticalAlign=middle;resizable=0;points=[];autosize=1;strokeColor=none;fillColor=none;" parent="mUWgfkTVN4Pzx1sX07Q9-1" vertex="1">
          <mxGeometry x="887" y="798" width="50" height="30" as="geometry" />
        </mxCell>
        <mxCell id="kwuCq1-gE4yX7JOUzjt6-13" value="essersi_svolta" style="shape=rhombus;perimeter=rhombusPerimeter;whiteSpace=wrap;html=1;align=center;" parent="mUWgfkTVN4Pzx1sX07Q9-1" vertex="1">
          <mxGeometry x="746.5" y="908.5" width="125" height="62" as="geometry" />
        </mxCell>
        <mxCell id="kwuCq1-gE4yX7JOUzjt6-14" value="(0, N)" style="text;html=1;align=center;verticalAlign=middle;resizable=0;points=[];autosize=1;strokeColor=none;fillColor=none;" parent="mUWgfkTVN4Pzx1sX07Q9-1" vertex="1">
          <mxGeometry x="809.5" y="1040" width="50" height="30" as="geometry" />
        </mxCell>
        <mxCell id="kwuCq1-gE4yX7JOUzjt6-15" value="(1, 1)" style="text;html=1;align=center;verticalAlign=middle;resizable=0;points=[];autosize=1;strokeColor=none;fillColor=none;" parent="mUWgfkTVN4Pzx1sX07Q9-1" vertex="1">
          <mxGeometry x="803" y="827" width="50" height="30" as="geometry" />
        </mxCell>
        <mxCell id="kwuCq1-gE4yX7JOUzjt6-16" style="edgeStyle=orthogonalEdgeStyle;rounded=0;orthogonalLoop=1;jettySize=auto;html=1;entryX=1;entryY=0.5;entryDx=0;entryDy=0;endArrow=none;endFill=0;exitX=0.25;exitY=1;exitDx=0;exitDy=0;exitPerimeter=0;" parent="mUWgfkTVN4Pzx1sX07Q9-1" target="kwuCq1-gE4yX7JOUzjt6-13" edge="1">
          <mxGeometry relative="1" as="geometry">
            <mxPoint x="894.5" y="939.5" as="sourcePoint" />
          </mxGeometry>
        </mxCell>
        <mxCell id="kwuCq1-gE4yX7JOUzjt6-18" value="(1, 1)" style="text;html=1;align=center;verticalAlign=middle;resizable=0;points=[];autosize=1;strokeColor=none;fillColor=none;" parent="mUWgfkTVN4Pzx1sX07Q9-1" vertex="1">
          <mxGeometry x="682" y="1090" width="50" height="30" as="geometry" />
        </mxCell>
        <mxCell id="kwuCq1-gE4yX7JOUzjt6-19" style="edgeStyle=orthogonalEdgeStyle;rounded=0;orthogonalLoop=1;jettySize=auto;html=1;entryX=1;entryY=0.75;entryDx=0;entryDy=0;endArrow=none;endFill=0;" parent="mUWgfkTVN4Pzx1sX07Q9-1" target="kwuCq1-gE4yX7JOUzjt6-2" edge="1">
          <mxGeometry relative="1" as="geometry">
            <mxPoint x="885" y="813" as="sourcePoint" />
          </mxGeometry>
        </mxCell>
        <mxCell id="kwuCq1-gE4yX7JOUzjt6-21" style="edgeStyle=orthogonalEdgeStyle;rounded=0;orthogonalLoop=1;jettySize=auto;html=1;endArrow=none;endFill=0;entryX=1;entryY=0.25;entryDx=0;entryDy=0;" parent="mUWgfkTVN4Pzx1sX07Q9-1" source="H5gtIbrwGkIfasZEDUU--53" target="kwuCq1-gE4yX7JOUzjt6-2" edge="1">
          <mxGeometry relative="1" as="geometry">
            <mxPoint x="950.5" y="690" as="targetPoint" />
            <mxPoint x="885" y="795" as="sourcePoint" />
          </mxGeometry>
        </mxCell>
        <mxCell id="kwuCq1-gE4yX7JOUzjt6-23" value="data" style="text;html=1;align=center;verticalAlign=middle;resizable=0;points=[];autosize=1;strokeColor=none;fillColor=none;" parent="mUWgfkTVN4Pzx1sX07Q9-1" vertex="1">
          <mxGeometry x="727" y="1126" width="50" height="30" as="geometry" />
        </mxCell>
        <mxCell id="kwuCq1-gE4yX7JOUzjt6-24" style="edgeStyle=orthogonalEdgeStyle;rounded=0;orthogonalLoop=1;jettySize=auto;html=1;entryX=0;entryY=0.25;entryDx=0;entryDy=0;endArrow=none;endFill=0;" parent="mUWgfkTVN4Pzx1sX07Q9-1" source="kwuCq1-gE4yX7JOUzjt6-25" edge="1">
          <mxGeometry relative="1" as="geometry">
            <mxPoint x="740" y="1130" as="sourcePoint" />
            <mxPoint x="760" y="1075" as="targetPoint" />
            <Array as="points">
              <mxPoint x="752" y="1130" />
              <mxPoint x="752" y="1075" />
            </Array>
          </mxGeometry>
        </mxCell>
        <mxCell id="kwuCq1-gE4yX7JOUzjt6-25" value="" style="shape=waypoint;sketch=0;size=6;pointerEvents=1;points=[];fillColor=none;resizable=0;rotatable=0;perimeter=centerPerimeter;snapToPoint=1;" parent="mUWgfkTVN4Pzx1sX07Q9-1" vertex="1">
          <mxGeometry x="744.5" y="1120" width="20" height="20" as="geometry" />
        </mxCell>
        <mxCell id="kwuCq1-gE4yX7JOUzjt6-26" value="conseguire" style="shape=rhombus;perimeter=rhombusPerimeter;whiteSpace=wrap;html=1;align=center;" parent="mUWgfkTVN4Pzx1sX07Q9-1" vertex="1">
          <mxGeometry x="767.5" y="638" width="82.5" height="60" as="geometry" />
        </mxCell>
        <mxCell id="PcH7UnLbNSWaem_GZeyW-0" value="attivo" style="text;html=1;align=center;verticalAlign=middle;resizable=0;points=[];autosize=1;strokeColor=none;fillColor=none;" parent="mUWgfkTVN4Pzx1sX07Q9-1" vertex="1">
          <mxGeometry x="250" y="210" width="50" height="30" as="geometry" />
        </mxCell>
        <mxCell id="PcH7UnLbNSWaem_GZeyW-2" value="" style="endArrow=none;html=1;rounded=0;exitX=0.104;exitY=1.042;exitDx=0;exitDy=0;exitPerimeter=0;" parent="mUWgfkTVN4Pzx1sX07Q9-1" edge="1">
          <mxGeometry width="50" height="50" relative="1" as="geometry">
            <mxPoint x="285.4000000000001" y="189.16" as="sourcePoint" />
            <mxPoint x="285" y="210" as="targetPoint" />
          </mxGeometry>
        </mxCell>
        <mxCell id="PcH7UnLbNSWaem_GZeyW-3" value="valoreLode" style="text;html=1;align=center;verticalAlign=middle;resizable=0;points=[];autosize=1;strokeColor=none;fillColor=none;" parent="mUWgfkTVN4Pzx1sX07Q9-1" vertex="1">
          <mxGeometry x="300" y="212" width="80" height="30" as="geometry" />
        </mxCell>
        <mxCell id="PcH7UnLbNSWaem_GZeyW-4" style="edgeStyle=orthogonalEdgeStyle;rounded=0;orthogonalLoop=1;jettySize=auto;html=1;entryX=0.407;entryY=0.988;entryDx=0;entryDy=0;entryPerimeter=0;endArrow=none;endFill=0;" parent="mUWgfkTVN4Pzx1sX07Q9-1" edge="1">
          <mxGeometry relative="1" as="geometry">
            <mxPoint x="315.6999999999998" y="189.99999999999997" as="targetPoint" />
            <mxPoint x="315" y="209.48000000000002" as="sourcePoint" />
          </mxGeometry>
        </mxCell>
        <mxCell id="vow5cse4QiFHsFJp0WXO-0" value="(1, 1)" style="text;html=1;align=center;verticalAlign=middle;resizable=0;points=[];autosize=1;strokeColor=none;fillColor=none;" parent="mUWgfkTVN4Pzx1sX07Q9-1" vertex="1">
          <mxGeometry x="800" y="761.5" width="50" height="30" as="geometry" />
        </mxCell>
        <mxCell id="H5gtIbrwGkIfasZEDUU--0" value="" style="ellipse;whiteSpace=wrap;html=1;aspect=fixed;" parent="mUWgfkTVN4Pzx1sX07Q9-1" vertex="1">
          <mxGeometry x="536.5" y="256.5" width="7" height="7" as="geometry" />
        </mxCell>
        <mxCell id="H5gtIbrwGkIfasZEDUU--2" value="" style="ellipse;whiteSpace=wrap;html=1;aspect=fixed;" parent="mUWgfkTVN4Pzx1sX07Q9-1" vertex="1">
          <mxGeometry x="540" y="285" width="7" height="7" as="geometry" />
        </mxCell>
        <mxCell id="H5gtIbrwGkIfasZEDUU--3" value="" style="ellipse;whiteSpace=wrap;html=1;aspect=fixed;" parent="mUWgfkTVN4Pzx1sX07Q9-1" vertex="1">
          <mxGeometry x="570" y="311.5" width="7" height="7" as="geometry" />
        </mxCell>
        <mxCell id="H5gtIbrwGkIfasZEDUU--6" value="" style="endArrow=none;html=1;rounded=0;entryX=0.372;entryY=0.406;entryDx=0;entryDy=0;entryPerimeter=0;" parent="mUWgfkTVN4Pzx1sX07Q9-1" target="H5gtIbrwGkIfasZEDUU--5" edge="1">
          <mxGeometry width="50" height="50" relative="1" as="geometry">
            <mxPoint x="546" y="160" as="sourcePoint" />
            <mxPoint x="545" y="128" as="targetPoint" />
          </mxGeometry>
        </mxCell>
        <mxCell id="H5gtIbrwGkIfasZEDUU--5" value="" style="ellipse;whiteSpace=wrap;html=1;aspect=fixed;" parent="mUWgfkTVN4Pzx1sX07Q9-1" vertex="1">
          <mxGeometry x="543" y="125.03999999999999" width="7" height="7" as="geometry" />
        </mxCell>
        <mxCell id="H5gtIbrwGkIfasZEDUU--7" value="" style="ellipse;whiteSpace=wrap;html=1;aspect=fixed;" parent="mUWgfkTVN4Pzx1sX07Q9-1" vertex="1">
          <mxGeometry x="282.5" y="208" width="7" height="7" as="geometry" />
        </mxCell>
        <mxCell id="H5gtIbrwGkIfasZEDUU--8" value="" style="ellipse;whiteSpace=wrap;html=1;aspect=fixed;" parent="mUWgfkTVN4Pzx1sX07Q9-1" vertex="1">
          <mxGeometry x="311.5" y="208" width="7" height="7" as="geometry" />
        </mxCell>
        <mxCell id="H5gtIbrwGkIfasZEDUU--9" value="" style="ellipse;whiteSpace=wrap;html=1;aspect=fixed;" parent="mUWgfkTVN4Pzx1sX07Q9-1" vertex="1">
          <mxGeometry x="323" y="110.04" width="7" height="7" as="geometry" />
        </mxCell>
        <mxCell id="H5gtIbrwGkIfasZEDUU--10" value="" style="ellipse;whiteSpace=wrap;html=1;aspect=fixed;" parent="mUWgfkTVN4Pzx1sX07Q9-1" vertex="1">
          <mxGeometry x="300" y="80.04" width="7" height="7" as="geometry" />
        </mxCell>
        <mxCell id="H5gtIbrwGkIfasZEDUU--11" value="" style="ellipse;whiteSpace=wrap;html=1;aspect=fixed;" parent="mUWgfkTVN4Pzx1sX07Q9-1" vertex="1">
          <mxGeometry x="700" y="421.5" width="7" height="7" as="geometry" />
        </mxCell>
        <mxCell id="H5gtIbrwGkIfasZEDUU--14" value="" style="endArrow=none;html=1;rounded=0;" parent="mUWgfkTVN4Pzx1sX07Q9-1" target="H5gtIbrwGkIfasZEDUU--13" edge="1">
          <mxGeometry width="50" height="50" relative="1" as="geometry">
            <mxPoint x="714.5" y="445" as="sourcePoint" />
            <mxPoint x="744.5" y="444.7" as="targetPoint" />
            <Array as="points" />
          </mxGeometry>
        </mxCell>
        <mxCell id="H5gtIbrwGkIfasZEDUU--13" value="" style="ellipse;whiteSpace=wrap;html=1;aspect=fixed;" parent="mUWgfkTVN4Pzx1sX07Q9-1" vertex="1">
          <mxGeometry x="709.5" y="442" width="7" height="7" as="geometry" />
        </mxCell>
        <mxCell id="H5gtIbrwGkIfasZEDUU--15" value="" style="ellipse;whiteSpace=wrap;html=1;aspect=fixed;" parent="mUWgfkTVN4Pzx1sX07Q9-1" vertex="1">
          <mxGeometry x="688" y="520" width="7" height="7" as="geometry" />
        </mxCell>
        <mxCell id="H5gtIbrwGkIfasZEDUU--16" value="" style="ellipse;whiteSpace=wrap;html=1;aspect=fixed;" parent="mUWgfkTVN4Pzx1sX07Q9-1" vertex="1">
          <mxGeometry x="696.5" y="585.5" width="7" height="7" as="geometry" />
        </mxCell>
        <mxCell id="H5gtIbrwGkIfasZEDUU--17" value="" style="ellipse;whiteSpace=wrap;html=1;aspect=fixed;" parent="mUWgfkTVN4Pzx1sX07Q9-1" vertex="1">
          <mxGeometry x="741.5" y="586.5" width="7" height="7" as="geometry" />
        </mxCell>
        <mxCell id="H5gtIbrwGkIfasZEDUU--19" value="" style="edgeStyle=orthogonalEdgeStyle;rounded=0;orthogonalLoop=1;jettySize=auto;html=1;entryX=0;entryY=1;entryDx=0;entryDy=0;endArrow=none;endFill=0;" parent="mUWgfkTVN4Pzx1sX07Q9-1" target="H5gtIbrwGkIfasZEDUU--18" edge="1">
          <mxGeometry relative="1" as="geometry">
            <mxPoint x="530" y="592" as="targetPoint" />
            <mxPoint x="515" y="602" as="sourcePoint" />
          </mxGeometry>
        </mxCell>
        <mxCell id="H5gtIbrwGkIfasZEDUU--18" value="" style="ellipse;whiteSpace=wrap;html=1;aspect=fixed;" parent="mUWgfkTVN4Pzx1sX07Q9-1" vertex="1">
          <mxGeometry x="511.5" y="599" width="7" height="7" as="geometry" />
        </mxCell>
        <mxCell id="H5gtIbrwGkIfasZEDUU--21" value="" style="endArrow=none;html=1;rounded=0;" parent="mUWgfkTVN4Pzx1sX07Q9-1" target="H5gtIbrwGkIfasZEDUU--20" edge="1">
          <mxGeometry width="50" height="50" relative="1" as="geometry">
            <mxPoint x="350" y="551" as="sourcePoint" />
            <mxPoint x="380" y="551" as="targetPoint" />
          </mxGeometry>
        </mxCell>
        <mxCell id="H5gtIbrwGkIfasZEDUU--20" value="" style="ellipse;whiteSpace=wrap;html=1;aspect=fixed;" parent="mUWgfkTVN4Pzx1sX07Q9-1" vertex="1">
          <mxGeometry x="347.5" y="552" width="7" height="7" as="geometry" />
        </mxCell>
        <mxCell id="H5gtIbrwGkIfasZEDUU--22" value="" style="ellipse;whiteSpace=wrap;html=1;aspect=fixed;" parent="mUWgfkTVN4Pzx1sX07Q9-1" vertex="1">
          <mxGeometry x="347.5" y="572.5" width="7" height="7" as="geometry" />
        </mxCell>
        <mxCell id="H5gtIbrwGkIfasZEDUU--24" value="" style="ellipse;whiteSpace=wrap;html=1;aspect=fixed;" parent="mUWgfkTVN4Pzx1sX07Q9-1" vertex="1">
          <mxGeometry x="350" y="593.5" width="7" height="7" as="geometry" />
        </mxCell>
        <mxCell id="H5gtIbrwGkIfasZEDUU--26" value="" style="endArrow=none;html=1;rounded=0;exitX=0;exitY=1;exitDx=0;exitDy=0;" parent="mUWgfkTVN4Pzx1sX07Q9-1" source="mUWgfkTVN4Pzx1sX07Q9-2" target="H5gtIbrwGkIfasZEDUU--25" edge="1">
          <mxGeometry width="50" height="50" relative="1" as="geometry">
            <mxPoint x="380" y="582" as="sourcePoint" />
            <mxPoint x="339.9999999999998" y="607" as="targetPoint" />
          </mxGeometry>
        </mxCell>
        <mxCell id="H5gtIbrwGkIfasZEDUU--25" value="" style="ellipse;whiteSpace=wrap;html=1;aspect=fixed;" parent="mUWgfkTVN4Pzx1sX07Q9-1" vertex="1">
          <mxGeometry x="361.75" y="612" width="7" height="7" as="geometry" />
        </mxCell>
        <mxCell id="H5gtIbrwGkIfasZEDUU--28" value="" style="ellipse;whiteSpace=wrap;html=1;aspect=fixed;" parent="mUWgfkTVN4Pzx1sX07Q9-1" vertex="1">
          <mxGeometry x="565" y="679.5" width="7" height="7" as="geometry" />
        </mxCell>
        <mxCell id="H5gtIbrwGkIfasZEDUU--31" style="edgeStyle=orthogonalEdgeStyle;rounded=0;orthogonalLoop=1;jettySize=auto;html=1;endArrow=none;endFill=0;" parent="mUWgfkTVN4Pzx1sX07Q9-1" source="H5gtIbrwGkIfasZEDUU--29" edge="1">
          <mxGeometry relative="1" as="geometry">
            <mxPoint x="957.5" y="570" as="targetPoint" />
          </mxGeometry>
        </mxCell>
        <mxCell id="H5gtIbrwGkIfasZEDUU--29" value="" style="ellipse;whiteSpace=wrap;html=1;aspect=fixed;" parent="mUWgfkTVN4Pzx1sX07Q9-1" vertex="1">
          <mxGeometry x="954" y="586.5" width="7" height="7" as="geometry" />
        </mxCell>
        <mxCell id="H5gtIbrwGkIfasZEDUU--48" value="" style="edgeStyle=orthogonalEdgeStyle;rounded=0;orthogonalLoop=1;jettySize=auto;html=1;entryX=0.25;entryY=1;entryDx=0;entryDy=0;endArrow=none;endFill=0;" parent="mUWgfkTVN4Pzx1sX07Q9-1" target="H5gtIbrwGkIfasZEDUU--47" edge="1">
          <mxGeometry relative="1" as="geometry">
            <mxPoint x="337.5000000000002" y="1015" as="sourcePoint" />
            <mxPoint x="338" y="989" as="targetPoint" />
          </mxGeometry>
        </mxCell>
        <mxCell id="H5gtIbrwGkIfasZEDUU--52" style="edgeStyle=orthogonalEdgeStyle;rounded=0;orthogonalLoop=1;jettySize=auto;html=1;entryX=0.25;entryY=1;entryDx=0;entryDy=0;endArrow=none;endFill=0;" parent="mUWgfkTVN4Pzx1sX07Q9-1" source="H5gtIbrwGkIfasZEDUU--47" target="mUWgfkTVN4Pzx1sX07Q9-61" edge="1">
          <mxGeometry relative="1" as="geometry">
            <Array as="points">
              <mxPoint x="339" y="989" />
            </Array>
          </mxGeometry>
        </mxCell>
        <mxCell id="H5gtIbrwGkIfasZEDUU--47" value="" style="ellipse;whiteSpace=wrap;html=1;aspect=fixed;" parent="mUWgfkTVN4Pzx1sX07Q9-1" vertex="1">
          <mxGeometry x="335.5" y="1011.5" width="7" height="7" as="geometry" />
        </mxCell>
        <mxCell id="H5gtIbrwGkIfasZEDUU--51" style="edgeStyle=orthogonalEdgeStyle;rounded=0;orthogonalLoop=1;jettySize=auto;html=1;endArrow=none;endFill=0;entryX=0.623;entryY=0.989;entryDx=0;entryDy=0;entryPerimeter=0;" parent="mUWgfkTVN4Pzx1sX07Q9-1" source="H5gtIbrwGkIfasZEDUU--49" target="mUWgfkTVN4Pzx1sX07Q9-61" edge="1">
          <mxGeometry relative="1" as="geometry">
            <mxPoint x="375" y="990" as="targetPoint" />
            <Array as="points">
              <mxPoint x="375" y="992" />
              <mxPoint x="375" y="992" />
            </Array>
          </mxGeometry>
        </mxCell>
        <mxCell id="H5gtIbrwGkIfasZEDUU--49" value="" style="ellipse;whiteSpace=wrap;html=1;aspect=fixed;" parent="mUWgfkTVN4Pzx1sX07Q9-1" vertex="1">
          <mxGeometry x="371.5" y="1011.5" width="7" height="7" as="geometry" />
        </mxCell>
        <mxCell id="H5gtIbrwGkIfasZEDUU--54" value="" style="edgeStyle=orthogonalEdgeStyle;rounded=0;orthogonalLoop=1;jettySize=auto;html=1;endArrow=none;endFill=0;entryX=1;entryY=0.25;entryDx=0;entryDy=0;" parent="mUWgfkTVN4Pzx1sX07Q9-1" target="H5gtIbrwGkIfasZEDUU--53" edge="1">
          <mxGeometry relative="1" as="geometry">
            <mxPoint x="860" y="795" as="targetPoint" />
            <mxPoint x="885" y="795" as="sourcePoint" />
          </mxGeometry>
        </mxCell>
        <mxCell id="H5gtIbrwGkIfasZEDUU--53" value="" style="ellipse;whiteSpace=wrap;html=1;aspect=fixed;" parent="mUWgfkTVN4Pzx1sX07Q9-1" vertex="1">
          <mxGeometry x="885" y="791.5" width="7" height="7" as="geometry" />
        </mxCell>
        <mxCell id="H5gtIbrwGkIfasZEDUU--55" value="" style="ellipse;whiteSpace=wrap;html=1;aspect=fixed;" parent="mUWgfkTVN4Pzx1sX07Q9-1" vertex="1">
          <mxGeometry x="885" y="809.5" width="7" height="7" as="geometry" />
        </mxCell>
        <mxCell id="4525tu26XIZAqzGYi_B5-0" value="" style="shape=waypoint;sketch=0;size=6;pointerEvents=1;points=[];fillColor=none;resizable=0;rotatable=0;perimeter=centerPerimeter;snapToPoint=1;" parent="mUWgfkTVN4Pzx1sX07Q9-1" vertex="1">
          <mxGeometry x="454.5" y="942" width="20" height="20" as="geometry" />
        </mxCell>
        <mxCell id="4525tu26XIZAqzGYi_B5-1" value="" style="endArrow=none;html=1;rounded=0;" parent="mUWgfkTVN4Pzx1sX07Q9-1" edge="1">
          <mxGeometry width="50" height="50" relative="1" as="geometry">
            <mxPoint x="464" y="1035" as="sourcePoint" />
            <mxPoint x="463.91" y="953" as="targetPoint" />
          </mxGeometry>
        </mxCell>
        <mxCell id="4525tu26XIZAqzGYi_B5-2" value="" style="shape=waypoint;sketch=0;fillStyle=solid;size=6;pointerEvents=1;points=[];fillColor=none;resizable=0;rotatable=0;perimeter=centerPerimeter;snapToPoint=1;" parent="mUWgfkTVN4Pzx1sX07Q9-1" vertex="1">
          <mxGeometry x="818" y="852.5" width="20" height="20" as="geometry" />
        </mxCell>
        <mxCell id="4525tu26XIZAqzGYi_B5-3" value="" style="endArrow=none;html=1;rounded=0;" parent="mUWgfkTVN4Pzx1sX07Q9-1" target="4525tu26XIZAqzGYi_B5-2" edge="1">
          <mxGeometry width="50" height="50" relative="1" as="geometry">
            <mxPoint x="750" y="862" as="sourcePoint" />
            <mxPoint x="828" y="859" as="targetPoint" />
            <Array as="points">
              <mxPoint x="790" y="862" />
            </Array>
          </mxGeometry>
        </mxCell>
        <mxCell id="4525tu26XIZAqzGYi_B5-4" value="" style="endArrow=none;html=1;rounded=0;" parent="mUWgfkTVN4Pzx1sX07Q9-1" edge="1">
          <mxGeometry width="50" height="50" relative="1" as="geometry">
            <mxPoint x="750" y="862" as="sourcePoint" />
            <mxPoint x="750" y="762" as="targetPoint" />
          </mxGeometry>
        </mxCell>
        <mxCell id="4525tu26XIZAqzGYi_B5-5" value="" style="endArrow=none;html=1;rounded=0;" parent="mUWgfkTVN4Pzx1sX07Q9-1" edge="1">
          <mxGeometry width="50" height="50" relative="1" as="geometry">
            <mxPoint x="750" y="762" as="sourcePoint" />
            <mxPoint x="820" y="762" as="targetPoint" />
          </mxGeometry>
        </mxCell>
        <mxCell id="4525tu26XIZAqzGYi_B5-9" value="" style="endArrow=none;html=1;rounded=0;exitX=0.577;exitY=0.686;exitDx=0;exitDy=0;exitPerimeter=0;" parent="mUWgfkTVN4Pzx1sX07Q9-1" source="mUWgfkTVN4Pzx1sX07Q9-87" edge="1">
          <mxGeometry width="50" height="50" relative="1" as="geometry">
            <mxPoint x="640" y="610" as="sourcePoint" />
            <mxPoint x="810" y="610" as="targetPoint" />
            <Array as="points">
              <mxPoint x="810" y="570" />
            </Array>
          </mxGeometry>
        </mxCell>
        <mxCell id="4525tu26XIZAqzGYi_B5-10" value="" style="endArrow=none;html=1;rounded=0;" parent="mUWgfkTVN4Pzx1sX07Q9-1" edge="1">
          <mxGeometry width="50" height="50" relative="1" as="geometry">
            <mxPoint x="640" y="610" as="sourcePoint" />
            <mxPoint x="810" y="610" as="targetPoint" />
          </mxGeometry>
        </mxCell>
        <mxCell id="4525tu26XIZAqzGYi_B5-11" value="" style="endArrow=none;html=1;rounded=0;" parent="mUWgfkTVN4Pzx1sX07Q9-1" edge="1">
          <mxGeometry width="50" height="50" relative="1" as="geometry">
            <mxPoint x="640" y="610" as="sourcePoint" />
            <mxPoint x="640" y="540" as="targetPoint" />
          </mxGeometry>
        </mxCell>
        <mxCell id="4525tu26XIZAqzGYi_B5-12" value="" style="shape=waypoint;sketch=0;fillStyle=solid;size=6;pointerEvents=1;points=[];fillColor=none;resizable=0;rotatable=0;perimeter=centerPerimeter;snapToPoint=1;" parent="mUWgfkTVN4Pzx1sX07Q9-1" vertex="1">
          <mxGeometry x="570" y="178" width="20" height="20" as="geometry" />
        </mxCell>
        <mxCell id="4525tu26XIZAqzGYi_B5-13" value="" style="endArrow=none;html=1;rounded=0;" parent="mUWgfkTVN4Pzx1sX07Q9-1" source="4525tu26XIZAqzGYi_B5-12" edge="1">
          <mxGeometry width="50" height="50" relative="1" as="geometry">
            <mxPoint x="550" y="240" as="sourcePoint" />
            <mxPoint x="580" y="100" as="targetPoint" />
          </mxGeometry>
        </mxCell>
        <mxCell id="4525tu26XIZAqzGYi_B5-14" value="" style="endArrow=none;html=1;rounded=0;" parent="mUWgfkTVN4Pzx1sX07Q9-1" edge="1">
          <mxGeometry width="50" height="50" relative="1" as="geometry">
            <mxPoint x="420" y="100" as="sourcePoint" />
            <mxPoint x="580" y="100" as="targetPoint" />
          </mxGeometry>
        </mxCell>
        <mxCell id="4525tu26XIZAqzGYi_B5-15" value="" style="endArrow=none;html=1;rounded=0;" parent="mUWgfkTVN4Pzx1sX07Q9-1" edge="1">
          <mxGeometry width="50" height="50" relative="1" as="geometry">
            <mxPoint x="420" y="190" as="sourcePoint" />
            <mxPoint x="420" y="100" as="targetPoint" />
          </mxGeometry>
        </mxCell>
        <mxCell id="4525tu26XIZAqzGYi_B5-16" value="" style="shape=waypoint;sketch=0;fillStyle=solid;size=6;pointerEvents=1;points=[];fillColor=none;resizable=0;rotatable=0;perimeter=centerPerimeter;snapToPoint=1;" parent="mUWgfkTVN4Pzx1sX07Q9-1" vertex="1">
          <mxGeometry x="909" y="190" width="20" height="20" as="geometry" />
        </mxCell>
        <mxCell id="4525tu26XIZAqzGYi_B5-17" value="" style="endArrow=none;html=1;rounded=0;entryX=0.43;entryY=0.68;entryDx=0;entryDy=0;entryPerimeter=0;" parent="mUWgfkTVN4Pzx1sX07Q9-1" target="4525tu26XIZAqzGYi_B5-16" edge="1">
          <mxGeometry width="50" height="50" relative="1" as="geometry">
            <mxPoint x="800" y="200" as="sourcePoint" />
            <mxPoint x="900" y="190" as="targetPoint" />
          </mxGeometry>
        </mxCell>
        <mxCell id="4525tu26XIZAqzGYi_B5-18" value="" style="endArrow=none;html=1;rounded=0;" parent="mUWgfkTVN4Pzx1sX07Q9-1" edge="1">
          <mxGeometry width="50" height="50" relative="1" as="geometry">
            <mxPoint x="800" y="280" as="sourcePoint" />
            <mxPoint x="800" y="200" as="targetPoint" />
          </mxGeometry>
        </mxCell>
        <mxCell id="4525tu26XIZAqzGYi_B5-19" value="" style="endArrow=none;html=1;rounded=0;" parent="mUWgfkTVN4Pzx1sX07Q9-1" edge="1">
          <mxGeometry width="50" height="50" relative="1" as="geometry">
            <mxPoint x="800" y="280" as="sourcePoint" />
            <mxPoint x="910" y="280" as="targetPoint" />
            <Array as="points">
              <mxPoint x="850" y="280" />
            </Array>
          </mxGeometry>
        </mxCell>
        <mxCell id="C88gl-0FWC1FEYMm_GNZ-0" value="" style="ellipse;whiteSpace=wrap;html=1;aspect=fixed;" parent="mUWgfkTVN4Pzx1sX07Q9-1" vertex="1">
          <mxGeometry x="894.5" y="936" width="7" height="7" as="geometry" />
        </mxCell>
        <mxCell id="bzPzTDWKXwqEKtvVzduk-5" value="cellulare" style="text;html=1;align=center;verticalAlign=middle;resizable=0;points=[];autosize=1;strokeColor=none;fillColor=none;" parent="mUWgfkTVN4Pzx1sX07Q9-1" vertex="1">
          <mxGeometry x="287" y="522" width="70" height="30" as="geometry" />
        </mxCell>
        <mxCell id="bzPzTDWKXwqEKtvVzduk-7" style="edgeStyle=orthogonalEdgeStyle;rounded=0;orthogonalLoop=1;jettySize=auto;html=1;entryX=0.017;entryY=0.01;entryDx=0;entryDy=0;entryPerimeter=0;endArrow=none;endFill=0;" parent="mUWgfkTVN4Pzx1sX07Q9-1" source="bzPzTDWKXwqEKtvVzduk-6" target="mUWgfkTVN4Pzx1sX07Q9-2" edge="1">
          <mxGeometry relative="1" as="geometry">
            <Array as="points">
              <mxPoint x="382" y="540" />
            </Array>
          </mxGeometry>
        </mxCell>
        <mxCell id="bzPzTDWKXwqEKtvVzduk-6" value="" style="ellipse;whiteSpace=wrap;html=1;aspect=fixed;" parent="mUWgfkTVN4Pzx1sX07Q9-1" vertex="1">
          <mxGeometry x="350" y="535" width="7" height="7" as="geometry" />
        </mxCell>
        <mxCell id="yopVRtso9-e5YJDOk1Pv-0" value="voto" style="text;html=1;align=center;verticalAlign=middle;resizable=0;points=[];autosize=1;strokeColor=none;fillColor=none;" parent="mUWgfkTVN4Pzx1sX07Q9-1" vertex="1">
          <mxGeometry x="885" y="779.5" width="50" height="30" as="geometry" />
        </mxCell>
        <mxCell id="RyaI2ZSmjA2Y-SDxpkCA-1" value="incrementoVoto" style="text;html=1;align=center;verticalAlign=middle;resizable=0;points=[];autosize=1;strokeColor=none;fillColor=none;" parent="mUWgfkTVN4Pzx1sX07Q9-1" vertex="1">
          <mxGeometry x="895" y="924.5" width="110" height="30" as="geometry" />
        </mxCell>
        <mxCell id="DcgpVVWevMsc-Y-6s1io-0" value="orario" style="text;html=1;align=center;verticalAlign=middle;resizable=0;points=[];autosize=1;strokeColor=none;fillColor=none;" vertex="1" parent="mUWgfkTVN4Pzx1sX07Q9-1">
          <mxGeometry x="862.5" y="577" width="50" height="30" as="geometry" />
        </mxCell>
        <mxCell id="DcgpVVWevMsc-Y-6s1io-1" style="edgeStyle=orthogonalEdgeStyle;rounded=0;orthogonalLoop=1;jettySize=auto;html=1;endArrow=none;endFill=0;" edge="1" parent="mUWgfkTVN4Pzx1sX07Q9-1" source="DcgpVVWevMsc-Y-6s1io-2">
          <mxGeometry relative="1" as="geometry">
            <mxPoint x="911" y="572" as="targetPoint" />
          </mxGeometry>
        </mxCell>
        <mxCell id="DcgpVVWevMsc-Y-6s1io-2" value="" style="ellipse;whiteSpace=wrap;html=1;aspect=fixed;" vertex="1" parent="mUWgfkTVN4Pzx1sX07Q9-1">
          <mxGeometry x="907.5" y="588.5" width="7" height="7" as="geometry" />
        </mxCell>
        <mxCell id="98Haa0h6ErJEClWnrYOf-1" value="" style="edgeStyle=none;orthogonalLoop=1;jettySize=auto;html=1;rounded=0;endArrow=none;endFill=0;" edge="1" parent="mUWgfkTVN4Pzx1sX07Q9-1">
          <mxGeometry width="100" relative="1" as="geometry">
            <mxPoint x="465" y="1035.5" as="sourcePoint" />
            <mxPoint x="269" y="1036" as="targetPoint" />
            <Array as="points" />
          </mxGeometry>
        </mxCell>
        <mxCell id="98Haa0h6ErJEClWnrYOf-2" value="" style="endArrow=none;html=1;rounded=0;entryX=0.011;entryY=0.53;entryDx=0;entryDy=0;entryPerimeter=0;" edge="1" parent="mUWgfkTVN4Pzx1sX07Q9-1" target="mUWgfkTVN4Pzx1sX07Q9-231">
          <mxGeometry width="50" height="50" relative="1" as="geometry">
            <mxPoint x="268.68" y="1035.5" as="sourcePoint" />
            <mxPoint x="267.49999999999994" y="980" as="targetPoint" />
          </mxGeometry>
        </mxCell>
        <mxCell id="OoV-azehm0Wbuc-jNJ-L-0" value="IDStorico" style="text;html=1;align=center;verticalAlign=middle;resizable=0;points=[];autosize=1;strokeColor=none;fillColor=none;fontStyle=4" vertex="1" parent="mUWgfkTVN4Pzx1sX07Q9-1">
          <mxGeometry x="446.5" y="789" width="70" height="30" as="geometry" />
        </mxCell>
        <mxCell id="OoV-azehm0Wbuc-jNJ-L-1" value="" style="shape=waypoint;sketch=0;size=6;pointerEvents=1;points=[];fillColor=none;resizable=0;rotatable=0;perimeter=centerPerimeter;snapToPoint=1;" vertex="1" parent="mUWgfkTVN4Pzx1sX07Q9-1">
          <mxGeometry x="439" y="794" width="20" height="20" as="geometry" />
        </mxCell>
        <mxCell id="OoV-azehm0Wbuc-jNJ-L-2" value="voto" style="text;html=1;align=center;verticalAlign=middle;resizable=0;points=[];autosize=1;strokeColor=none;fillColor=none;" vertex="1" parent="mUWgfkTVN4Pzx1sX07Q9-1">
          <mxGeometry x="244" y="817.24" width="50" height="30" as="geometry" />
        </mxCell>
        <mxCell id="OoV-azehm0Wbuc-jNJ-L-3" value="lode" style="text;html=1;align=center;verticalAlign=middle;resizable=0;points=[];autosize=1;strokeColor=none;fillColor=none;" vertex="1" parent="mUWgfkTVN4Pzx1sX07Q9-1">
          <mxGeometry x="243" y="789" width="50" height="30" as="geometry" />
        </mxCell>
        <mxCell id="OoV-azehm0Wbuc-jNJ-L-4" value="stato" style="text;html=1;align=center;verticalAlign=middle;resizable=0;points=[];autosize=1;strokeColor=none;fillColor=none;" vertex="1" parent="mUWgfkTVN4Pzx1sX07Q9-1">
          <mxGeometry x="244" y="804.24" width="50" height="30" as="geometry" />
        </mxCell>
        <mxCell id="OoV-azehm0Wbuc-jNJ-L-5" value="data" style="text;html=1;align=center;verticalAlign=middle;resizable=0;points=[];autosize=1;strokeColor=none;fillColor=none;" vertex="1" parent="mUWgfkTVN4Pzx1sX07Q9-1">
          <mxGeometry x="442.5" y="801.5" width="50" height="30" as="geometry" />
        </mxCell>
        <mxCell id="OoV-azehm0Wbuc-jNJ-L-6" value="" style="edgeStyle=orthogonalEdgeStyle;rounded=0;orthogonalLoop=1;jettySize=auto;html=1;entryX=0.117;entryY=0.371;entryDx=0;entryDy=0;entryPerimeter=0;endArrow=none;endFill=0;" edge="1" parent="mUWgfkTVN4Pzx1sX07Q9-1" target="OoV-azehm0Wbuc-jNJ-L-8">
          <mxGeometry relative="1" as="geometry">
            <mxPoint x="293" y="804" as="sourcePoint" />
            <mxPoint x="344.5" y="826.5" as="targetPoint" />
          </mxGeometry>
        </mxCell>
        <mxCell id="OoV-azehm0Wbuc-jNJ-L-7" style="edgeStyle=orthogonalEdgeStyle;rounded=0;orthogonalLoop=1;jettySize=auto;html=1;" edge="1" parent="mUWgfkTVN4Pzx1sX07Q9-1" source="OoV-azehm0Wbuc-jNJ-L-8">
          <mxGeometry relative="1" as="geometry">
            <mxPoint x="306.18181355794263" y="804" as="targetPoint" />
          </mxGeometry>
        </mxCell>
        <mxCell id="OoV-azehm0Wbuc-jNJ-L-8" value="" style="ellipse;whiteSpace=wrap;html=1;aspect=fixed;" vertex="1" parent="mUWgfkTVN4Pzx1sX07Q9-1">
          <mxGeometry x="290.5" y="800.5" width="7" height="7" as="geometry" />
        </mxCell>
        <mxCell id="OoV-azehm0Wbuc-jNJ-L-9" style="edgeStyle=orthogonalEdgeStyle;rounded=0;orthogonalLoop=1;jettySize=auto;html=1;entryX=0;entryY=0.5;entryDx=0;entryDy=0;" edge="1" parent="mUWgfkTVN4Pzx1sX07Q9-1" source="OoV-azehm0Wbuc-jNJ-L-10" target="OoV-azehm0Wbuc-jNJ-L-37">
          <mxGeometry relative="1" as="geometry" />
        </mxCell>
        <mxCell id="OoV-azehm0Wbuc-jNJ-L-10" value="" style="ellipse;whiteSpace=wrap;html=1;aspect=fixed;" vertex="1" parent="mUWgfkTVN4Pzx1sX07Q9-1">
          <mxGeometry x="290.5" y="815.74" width="7" height="7" as="geometry" />
        </mxCell>
        <mxCell id="OoV-azehm0Wbuc-jNJ-L-11" style="edgeStyle=orthogonalEdgeStyle;rounded=0;orthogonalLoop=1;jettySize=auto;html=1;entryX=0.002;entryY=0.804;entryDx=0;entryDy=0;entryPerimeter=0;" edge="1" parent="mUWgfkTVN4Pzx1sX07Q9-1" source="OoV-azehm0Wbuc-jNJ-L-12" target="OoV-azehm0Wbuc-jNJ-L-37">
          <mxGeometry relative="1" as="geometry" />
        </mxCell>
        <mxCell id="OoV-azehm0Wbuc-jNJ-L-12" value="" style="ellipse;whiteSpace=wrap;html=1;aspect=fixed;" vertex="1" parent="mUWgfkTVN4Pzx1sX07Q9-1">
          <mxGeometry x="290.5" y="828.74" width="7" height="7" as="geometry" />
        </mxCell>
        <mxCell id="OoV-azehm0Wbuc-jNJ-L-13" style="edgeStyle=orthogonalEdgeStyle;rounded=0;orthogonalLoop=1;jettySize=auto;html=1;entryX=1.003;entryY=0.641;entryDx=0;entryDy=0;entryPerimeter=0;endArrow=none;endFill=0;" edge="1" parent="mUWgfkTVN4Pzx1sX07Q9-1" source="OoV-azehm0Wbuc-jNJ-L-14">
          <mxGeometry relative="1" as="geometry">
            <mxPoint x="416.3209999999999" y="818.03734" as="targetPoint" />
            <Array as="points">
              <mxPoint x="427" y="817" />
              <mxPoint x="416" y="817" />
            </Array>
          </mxGeometry>
        </mxCell>
        <mxCell id="OoV-azehm0Wbuc-jNJ-L-14" value="" style="ellipse;whiteSpace=wrap;html=1;aspect=fixed;" vertex="1" parent="mUWgfkTVN4Pzx1sX07Q9-1">
          <mxGeometry x="447" y="813.76" width="7" height="7" as="geometry" />
        </mxCell>
        <mxCell id="OoV-azehm0Wbuc-jNJ-L-15" style="edgeStyle=orthogonalEdgeStyle;rounded=0;orthogonalLoop=1;jettySize=auto;html=1;entryX=0.438;entryY=0.421;entryDx=0;entryDy=0;entryPerimeter=0;endArrow=none;endFill=0;" edge="1" parent="mUWgfkTVN4Pzx1sX07Q9-1" source="OoV-azehm0Wbuc-jNJ-L-16" target="OoV-azehm0Wbuc-jNJ-L-21">
          <mxGeometry relative="1" as="geometry">
            <Array as="points">
              <mxPoint x="268" y="747" />
              <mxPoint x="268" y="770" />
            </Array>
          </mxGeometry>
        </mxCell>
        <mxCell id="OoV-azehm0Wbuc-jNJ-L-47" style="edgeStyle=orthogonalEdgeStyle;rounded=0;orthogonalLoop=1;jettySize=auto;html=1;endArrow=none;endFill=0;" edge="1" parent="mUWgfkTVN4Pzx1sX07Q9-1" source="OoV-azehm0Wbuc-jNJ-L-16" target="mUWgfkTVN4Pzx1sX07Q9-68">
          <mxGeometry relative="1" as="geometry">
            <Array as="points">
              <mxPoint x="1090" y="753" />
            </Array>
          </mxGeometry>
        </mxCell>
        <mxCell id="OoV-azehm0Wbuc-jNJ-L-16" value="storico_insegnamento" style="whiteSpace=wrap;html=1;align=center;" vertex="1" parent="mUWgfkTVN4Pzx1sX07Q9-1">
          <mxGeometry x="100.5" y="738.74" width="140" height="40" as="geometry" />
        </mxCell>
        <mxCell id="OoV-azehm0Wbuc-jNJ-L-17" value="annoInizio" style="text;html=1;align=center;verticalAlign=middle;resizable=0;points=[];autosize=1;strokeColor=none;fillColor=none;" vertex="1" parent="mUWgfkTVN4Pzx1sX07Q9-1">
          <mxGeometry x="143" y="798" width="80" height="30" as="geometry" />
        </mxCell>
        <mxCell id="OoV-azehm0Wbuc-jNJ-L-18" value="annoFine" style="text;html=1;align=center;verticalAlign=middle;resizable=0;points=[];autosize=1;strokeColor=none;fillColor=none;" vertex="1" parent="mUWgfkTVN4Pzx1sX07Q9-1">
          <mxGeometry x="125.5" y="825.5" width="70" height="30" as="geometry" />
        </mxCell>
        <mxCell id="OoV-azehm0Wbuc-jNJ-L-19" value="(1, 1)" style="text;html=1;align=center;verticalAlign=middle;resizable=0;points=[];autosize=1;strokeColor=none;fillColor=none;" vertex="1" parent="mUWgfkTVN4Pzx1sX07Q9-1">
          <mxGeometry x="267.5" y="755" width="50" height="30" as="geometry" />
        </mxCell>
        <mxCell id="OoV-azehm0Wbuc-jNJ-L-20" value="IDInsegnamento" style="text;html=1;align=center;verticalAlign=middle;resizable=0;points=[];autosize=1;strokeColor=none;fillColor=none;fontStyle=4" vertex="1" parent="mUWgfkTVN4Pzx1sX07Q9-1">
          <mxGeometry x="234" y="717" width="110" height="30" as="geometry" />
        </mxCell>
        <mxCell id="OoV-azehm0Wbuc-jNJ-L-21" value="" style="shape=waypoint;sketch=0;size=6;pointerEvents=1;points=[];fillColor=none;resizable=0;rotatable=0;perimeter=centerPerimeter;snapToPoint=1;" vertex="1" parent="mUWgfkTVN4Pzx1sX07Q9-1">
          <mxGeometry x="257.5" y="759.5" width="20" height="20" as="geometry" />
        </mxCell>
        <mxCell id="OoV-azehm0Wbuc-jNJ-L-22" value="nome" style="text;html=1;align=center;verticalAlign=middle;resizable=0;points=[];autosize=1;strokeColor=none;fillColor=none;" vertex="1" parent="mUWgfkTVN4Pzx1sX07Q9-1">
          <mxGeometry x="78" y="821.76" width="50" height="30" as="geometry" />
        </mxCell>
        <mxCell id="OoV-azehm0Wbuc-jNJ-L-23" value="crediti" style="text;html=1;align=center;verticalAlign=middle;resizable=0;points=[];autosize=1;strokeColor=none;fillColor=none;" vertex="1" parent="mUWgfkTVN4Pzx1sX07Q9-1">
          <mxGeometry x="68" y="675.74" width="60" height="30" as="geometry" />
        </mxCell>
        <mxCell id="OoV-azehm0Wbuc-jNJ-L-24" style="edgeStyle=orthogonalEdgeStyle;rounded=0;orthogonalLoop=1;jettySize=auto;html=1;entryX=1;entryY=1;entryDx=0;entryDy=0;endArrow=none;endFill=0;" edge="1" parent="mUWgfkTVN4Pzx1sX07Q9-1" source="OoV-azehm0Wbuc-jNJ-L-28">
          <mxGeometry relative="1" as="geometry">
            <mxPoint x="159.00000000000023" y="803.5" as="sourcePoint" />
            <Array as="points">
              <mxPoint x="159" y="790.5" />
              <mxPoint x="159" y="790.5" />
            </Array>
            <mxPoint x="159" y="778.5" as="targetPoint" />
          </mxGeometry>
        </mxCell>
        <mxCell id="OoV-azehm0Wbuc-jNJ-L-25" style="edgeStyle=orthogonalEdgeStyle;rounded=0;orthogonalLoop=1;jettySize=auto;html=1;entryX=0.871;entryY=0.981;entryDx=0;entryDy=0;entryPerimeter=0;endArrow=none;endFill=0;" edge="1" parent="mUWgfkTVN4Pzx1sX07Q9-1" source="OoV-azehm0Wbuc-jNJ-L-30">
          <mxGeometry relative="1" as="geometry">
            <mxPoint x="141.50000000000023" y="828.5" as="sourcePoint" />
            <mxPoint x="140.94000000000005" y="777.74" as="targetPoint" />
          </mxGeometry>
        </mxCell>
        <mxCell id="OoV-azehm0Wbuc-jNJ-L-26" style="edgeStyle=orthogonalEdgeStyle;rounded=0;orthogonalLoop=1;jettySize=auto;html=1;entryX=0.097;entryY=-0.023;entryDx=0;entryDy=0;entryPerimeter=0;endArrow=none;endFill=0;exitX=1;exitY=1;exitDx=0;exitDy=0;" edge="1" parent="mUWgfkTVN4Pzx1sX07Q9-1" source="OoV-azehm0Wbuc-jNJ-L-33" target="OoV-azehm0Wbuc-jNJ-L-16">
          <mxGeometry relative="1" as="geometry">
            <mxPoint x="115.5" y="803.74" as="sourcePoint" />
          </mxGeometry>
        </mxCell>
        <mxCell id="OoV-azehm0Wbuc-jNJ-L-27" value="" style="edgeStyle=orthogonalEdgeStyle;rounded=0;orthogonalLoop=1;jettySize=auto;html=1;entryX=1;entryY=1;entryDx=0;entryDy=0;endArrow=none;endFill=0;" edge="1" parent="mUWgfkTVN4Pzx1sX07Q9-1" target="OoV-azehm0Wbuc-jNJ-L-28">
          <mxGeometry relative="1" as="geometry">
            <mxPoint x="159.00000000000023" y="803.5" as="sourcePoint" />
            <mxPoint x="159" y="778.5" as="targetPoint" />
          </mxGeometry>
        </mxCell>
        <mxCell id="OoV-azehm0Wbuc-jNJ-L-28" value="" style="ellipse;whiteSpace=wrap;html=1;aspect=fixed;" vertex="1" parent="mUWgfkTVN4Pzx1sX07Q9-1">
          <mxGeometry x="157" y="800.5" width="7" height="7" as="geometry" />
        </mxCell>
        <mxCell id="OoV-azehm0Wbuc-jNJ-L-29" value="" style="edgeStyle=orthogonalEdgeStyle;rounded=0;orthogonalLoop=1;jettySize=auto;html=1;entryX=0.871;entryY=0.981;entryDx=0;entryDy=0;entryPerimeter=0;endArrow=none;endFill=0;" edge="1" parent="mUWgfkTVN4Pzx1sX07Q9-1" target="OoV-azehm0Wbuc-jNJ-L-30">
          <mxGeometry relative="1" as="geometry">
            <mxPoint x="141.50000000000023" y="828.5" as="sourcePoint" />
            <mxPoint x="141" y="777.5" as="targetPoint" />
          </mxGeometry>
        </mxCell>
        <mxCell id="OoV-azehm0Wbuc-jNJ-L-30" value="" style="ellipse;whiteSpace=wrap;html=1;aspect=fixed;" vertex="1" parent="mUWgfkTVN4Pzx1sX07Q9-1">
          <mxGeometry x="138" y="825.5" width="7" height="7" as="geometry" />
        </mxCell>
        <mxCell id="OoV-azehm0Wbuc-jNJ-L-31" style="edgeStyle=orthogonalEdgeStyle;rounded=0;orthogonalLoop=1;jettySize=auto;html=1;endArrow=none;endFill=0;entryX=0.265;entryY=1.012;entryDx=0;entryDy=0;entryPerimeter=0;" edge="1" parent="mUWgfkTVN4Pzx1sX07Q9-1" source="OoV-azehm0Wbuc-jNJ-L-32">
          <mxGeometry relative="1" as="geometry">
            <mxPoint x="115.09999999999991" y="778.7399999999999" as="targetPoint" />
          </mxGeometry>
        </mxCell>
        <mxCell id="OoV-azehm0Wbuc-jNJ-L-32" value="" style="ellipse;whiteSpace=wrap;html=1;aspect=fixed;" vertex="1" parent="mUWgfkTVN4Pzx1sX07Q9-1">
          <mxGeometry x="111.5" y="821.76" width="7" height="7" as="geometry" />
        </mxCell>
        <mxCell id="OoV-azehm0Wbuc-jNJ-L-33" value="" style="ellipse;whiteSpace=wrap;html=1;aspect=fixed;" vertex="1" parent="mUWgfkTVN4Pzx1sX07Q9-1">
          <mxGeometry x="107.5" y="698.74" width="7" height="7" as="geometry" />
        </mxCell>
        <mxCell id="OoV-azehm0Wbuc-jNJ-L-34" value="(0, N)" style="text;html=1;align=center;verticalAlign=middle;resizable=0;points=[];autosize=1;strokeColor=none;fillColor=none;" vertex="1" parent="mUWgfkTVN4Pzx1sX07Q9-1">
          <mxGeometry x="364.5" y="924.5" width="48" height="26" as="geometry" />
        </mxCell>
        <mxCell id="OoV-azehm0Wbuc-jNJ-L-35" style="edgeStyle=orthogonalEdgeStyle;rounded=0;orthogonalLoop=1;jettySize=auto;html=1;endArrow=none;endFill=0;" edge="1" parent="mUWgfkTVN4Pzx1sX07Q9-1" source="OoV-azehm0Wbuc-jNJ-L-37" target="OoV-azehm0Wbuc-jNJ-L-1">
          <mxGeometry relative="1" as="geometry">
            <Array as="points">
              <mxPoint x="427" y="804" />
              <mxPoint x="427" y="804" />
            </Array>
          </mxGeometry>
        </mxCell>
        <mxCell id="OoV-azehm0Wbuc-jNJ-L-36" style="edgeStyle=orthogonalEdgeStyle;rounded=0;orthogonalLoop=1;jettySize=auto;html=1;entryX=0.5;entryY=0;entryDx=0;entryDy=0;endArrow=none;endFill=0;" edge="1" parent="mUWgfkTVN4Pzx1sX07Q9-1" source="OoV-azehm0Wbuc-jNJ-L-37" target="OoV-azehm0Wbuc-jNJ-L-38">
          <mxGeometry relative="1" as="geometry" />
        </mxCell>
        <mxCell id="OoV-azehm0Wbuc-jNJ-L-37" value="storico_esame" style="whiteSpace=wrap;html=1;" vertex="1" parent="mUWgfkTVN4Pzx1sX07Q9-1">
          <mxGeometry x="309" y="798" width="107" height="43.74" as="geometry" />
        </mxCell>
        <mxCell id="OoV-azehm0Wbuc-jNJ-L-46" style="edgeStyle=orthogonalEdgeStyle;rounded=0;orthogonalLoop=1;jettySize=auto;html=1;entryX=0.5;entryY=0;entryDx=0;entryDy=0;endArrow=none;endFill=0;" edge="1" parent="mUWgfkTVN4Pzx1sX07Q9-1" source="OoV-azehm0Wbuc-jNJ-L-38" target="mUWgfkTVN4Pzx1sX07Q9-61">
          <mxGeometry relative="1" as="geometry" />
        </mxCell>
        <mxCell id="OoV-azehm0Wbuc-jNJ-L-38" value="sostenere" style="rhombus;whiteSpace=wrap;html=1;" vertex="1" parent="mUWgfkTVN4Pzx1sX07Q9-1">
          <mxGeometry x="319" y="867" width="87" height="50" as="geometry" />
        </mxCell>
        <mxCell id="OoV-azehm0Wbuc-jNJ-L-39" value="(1, 1)" style="text;html=1;align=center;verticalAlign=middle;resizable=0;points=[];autosize=1;strokeColor=none;fillColor=none;" vertex="1" parent="mUWgfkTVN4Pzx1sX07Q9-1">
          <mxGeometry x="359" y="839.5" width="46" height="26" as="geometry" />
        </mxCell>
        <mxCell id="OoV-azehm0Wbuc-jNJ-L-40" value="IDDocente" style="text;html=1;align=center;verticalAlign=middle;resizable=0;points=[];autosize=1;strokeColor=none;fillColor=none;" vertex="1" parent="mUWgfkTVN4Pzx1sX07Q9-1">
          <mxGeometry x="447.6" y="817.24" width="75" height="26" as="geometry" />
        </mxCell>
        <mxCell id="OoV-azehm0Wbuc-jNJ-L-41" style="edgeStyle=orthogonalEdgeStyle;rounded=0;orthogonalLoop=1;jettySize=auto;html=1;entryX=1.003;entryY=0.641;entryDx=0;entryDy=0;entryPerimeter=0;endArrow=none;endFill=0;" edge="1" parent="mUWgfkTVN4Pzx1sX07Q9-1" source="OoV-azehm0Wbuc-jNJ-L-42">
          <mxGeometry relative="1" as="geometry">
            <mxPoint x="416.92099999999994" y="830.29734" as="targetPoint" />
            <Array as="points">
              <mxPoint x="427.6" y="829.26" />
              <mxPoint x="416.6" y="829.26" />
            </Array>
          </mxGeometry>
        </mxCell>
        <mxCell id="OoV-azehm0Wbuc-jNJ-L-42" value="" style="ellipse;whiteSpace=wrap;html=1;aspect=fixed;" vertex="1" parent="mUWgfkTVN4Pzx1sX07Q9-1">
          <mxGeometry x="447.6" y="826.02" width="7" height="7" as="geometry" />
        </mxCell>
        <mxCell id="OoV-azehm0Wbuc-jNJ-L-43" value="IDInsegnamento" style="text;html=1;align=center;verticalAlign=middle;resizable=0;points=[];autosize=1;strokeColor=none;fillColor=none;" vertex="1" parent="mUWgfkTVN4Pzx1sX07Q9-1">
          <mxGeometry x="447.6" y="833.02" width="106" height="26" as="geometry" />
        </mxCell>
        <mxCell id="OoV-azehm0Wbuc-jNJ-L-44" style="edgeStyle=orthogonalEdgeStyle;rounded=0;orthogonalLoop=1;jettySize=auto;html=1;entryX=1.003;entryY=0.641;entryDx=0;entryDy=0;entryPerimeter=0;endArrow=none;endFill=0;" edge="1" parent="mUWgfkTVN4Pzx1sX07Q9-1" source="OoV-azehm0Wbuc-jNJ-L-45">
          <mxGeometry relative="1" as="geometry">
            <mxPoint x="416.3209999999999" y="841.53734" as="targetPoint" />
            <Array as="points">
              <mxPoint x="427" y="840.5" />
              <mxPoint x="416" y="840.5" />
            </Array>
          </mxGeometry>
        </mxCell>
        <mxCell id="OoV-azehm0Wbuc-jNJ-L-45" value="" style="ellipse;whiteSpace=wrap;html=1;aspect=fixed;" vertex="1" parent="mUWgfkTVN4Pzx1sX07Q9-1">
          <mxGeometry x="447" y="837.26" width="7" height="7" as="geometry" />
        </mxCell>
      </root>
    </mxGraphModel>
  </diagram>
  <diagram name="ER Ristrutturato" id="Z5GbzlKkcZcJBYi0-Bsg">
    <mxGraphModel dx="1522" dy="476" grid="0" gridSize="10" guides="1" tooltips="1" connect="1" arrows="1" fold="1" page="0" pageScale="1" pageWidth="1169" pageHeight="827" math="0" shadow="0">
      <root>
        <mxCell id="8BG0fOGD8Of8e3mBtdMV-0" />
        <mxCell id="8BG0fOGD8Of8e3mBtdMV-1" parent="8BG0fOGD8Of8e3mBtdMV-0" />
        <mxCell id="8BG0fOGD8Of8e3mBtdMV-2" style="edgeStyle=orthogonalEdgeStyle;rounded=0;orthogonalLoop=1;jettySize=auto;html=1;entryX=0;entryY=0.5;entryDx=0;entryDy=0;endArrow=none;endFill=0;" parent="8BG0fOGD8Of8e3mBtdMV-1" source="8BG0fOGD8Of8e3mBtdMV-3" target="8BG0fOGD8Of8e3mBtdMV-243" edge="1">
          <mxGeometry relative="1" as="geometry" />
        </mxCell>
        <mxCell id="8BG0fOGD8Of8e3mBtdMV-3" value="utente" style="whiteSpace=wrap;html=1;align=center;" parent="8BG0fOGD8Of8e3mBtdMV-1" vertex="1">
          <mxGeometry x="233" y="598" width="100" height="40" as="geometry" />
        </mxCell>
        <mxCell id="8BG0fOGD8Of8e3mBtdMV-4" style="edgeStyle=orthogonalEdgeStyle;rounded=0;orthogonalLoop=1;jettySize=auto;html=1;entryX=0;entryY=0.5;entryDx=0;entryDy=0;endArrow=none;endFill=0;" parent="8BG0fOGD8Of8e3mBtdMV-1" source="8BG0fOGD8Of8e3mBtdMV-5" target="8BG0fOGD8Of8e3mBtdMV-52" edge="1">
          <mxGeometry relative="1" as="geometry">
            <Array as="points">
              <mxPoint x="710" y="480" />
              <mxPoint x="710" y="549" />
            </Array>
          </mxGeometry>
        </mxCell>
        <mxCell id="8BG0fOGD8Of8e3mBtdMV-5" value="studente" style="whiteSpace=wrap;html=1;align=center;" parent="8BG0fOGD8Of8e3mBtdMV-1" vertex="1">
          <mxGeometry x="380" y="462" width="100" height="40" as="geometry" />
        </mxCell>
        <mxCell id="8BG0fOGD8Of8e3mBtdMV-6" style="edgeStyle=orthogonalEdgeStyle;rounded=0;orthogonalLoop=1;jettySize=auto;html=1;entryX=0.5;entryY=1;entryDx=0;entryDy=0;endArrow=none;endFill=0;" parent="8BG0fOGD8Of8e3mBtdMV-1" source="8BG0fOGD8Of8e3mBtdMV-9" target="8BG0fOGD8Of8e3mBtdMV-30" edge="1">
          <mxGeometry relative="1" as="geometry">
            <Array as="points">
              <mxPoint x="700" y="372" />
            </Array>
          </mxGeometry>
        </mxCell>
        <mxCell id="8BG0fOGD8Of8e3mBtdMV-8" style="edgeStyle=orthogonalEdgeStyle;rounded=0;orthogonalLoop=1;jettySize=auto;html=1;entryX=0.5;entryY=0;entryDx=0;entryDy=0;endArrow=none;endFill=0;" parent="8BG0fOGD8Of8e3mBtdMV-1" source="8BG0fOGD8Of8e3mBtdMV-9" target="8BG0fOGD8Of8e3mBtdMV-48" edge="1">
          <mxGeometry relative="1" as="geometry">
            <Array as="points">
              <mxPoint x="877" y="400" />
            </Array>
          </mxGeometry>
        </mxCell>
        <mxCell id="8BG0fOGD8Of8e3mBtdMV-9" value="docente" style="whiteSpace=wrap;html=1;align=center;" parent="8BG0fOGD8Of8e3mBtdMV-1" vertex="1">
          <mxGeometry x="650" y="370" width="100" height="40" as="geometry" />
        </mxCell>
        <mxCell id="8BG0fOGD8Of8e3mBtdMV-10" value="matricola" style="text;html=1;align=center;verticalAlign=middle;resizable=0;points=[];autosize=1;strokeColor=none;fillColor=none;fontStyle=4" parent="8BG0fOGD8Of8e3mBtdMV-1" vertex="1">
          <mxGeometry x="500" y="640" width="70" height="30" as="geometry" />
        </mxCell>
        <mxCell id="8BG0fOGD8Of8e3mBtdMV-11" style="edgeStyle=orthogonalEdgeStyle;rounded=0;orthogonalLoop=1;jettySize=auto;html=1;entryX=0;entryY=0.5;entryDx=0;entryDy=0;endArrow=none;endFill=0;" parent="8BG0fOGD8Of8e3mBtdMV-1" source="8BG0fOGD8Of8e3mBtdMV-13" target="8BG0fOGD8Of8e3mBtdMV-33" edge="1">
          <mxGeometry relative="1" as="geometry" />
        </mxCell>
        <mxCell id="8BG0fOGD8Of8e3mBtdMV-13" value="Corso_Laurea" style="whiteSpace=wrap;html=1;align=center;" parent="8BG0fOGD8Of8e3mBtdMV-1" vertex="1">
          <mxGeometry x="250" y="150" width="100" height="40" as="geometry" />
        </mxCell>
        <mxCell id="8BG0fOGD8Of8e3mBtdMV-14" style="edgeStyle=orthogonalEdgeStyle;rounded=0;orthogonalLoop=1;jettySize=auto;html=1;entryX=0.5;entryY=0;entryDx=0;entryDy=0;endArrow=none;endFill=0;" parent="8BG0fOGD8Of8e3mBtdMV-1" source="8BG0fOGD8Of8e3mBtdMV-16" target="8BG0fOGD8Of8e3mBtdMV-44" edge="1">
          <mxGeometry relative="1" as="geometry" />
        </mxCell>
        <mxCell id="8BG0fOGD8Of8e3mBtdMV-15" style="edgeStyle=orthogonalEdgeStyle;rounded=0;orthogonalLoop=1;jettySize=auto;html=1;entryX=0;entryY=0.5;entryDx=0;entryDy=0;endArrow=none;endFill=0;" parent="8BG0fOGD8Of8e3mBtdMV-1" source="8BG0fOGD8Of8e3mBtdMV-16" target="8BG0fOGD8Of8e3mBtdMV-48" edge="1">
          <mxGeometry relative="1" as="geometry">
            <Array as="points">
              <mxPoint x="600" y="456" />
            </Array>
          </mxGeometry>
        </mxCell>
        <mxCell id="8BG0fOGD8Of8e3mBtdMV-16" value="insegnamento" style="whiteSpace=wrap;html=1;align=center;" parent="8BG0fOGD8Of8e3mBtdMV-1" vertex="1">
          <mxGeometry x="570" y="210" width="100" height="40" as="geometry" />
        </mxCell>
        <mxCell id="8BG0fOGD8Of8e3mBtdMV-29" style="edgeStyle=orthogonalEdgeStyle;rounded=0;orthogonalLoop=1;jettySize=auto;html=1;entryX=0.847;entryY=1.08;entryDx=0;entryDy=0;endArrow=none;endFill=0;entryPerimeter=0;" parent="8BG0fOGD8Of8e3mBtdMV-1" source="8BG0fOGD8Of8e3mBtdMV-30" target="8BG0fOGD8Of8e3mBtdMV-16" edge="1">
          <mxGeometry relative="1" as="geometry" />
        </mxCell>
        <mxCell id="8BG0fOGD8Of8e3mBtdMV-30" value="essere_responsabile" style="shape=rhombus;perimeter=rhombusPerimeter;whiteSpace=wrap;html=1;align=center;" parent="8BG0fOGD8Of8e3mBtdMV-1" vertex="1">
          <mxGeometry x="630" y="292" width="140" height="60" as="geometry" />
        </mxCell>
        <mxCell id="8BG0fOGD8Of8e3mBtdMV-31" value="(1, 3)" style="text;html=1;align=center;verticalAlign=middle;resizable=0;points=[];autosize=1;strokeColor=none;fillColor=none;" parent="8BG0fOGD8Of8e3mBtdMV-1" vertex="1">
          <mxGeometry x="693" y="344" width="50" height="30" as="geometry" />
        </mxCell>
        <mxCell id="8BG0fOGD8Of8e3mBtdMV-32" style="edgeStyle=orthogonalEdgeStyle;rounded=0;orthogonalLoop=1;jettySize=auto;html=1;entryX=0.5;entryY=0;entryDx=0;entryDy=0;endArrow=none;endFill=0;" parent="8BG0fOGD8Of8e3mBtdMV-1" source="8BG0fOGD8Of8e3mBtdMV-33" target="8BG0fOGD8Of8e3mBtdMV-16" edge="1">
          <mxGeometry relative="1" as="geometry" />
        </mxCell>
        <mxCell id="8BG0fOGD8Of8e3mBtdMV-33" value="manifesto_insegnamenti" style="shape=rhombus;perimeter=rhombusPerimeter;whiteSpace=wrap;html=1;align=center;fontSize=10;" parent="8BG0fOGD8Of8e3mBtdMV-1" vertex="1">
          <mxGeometry x="430" y="140" width="130" height="60" as="geometry" />
        </mxCell>
        <mxCell id="8BG0fOGD8Of8e3mBtdMV-34" value="(0, N)" style="text;html=1;align=center;verticalAlign=middle;resizable=0;points=[];autosize=1;strokeColor=none;fillColor=none;" parent="8BG0fOGD8Of8e3mBtdMV-1" vertex="1">
          <mxGeometry x="351" y="140" width="50" height="30" as="geometry" />
        </mxCell>
        <mxCell id="8BG0fOGD8Of8e3mBtdMV-35" value="(1, N)" style="text;html=1;align=center;verticalAlign=middle;resizable=0;points=[];autosize=1;strokeColor=none;fillColor=none;" parent="8BG0fOGD8Of8e3mBtdMV-1" vertex="1">
          <mxGeometry x="570" y="182" width="50" height="30" as="geometry" />
        </mxCell>
        <mxCell id="8BG0fOGD8Of8e3mBtdMV-36" value="IDInsegnamento" style="text;html=1;align=center;verticalAlign=middle;resizable=0;points=[];autosize=1;strokeColor=none;fillColor=none;fontStyle=4" parent="8BG0fOGD8Of8e3mBtdMV-1" vertex="1">
          <mxGeometry x="430" y="202" width="110" height="30" as="geometry" />
        </mxCell>
        <mxCell id="8BG0fOGD8Of8e3mBtdMV-38" value="descrizione" style="text;html=1;align=center;verticalAlign=middle;resizable=0;points=[];autosize=1;strokeColor=none;fillColor=none;" parent="8BG0fOGD8Of8e3mBtdMV-1" vertex="1">
          <mxGeometry x="457.5" y="223" width="80" height="30" as="geometry" />
        </mxCell>
        <mxCell id="8BG0fOGD8Of8e3mBtdMV-43" style="edgeStyle=orthogonalEdgeStyle;rounded=0;orthogonalLoop=1;jettySize=auto;html=1;exitX=0.5;exitY=1;exitDx=0;exitDy=0;entryX=1;entryY=0.75;entryDx=0;entryDy=0;endArrow=none;endFill=0;" parent="8BG0fOGD8Of8e3mBtdMV-1" source="8BG0fOGD8Of8e3mBtdMV-44" target="8BG0fOGD8Of8e3mBtdMV-16" edge="1">
          <mxGeometry relative="1" as="geometry">
            <mxPoint x="770.6666056315104" y="280" as="targetPoint" />
          </mxGeometry>
        </mxCell>
        <mxCell id="8BG0fOGD8Of8e3mBtdMV-44" value="propedeuticita" style="shape=rhombus;perimeter=rhombusPerimeter;whiteSpace=wrap;html=1;align=center;" parent="8BG0fOGD8Of8e3mBtdMV-1" vertex="1">
          <mxGeometry x="815" y="208" width="120" height="60" as="geometry" />
        </mxCell>
        <mxCell id="8BG0fOGD8Of8e3mBtdMV-45" value="(0, N)" style="text;html=1;align=center;verticalAlign=middle;resizable=0;points=[];autosize=1;strokeColor=none;fillColor=none;" parent="8BG0fOGD8Of8e3mBtdMV-1" vertex="1">
          <mxGeometry x="871.5" y="173" width="50" height="30" as="geometry" />
        </mxCell>
        <mxCell id="8BG0fOGD8Of8e3mBtdMV-46" value="(0, N)" style="text;html=1;align=center;verticalAlign=middle;resizable=0;points=[];autosize=1;strokeColor=none;fillColor=none;" parent="8BG0fOGD8Of8e3mBtdMV-1" vertex="1">
          <mxGeometry x="871.5" y="275" width="50" height="30" as="geometry" />
        </mxCell>
        <mxCell id="8BG0fOGD8Of8e3mBtdMV-47" style="edgeStyle=orthogonalEdgeStyle;rounded=0;orthogonalLoop=1;jettySize=auto;html=1;entryX=0.605;entryY=-0.06;entryDx=0;entryDy=0;entryPerimeter=0;endArrow=none;endFill=0;" parent="8BG0fOGD8Of8e3mBtdMV-1" source="8BG0fOGD8Of8e3mBtdMV-48" target="8BG0fOGD8Of8e3mBtdMV-50" edge="1">
          <mxGeometry relative="1" as="geometry" />
        </mxCell>
        <mxCell id="8BG0fOGD8Of8e3mBtdMV-48" value="riguarda" style="shape=rhombus;perimeter=rhombusPerimeter;whiteSpace=wrap;html=1;align=center;" parent="8BG0fOGD8Of8e3mBtdMV-1" vertex="1">
          <mxGeometry x="817.5" y="426" width="120" height="60" as="geometry" />
        </mxCell>
        <mxCell id="8BG0fOGD8Of8e3mBtdMV-49" style="edgeStyle=orthogonalEdgeStyle;rounded=0;orthogonalLoop=1;jettySize=auto;html=1;entryX=1;entryY=0.5;entryDx=0;entryDy=0;exitX=0;exitY=0.5;exitDx=0;exitDy=0;endArrow=none;endFill=0;" parent="8BG0fOGD8Of8e3mBtdMV-1" source="8BG0fOGD8Of8e3mBtdMV-50" target="8BG0fOGD8Of8e3mBtdMV-52" edge="1">
          <mxGeometry relative="1" as="geometry">
            <Array as="points">
              <mxPoint x="987.5" y="549" />
            </Array>
          </mxGeometry>
        </mxCell>
        <mxCell id="8BG0fOGD8Of8e3mBtdMV-50" value="esame" style="whiteSpace=wrap;html=1;align=center;" parent="8BG0fOGD8Of8e3mBtdMV-1" vertex="1">
          <mxGeometry x="987.5" y="524" width="100" height="40" as="geometry" />
        </mxCell>
        <mxCell id="8BG0fOGD8Of8e3mBtdMV-51" value="data" style="text;html=1;align=center;verticalAlign=middle;resizable=0;points=[];autosize=1;strokeColor=none;fillColor=none;" parent="8BG0fOGD8Of8e3mBtdMV-1" vertex="1">
          <mxGeometry x="996.5" y="572" width="50" height="30" as="geometry" />
        </mxCell>
        <mxCell id="8BG0fOGD8Of8e3mBtdMV-52" value="esito" style="shape=rhombus;perimeter=rhombusPerimeter;whiteSpace=wrap;html=1;align=center;" parent="8BG0fOGD8Of8e3mBtdMV-1" vertex="1">
          <mxGeometry x="757.5" y="519" width="120" height="60" as="geometry" />
        </mxCell>
        <mxCell id="8BG0fOGD8Of8e3mBtdMV-57" style="edgeStyle=orthogonalEdgeStyle;rounded=0;orthogonalLoop=1;jettySize=auto;html=1;entryX=1;entryY=0.5;entryDx=0;entryDy=0;endArrow=none;endFill=0;" parent="8BG0fOGD8Of8e3mBtdMV-1" source="8BG0fOGD8Of8e3mBtdMV-58" target="8BG0fOGD8Of8e3mBtdMV-133" edge="1">
          <mxGeometry relative="1" as="geometry">
            <Array as="points">
              <mxPoint x="250" y="970" />
              <mxPoint x="250" y="970" />
            </Array>
          </mxGeometry>
        </mxCell>
        <mxCell id="8BG0fOGD8Of8e3mBtdMV-58" value="storico_studente" style="whiteSpace=wrap;html=1;align=center;" parent="8BG0fOGD8Of8e3mBtdMV-1" vertex="1">
          <mxGeometry x="312.5" y="948.5" width="100" height="40" as="geometry" />
        </mxCell>
        <mxCell id="8BG0fOGD8Of8e3mBtdMV-60" value="inizioRapporto" style="text;html=1;align=center;verticalAlign=middle;resizable=0;points=[];autosize=1;strokeColor=none;fillColor=none;" parent="8BG0fOGD8Of8e3mBtdMV-1" vertex="1">
          <mxGeometry x="620.5" y="409.5" width="100" height="30" as="geometry" />
        </mxCell>
        <mxCell id="8BG0fOGD8Of8e3mBtdMV-61" value="fineRapporto" style="text;html=1;align=center;verticalAlign=middle;resizable=0;points=[];autosize=1;strokeColor=none;fillColor=none;" parent="8BG0fOGD8Of8e3mBtdMV-1" vertex="1">
          <mxGeometry x="644" y="428" width="90" height="30" as="geometry" />
        </mxCell>
        <mxCell id="8BG0fOGD8Of8e3mBtdMV-73" value="(0, N)" style="text;html=1;align=center;verticalAlign=middle;resizable=0;points=[];autosize=1;strokeColor=none;fillColor=none;" parent="8BG0fOGD8Of8e3mBtdMV-1" vertex="1">
          <mxGeometry x="485" y="451" width="50" height="30" as="geometry" />
        </mxCell>
        <mxCell id="8BG0fOGD8Of8e3mBtdMV-74" value="&amp;nbsp;&lt;span style=&quot;white-space: pre;&quot;&gt; &lt;/span&gt;" style="text;html=1;align=center;verticalAlign=middle;resizable=0;points=[];autosize=1;strokeColor=none;fillColor=none;" parent="8BG0fOGD8Of8e3mBtdMV-1" vertex="1">
          <mxGeometry x="702" y="87.03999999999999" width="50" height="30" as="geometry" />
        </mxCell>
        <mxCell id="8BG0fOGD8Of8e3mBtdMV-78" value="IDEsame" style="text;html=1;align=center;verticalAlign=middle;resizable=0;points=[];autosize=1;strokeColor=none;fillColor=none;fontStyle=4" parent="8BG0fOGD8Of8e3mBtdMV-1" vertex="1">
          <mxGeometry x="1077.5" y="572" width="70" height="30" as="geometry" />
        </mxCell>
        <mxCell id="8BG0fOGD8Of8e3mBtdMV-79" value="(1, 1)" style="text;html=1;align=center;verticalAlign=middle;resizable=0;points=[];autosize=1;strokeColor=none;fillColor=none;" parent="8BG0fOGD8Of8e3mBtdMV-1" vertex="1">
          <mxGeometry x="650" y="245" width="50" height="30" as="geometry" />
        </mxCell>
        <mxCell id="8BG0fOGD8Of8e3mBtdMV-80" value="(1, N)" style="text;html=1;align=center;verticalAlign=middle;resizable=0;points=[];autosize=1;strokeColor=none;fillColor=none;" parent="8BG0fOGD8Of8e3mBtdMV-1" vertex="1">
          <mxGeometry x="605" y="245" width="50" height="30" as="geometry" />
        </mxCell>
        <mxCell id="8BG0fOGD8Of8e3mBtdMV-81" value="(1, N)" style="text;html=1;align=center;verticalAlign=middle;resizable=0;points=[];autosize=1;strokeColor=none;fillColor=none;" parent="8BG0fOGD8Of8e3mBtdMV-1" vertex="1">
          <mxGeometry x="743" y="396" width="50" height="30" as="geometry" />
        </mxCell>
        <mxCell id="8BG0fOGD8Of8e3mBtdMV-82" value="(1, 1)" style="text;html=1;align=center;verticalAlign=middle;resizable=0;points=[];autosize=1;strokeColor=none;fillColor=none;" parent="8BG0fOGD8Of8e3mBtdMV-1" vertex="1">
          <mxGeometry x="1042.5" y="495" width="50" height="30" as="geometry" />
        </mxCell>
        <mxCell id="8BG0fOGD8Of8e3mBtdMV-88" value="(0, N)" style="text;html=1;align=center;verticalAlign=middle;resizable=0;points=[];autosize=1;strokeColor=none;fillColor=none;" parent="8BG0fOGD8Of8e3mBtdMV-1" vertex="1">
          <mxGeometry x="937.5" y="519" width="50" height="30" as="geometry" />
        </mxCell>
        <mxCell id="8BG0fOGD8Of8e3mBtdMV-93" value="" style="endArrow=none;html=1;rounded=0;entryX=0;entryY=0.5;entryDx=0;entryDy=0;" parent="8BG0fOGD8Of8e3mBtdMV-1" target="8BG0fOGD8Of8e3mBtdMV-142" edge="1">
          <mxGeometry width="50" height="50" relative="1" as="geometry">
            <mxPoint x="570" y="660" as="sourcePoint" />
            <mxPoint x="440" y="429" as="targetPoint" />
          </mxGeometry>
        </mxCell>
        <mxCell id="8BG0fOGD8Of8e3mBtdMV-94" value="" style="shape=waypoint;sketch=0;fillStyle=solid;size=6;pointerEvents=1;points=[];fillColor=none;resizable=0;rotatable=0;perimeter=centerPerimeter;snapToPoint=1;" parent="8BG0fOGD8Of8e3mBtdMV-1" vertex="1">
          <mxGeometry x="560" y="648" width="20" height="20" as="geometry" />
        </mxCell>
        <mxCell id="8BG0fOGD8Of8e3mBtdMV-106" value="" style="shape=waypoint;sketch=0;fillStyle=solid;size=6;pointerEvents=1;points=[];fillColor=none;resizable=0;rotatable=0;perimeter=centerPerimeter;snapToPoint=1;" parent="8BG0fOGD8Of8e3mBtdMV-1" vertex="1">
          <mxGeometry x="530" y="207" width="20" height="20" as="geometry" />
        </mxCell>
        <mxCell id="8BG0fOGD8Of8e3mBtdMV-111" value="" style="endArrow=none;html=1;rounded=0;entryX=0.676;entryY=0.712;entryDx=0;entryDy=0;entryPerimeter=0;exitX=-0.018;exitY=0.16;exitDx=0;exitDy=0;exitPerimeter=0;" parent="8BG0fOGD8Of8e3mBtdMV-1" source="8BG0fOGD8Of8e3mBtdMV-16" target="8BG0fOGD8Of8e3mBtdMV-106" edge="1">
          <mxGeometry width="50" height="50" relative="1" as="geometry">
            <mxPoint x="280" y="300" as="sourcePoint" />
            <mxPoint x="330" y="250" as="targetPoint" />
          </mxGeometry>
        </mxCell>
        <mxCell id="8BG0fOGD8Of8e3mBtdMV-112" style="edgeStyle=orthogonalEdgeStyle;rounded=0;orthogonalLoop=1;jettySize=auto;html=1;entryX=0.444;entryY=0.987;entryDx=0;entryDy=0;entryPerimeter=0;endArrow=none;endFill=0;" parent="8BG0fOGD8Of8e3mBtdMV-1" source="8BG0fOGD8Of8e3mBtdMV-113" edge="1">
          <mxGeometry relative="1" as="geometry">
            <Array as="points">
              <mxPoint x="1077.5" y="577" />
              <mxPoint x="1076.5" y="577" />
            </Array>
            <mxPoint x="1076.8999999999996" y="563.4800000000002" as="targetPoint" />
          </mxGeometry>
        </mxCell>
        <mxCell id="8BG0fOGD8Of8e3mBtdMV-113" value="" style="shape=waypoint;sketch=0;size=6;pointerEvents=1;points=[];fillColor=none;resizable=0;rotatable=0;perimeter=centerPerimeter;snapToPoint=1;" parent="8BG0fOGD8Of8e3mBtdMV-1" vertex="1">
          <mxGeometry x="1067.5" y="577" width="20" height="20" as="geometry" />
        </mxCell>
        <mxCell id="8BG0fOGD8Of8e3mBtdMV-129" style="edgeStyle=orthogonalEdgeStyle;rounded=0;orthogonalLoop=1;jettySize=auto;html=1;entryX=0.5;entryY=1;entryDx=0;entryDy=0;endArrow=none;endFill=0;exitX=0.5;exitY=0;exitDx=0;exitDy=0;" parent="8BG0fOGD8Of8e3mBtdMV-1" source="8BG0fOGD8Of8e3mBtdMV-131" target="8BG0fOGD8Of8e3mBtdMV-152" edge="1">
          <mxGeometry relative="1" as="geometry">
            <Array as="points">
              <mxPoint x="810" y="668" />
            </Array>
          </mxGeometry>
        </mxCell>
        <mxCell id="Qh-pIMiAFTUNVjIwKjOb-4" style="edgeStyle=orthogonalEdgeStyle;rounded=0;orthogonalLoop=1;jettySize=auto;html=1;entryX=0.5;entryY=0;entryDx=0;entryDy=0;endArrow=none;endFill=0;" parent="8BG0fOGD8Of8e3mBtdMV-1" source="8BG0fOGD8Of8e3mBtdMV-131" edge="1">
          <mxGeometry relative="1" as="geometry">
            <mxPoint x="809.5" y="959" as="targetPoint" />
          </mxGeometry>
        </mxCell>
        <mxCell id="8BG0fOGD8Of8e3mBtdMV-131" value="laurea" style="whiteSpace=wrap;html=1;align=center;" parent="8BG0fOGD8Of8e3mBtdMV-1" vertex="1">
          <mxGeometry x="759.5" y="785" width="100" height="40" as="geometry" />
        </mxCell>
        <mxCell id="8BG0fOGD8Of8e3mBtdMV-132" style="edgeStyle=orthogonalEdgeStyle;rounded=0;orthogonalLoop=1;jettySize=auto;html=1;endArrow=none;endFill=0;" parent="8BG0fOGD8Of8e3mBtdMV-1" source="8BG0fOGD8Of8e3mBtdMV-133" target="8BG0fOGD8Of8e3mBtdMV-13" edge="1">
          <mxGeometry relative="1" as="geometry">
            <Array as="points">
              <mxPoint x="-35" y="150" />
            </Array>
          </mxGeometry>
        </mxCell>
        <mxCell id="8BG0fOGD8Of8e3mBtdMV-133" value="storico_iscrizione" style="shape=rhombus;perimeter=rhombusPerimeter;whiteSpace=wrap;html=1;align=center;" parent="8BG0fOGD8Of8e3mBtdMV-1" vertex="1">
          <mxGeometry x="-110" y="940" width="150" height="60" as="geometry" />
        </mxCell>
        <mxCell id="8BG0fOGD8Of8e3mBtdMV-134" style="edgeStyle=orthogonalEdgeStyle;rounded=0;orthogonalLoop=1;jettySize=auto;html=1;exitX=0.5;exitY=0;exitDx=0;exitDy=0;endArrow=none;endFill=0;" parent="8BG0fOGD8Of8e3mBtdMV-1" source="8BG0fOGD8Of8e3mBtdMV-136" target="8BG0fOGD8Of8e3mBtdMV-13" edge="1">
          <mxGeometry relative="1" as="geometry">
            <Array as="points">
              <mxPoint x="411" y="180" />
            </Array>
          </mxGeometry>
        </mxCell>
        <mxCell id="8BG0fOGD8Of8e3mBtdMV-135" style="edgeStyle=orthogonalEdgeStyle;rounded=0;orthogonalLoop=1;jettySize=auto;html=1;entryX=0.321;entryY=0.005;entryDx=0;entryDy=0;entryPerimeter=0;endArrow=none;endFill=0;" parent="8BG0fOGD8Of8e3mBtdMV-1" source="8BG0fOGD8Of8e3mBtdMV-136" target="8BG0fOGD8Of8e3mBtdMV-5" edge="1">
          <mxGeometry relative="1" as="geometry" />
        </mxCell>
        <mxCell id="8BG0fOGD8Of8e3mBtdMV-136" value="iscrizione" style="shape=rhombus;perimeter=rhombusPerimeter;whiteSpace=wrap;html=1;align=center;" parent="8BG0fOGD8Of8e3mBtdMV-1" vertex="1">
          <mxGeometry x="372.5" y="314" width="77.5" height="60" as="geometry" />
        </mxCell>
        <mxCell id="8BG0fOGD8Of8e3mBtdMV-137" value="(0, N)" style="text;html=1;align=center;verticalAlign=middle;resizable=0;points=[];autosize=1;strokeColor=none;fillColor=none;" parent="8BG0fOGD8Of8e3mBtdMV-1" vertex="1">
          <mxGeometry x="351" y="182" width="50" height="30" as="geometry" />
        </mxCell>
        <mxCell id="8BG0fOGD8Of8e3mBtdMV-138" value="(1, 1)" style="text;html=1;align=center;verticalAlign=middle;resizable=0;points=[];autosize=1;strokeColor=none;fillColor=none;" parent="8BG0fOGD8Of8e3mBtdMV-1" vertex="1">
          <mxGeometry x="402.5" y="424" width="50" height="30" as="geometry" />
        </mxCell>
        <mxCell id="8BG0fOGD8Of8e3mBtdMV-139" style="edgeStyle=orthogonalEdgeStyle;rounded=0;orthogonalLoop=1;jettySize=auto;html=1;endArrow=none;endFill=0;" parent="8BG0fOGD8Of8e3mBtdMV-1" source="8BG0fOGD8Of8e3mBtdMV-142" target="8BG0fOGD8Of8e3mBtdMV-145" edge="1">
          <mxGeometry relative="1" as="geometry" />
        </mxCell>
        <mxCell id="8BG0fOGD8Of8e3mBtdMV-140" style="edgeStyle=orthogonalEdgeStyle;rounded=0;orthogonalLoop=1;jettySize=auto;html=1;endArrow=none;endFill=0;entryX=0.5;entryY=0;entryDx=0;entryDy=0;" parent="8BG0fOGD8Of8e3mBtdMV-1" source="8BG0fOGD8Of8e3mBtdMV-142" target="8BG0fOGD8Of8e3mBtdMV-149" edge="1">
          <mxGeometry relative="1" as="geometry">
            <Array as="points">
              <mxPoint x="625" y="785" />
              <mxPoint x="625" y="785" />
            </Array>
          </mxGeometry>
        </mxCell>
        <mxCell id="8BG0fOGD8Of8e3mBtdMV-141" style="edgeStyle=orthogonalEdgeStyle;rounded=0;orthogonalLoop=1;jettySize=auto;html=1;entryX=0;entryY=0.5;entryDx=0;entryDy=0;endArrow=none;endFill=0;" parent="8BG0fOGD8Of8e3mBtdMV-1" source="8BG0fOGD8Of8e3mBtdMV-142" target="8BG0fOGD8Of8e3mBtdMV-152" edge="1">
          <mxGeometry relative="1" as="geometry" />
        </mxCell>
        <mxCell id="8BG0fOGD8Of8e3mBtdMV-142" value="matricola" style="whiteSpace=wrap;html=1;align=center;" parent="8BG0fOGD8Of8e3mBtdMV-1" vertex="1">
          <mxGeometry x="585" y="648" width="100" height="40" as="geometry" />
        </mxCell>
        <mxCell id="8BG0fOGD8Of8e3mBtdMV-143" style="edgeStyle=orthogonalEdgeStyle;rounded=0;orthogonalLoop=1;jettySize=auto;html=1;exitX=0.5;exitY=1;exitDx=0;exitDy=0;" parent="8BG0fOGD8Of8e3mBtdMV-1" source="8BG0fOGD8Of8e3mBtdMV-142" target="8BG0fOGD8Of8e3mBtdMV-142" edge="1">
          <mxGeometry relative="1" as="geometry" />
        </mxCell>
        <mxCell id="8BG0fOGD8Of8e3mBtdMV-144" style="edgeStyle=orthogonalEdgeStyle;rounded=0;orthogonalLoop=1;jettySize=auto;html=1;entryX=1;entryY=0.75;entryDx=0;entryDy=0;endArrow=none;endFill=0;exitX=0.5;exitY=0;exitDx=0;exitDy=0;" parent="8BG0fOGD8Of8e3mBtdMV-1" source="8BG0fOGD8Of8e3mBtdMV-145" target="8BG0fOGD8Of8e3mBtdMV-5" edge="1">
          <mxGeometry relative="1" as="geometry">
            <Array as="points">
              <mxPoint x="635" y="492" />
            </Array>
          </mxGeometry>
        </mxCell>
        <mxCell id="8BG0fOGD8Of8e3mBtdMV-145" value="appartenere" style="shape=rhombus;perimeter=rhombusPerimeter;whiteSpace=wrap;html=1;align=center;" parent="8BG0fOGD8Of8e3mBtdMV-1" vertex="1">
          <mxGeometry x="574.5" y="544" width="120" height="60" as="geometry" />
        </mxCell>
        <mxCell id="8BG0fOGD8Of8e3mBtdMV-146" value="(1, 1)" style="text;html=1;align=center;verticalAlign=middle;resizable=0;points=[];autosize=1;strokeColor=none;fillColor=none;" parent="8BG0fOGD8Of8e3mBtdMV-1" vertex="1">
          <mxGeometry x="485" y="490" width="50" height="30" as="geometry" />
        </mxCell>
        <mxCell id="8BG0fOGD8Of8e3mBtdMV-147" value="(0, 1)" style="text;html=1;align=center;verticalAlign=middle;resizable=0;points=[];autosize=1;strokeColor=none;fillColor=none;" parent="8BG0fOGD8Of8e3mBtdMV-1" vertex="1">
          <mxGeometry x="629.5" y="622" width="50" height="30" as="geometry" />
        </mxCell>
        <mxCell id="8BG0fOGD8Of8e3mBtdMV-148" style="edgeStyle=orthogonalEdgeStyle;rounded=0;orthogonalLoop=1;jettySize=auto;html=1;entryX=1;entryY=0.5;entryDx=0;entryDy=0;exitX=0.5;exitY=1;exitDx=0;exitDy=0;endArrow=none;endFill=0;" parent="8BG0fOGD8Of8e3mBtdMV-1" source="8BG0fOGD8Of8e3mBtdMV-149" target="8BG0fOGD8Of8e3mBtdMV-58" edge="1">
          <mxGeometry relative="1" as="geometry">
            <Array as="points">
              <mxPoint x="620" y="969" />
              <mxPoint x="486" y="969" />
            </Array>
          </mxGeometry>
        </mxCell>
        <mxCell id="8BG0fOGD8Of8e3mBtdMV-149" value="appartenere" style="shape=rhombus;perimeter=rhombusPerimeter;whiteSpace=wrap;html=1;align=center;" parent="8BG0fOGD8Of8e3mBtdMV-1" vertex="1">
          <mxGeometry x="565" y="902" width="120" height="60" as="geometry" />
        </mxCell>
        <mxCell id="8BG0fOGD8Of8e3mBtdMV-150" value="(0, 1)" style="text;html=1;align=center;verticalAlign=middle;resizable=0;points=[];autosize=1;strokeColor=none;fillColor=none;" parent="8BG0fOGD8Of8e3mBtdMV-1" vertex="1">
          <mxGeometry x="626" y="686.5" width="50" height="30" as="geometry" />
        </mxCell>
        <mxCell id="8BG0fOGD8Of8e3mBtdMV-151" value="(1, 1)" style="text;html=1;align=center;verticalAlign=middle;resizable=0;points=[];autosize=1;strokeColor=none;fillColor=none;" parent="8BG0fOGD8Of8e3mBtdMV-1" vertex="1">
          <mxGeometry x="405.5" y="941.5" width="50" height="30" as="geometry" />
        </mxCell>
        <mxCell id="8BG0fOGD8Of8e3mBtdMV-153" value="(0, N)" style="text;html=1;align=center;verticalAlign=middle;resizable=0;points=[];autosize=1;strokeColor=none;fillColor=none;" parent="8BG0fOGD8Of8e3mBtdMV-1" vertex="1">
          <mxGeometry x="682" y="643" width="50" height="30" as="geometry" />
        </mxCell>
        <mxCell id="8BG0fOGD8Of8e3mBtdMV-154" value="(1, 1)" style="text;html=1;align=center;verticalAlign=middle;resizable=0;points=[];autosize=1;strokeColor=none;fillColor=none;" parent="8BG0fOGD8Of8e3mBtdMV-1" vertex="1">
          <mxGeometry x="804.5" y="761.5" width="50" height="30" as="geometry" />
        </mxCell>
        <mxCell id="8BG0fOGD8Of8e3mBtdMV-156" style="edgeStyle=orthogonalEdgeStyle;rounded=0;orthogonalLoop=1;jettySize=auto;html=1;endArrow=none;endFill=0;entryX=1;entryY=0.5;entryDx=0;entryDy=0;" parent="8BG0fOGD8Of8e3mBtdMV-1" source="8BG0fOGD8Of8e3mBtdMV-158" target="8BG0fOGD8Of8e3mBtdMV-161" edge="1">
          <mxGeometry relative="1" as="geometry">
            <mxPoint x="724.5" y="1085" as="targetPoint" />
          </mxGeometry>
        </mxCell>
        <mxCell id="8BG0fOGD8Of8e3mBtdMV-158" value="sessione_laurea" style="whiteSpace=wrap;html=1;align=center;" parent="8BG0fOGD8Of8e3mBtdMV-1" vertex="1">
          <mxGeometry x="759.5" y="1065" width="100" height="40" as="geometry" />
        </mxCell>
        <mxCell id="8BG0fOGD8Of8e3mBtdMV-160" style="edgeStyle=orthogonalEdgeStyle;rounded=0;orthogonalLoop=1;jettySize=auto;html=1;exitX=0;exitY=0.5;exitDx=0;exitDy=0;endArrow=none;endFill=0;entryX=0.129;entryY=-0.001;entryDx=0;entryDy=0;entryPerimeter=0;" parent="8BG0fOGD8Of8e3mBtdMV-1" source="8BG0fOGD8Of8e3mBtdMV-161" target="8BG0fOGD8Of8e3mBtdMV-13" edge="1">
          <mxGeometry relative="1" as="geometry">
            <Array as="points">
              <mxPoint x="-120" y="1085" />
              <mxPoint x="-120" y="130" />
              <mxPoint x="263" y="130" />
            </Array>
          </mxGeometry>
        </mxCell>
        <mxCell id="8BG0fOGD8Of8e3mBtdMV-161" value="riguardare" style="shape=rhombus;perimeter=rhombusPerimeter;whiteSpace=wrap;html=1;align=center;" parent="8BG0fOGD8Of8e3mBtdMV-1" vertex="1">
          <mxGeometry x="594.5" y="1055" width="120" height="60" as="geometry" />
        </mxCell>
        <mxCell id="8BG0fOGD8Of8e3mBtdMV-162" value="voto" style="text;html=1;align=center;verticalAlign=middle;resizable=0;points=[];autosize=1;strokeColor=none;fillColor=none;" parent="8BG0fOGD8Of8e3mBtdMV-1" vertex="1">
          <mxGeometry x="885" y="779.5" width="50" height="30" as="geometry" />
        </mxCell>
        <mxCell id="8BG0fOGD8Of8e3mBtdMV-163" value="lode" style="text;html=1;align=center;verticalAlign=middle;resizable=0;points=[];autosize=1;strokeColor=none;fillColor=none;" parent="8BG0fOGD8Of8e3mBtdMV-1" vertex="1">
          <mxGeometry x="887" y="798" width="50" height="30" as="geometry" />
        </mxCell>
        <mxCell id="8BG0fOGD8Of8e3mBtdMV-171" value="(0, N)" style="text;html=1;align=center;verticalAlign=middle;resizable=0;points=[];autosize=1;strokeColor=none;fillColor=none;" parent="8BG0fOGD8Of8e3mBtdMV-1" vertex="1">
          <mxGeometry x="803" y="1040" width="50" height="30" as="geometry" />
        </mxCell>
        <mxCell id="8BG0fOGD8Of8e3mBtdMV-172" value="(1, 1)" style="text;html=1;align=center;verticalAlign=middle;resizable=0;points=[];autosize=1;strokeColor=none;fillColor=none;" parent="8BG0fOGD8Of8e3mBtdMV-1" vertex="1">
          <mxGeometry x="803" y="827" width="50" height="30" as="geometry" />
        </mxCell>
        <mxCell id="8BG0fOGD8Of8e3mBtdMV-181" value="(1, 1)" style="text;html=1;align=center;verticalAlign=middle;resizable=0;points=[];autosize=1;strokeColor=none;fillColor=none;" parent="8BG0fOGD8Of8e3mBtdMV-1" vertex="1">
          <mxGeometry x="682" y="1090" width="50" height="30" as="geometry" />
        </mxCell>
        <mxCell id="8BG0fOGD8Of8e3mBtdMV-182" value="(0, N)" style="text;html=1;align=center;verticalAlign=middle;resizable=0;points=[];autosize=1;strokeColor=none;fillColor=none;" parent="8BG0fOGD8Of8e3mBtdMV-1" vertex="1">
          <mxGeometry x="205" y="98" width="50" height="30" as="geometry" />
        </mxCell>
        <mxCell id="8BG0fOGD8Of8e3mBtdMV-183" value="(0, N)" style="text;html=1;align=center;verticalAlign=middle;resizable=0;points=[];autosize=1;strokeColor=none;fillColor=none;" parent="8BG0fOGD8Of8e3mBtdMV-1" vertex="1">
          <mxGeometry x="205" y="126" width="50" height="30" as="geometry" />
        </mxCell>
        <mxCell id="8BG0fOGD8Of8e3mBtdMV-204" style="edgeStyle=orthogonalEdgeStyle;rounded=0;orthogonalLoop=1;jettySize=auto;html=1;entryX=1;entryY=0.75;entryDx=0;entryDy=0;endArrow=none;endFill=0;" parent="8BG0fOGD8Of8e3mBtdMV-1" target="8BG0fOGD8Of8e3mBtdMV-131" edge="1">
          <mxGeometry relative="1" as="geometry">
            <mxPoint x="885" y="813.0000000000001" as="sourcePoint" />
          </mxGeometry>
        </mxCell>
        <mxCell id="8BG0fOGD8Of8e3mBtdMV-206" style="edgeStyle=orthogonalEdgeStyle;rounded=0;orthogonalLoop=1;jettySize=auto;html=1;endArrow=none;endFill=0;entryX=1;entryY=0.25;entryDx=0;entryDy=0;" parent="8BG0fOGD8Of8e3mBtdMV-1" target="8BG0fOGD8Of8e3mBtdMV-131" edge="1">
          <mxGeometry relative="1" as="geometry">
            <mxPoint x="950.5" y="690" as="targetPoint" />
            <mxPoint x="885" y="795" as="sourcePoint" />
          </mxGeometry>
        </mxCell>
        <mxCell id="8BG0fOGD8Of8e3mBtdMV-214" value="IDStorico" style="text;html=1;align=center;verticalAlign=middle;resizable=0;points=[];autosize=1;strokeColor=none;fillColor=none;fontStyle=4" parent="8BG0fOGD8Of8e3mBtdMV-1" vertex="1">
          <mxGeometry x="446.5" y="789" width="70" height="30" as="geometry" />
        </mxCell>
        <mxCell id="8BG0fOGD8Of8e3mBtdMV-216" value="" style="shape=waypoint;sketch=0;size=6;pointerEvents=1;points=[];fillColor=none;resizable=0;rotatable=0;perimeter=centerPerimeter;snapToPoint=1;" parent="8BG0fOGD8Of8e3mBtdMV-1" vertex="1">
          <mxGeometry x="439" y="794" width="20" height="20" as="geometry" />
        </mxCell>
        <mxCell id="8BG0fOGD8Of8e3mBtdMV-226" value="(0, N)" style="text;html=1;align=center;verticalAlign=middle;resizable=0;points=[];autosize=1;strokeColor=none;fillColor=none;" parent="8BG0fOGD8Of8e3mBtdMV-1" vertex="1">
          <mxGeometry x="743" y="362" width="50" height="30" as="geometry" />
        </mxCell>
        <mxCell id="8BG0fOGD8Of8e3mBtdMV-227" value="(1, 1)" style="text;html=1;align=center;verticalAlign=middle;resizable=0;points=[];autosize=1;strokeColor=none;fillColor=none;" parent="8BG0fOGD8Of8e3mBtdMV-1" vertex="1">
          <mxGeometry x="266" y="942" width="50" height="30" as="geometry" />
        </mxCell>
        <mxCell id="8BG0fOGD8Of8e3mBtdMV-228" value="dataImmatricolazione" style="text;html=1;align=center;verticalAlign=middle;resizable=0;points=[];autosize=1;strokeColor=none;fillColor=none;fontSize=9;" parent="8BG0fOGD8Of8e3mBtdMV-1" vertex="1">
          <mxGeometry x="363" y="1013.5" width="104" height="23" as="geometry" />
        </mxCell>
        <mxCell id="8BG0fOGD8Of8e3mBtdMV-229" value="dataRimozione" style="text;html=1;align=center;verticalAlign=middle;resizable=0;points=[];autosize=1;strokeColor=none;fillColor=none;" parent="8BG0fOGD8Of8e3mBtdMV-1" vertex="1">
          <mxGeometry x="268" y="1010" width="100" height="30" as="geometry" />
        </mxCell>
        <mxCell id="8BG0fOGD8Of8e3mBtdMV-237" style="edgeStyle=orthogonalEdgeStyle;rounded=0;orthogonalLoop=1;jettySize=auto;html=1;entryX=0;entryY=0.5;entryDx=0;entryDy=0;endArrow=none;endFill=0;" parent="8BG0fOGD8Of8e3mBtdMV-1" source="8BG0fOGD8Of8e3mBtdMV-238" target="8BG0fOGD8Of8e3mBtdMV-9" edge="1">
          <mxGeometry relative="1" as="geometry" />
        </mxCell>
        <mxCell id="3e7HaWktir2AnIge4Ibi-5" style="edgeStyle=orthogonalEdgeStyle;rounded=0;orthogonalLoop=1;jettySize=auto;html=1;entryX=0.5;entryY=0;entryDx=0;entryDy=0;endArrow=none;endFill=0;" parent="8BG0fOGD8Of8e3mBtdMV-1" source="8BG0fOGD8Of8e3mBtdMV-238" target="8BG0fOGD8Of8e3mBtdMV-3" edge="1">
          <mxGeometry relative="1" as="geometry">
            <mxPoint x="283" y="560" as="targetPoint" />
          </mxGeometry>
        </mxCell>
        <mxCell id="8BG0fOGD8Of8e3mBtdMV-238" value="essere" style="shape=rhombus;perimeter=rhombusPerimeter;whiteSpace=wrap;html=1;align=center;" parent="8BG0fOGD8Of8e3mBtdMV-1" vertex="1">
          <mxGeometry x="223" y="360" width="120" height="60" as="geometry" />
        </mxCell>
        <mxCell id="8BG0fOGD8Of8e3mBtdMV-242" style="edgeStyle=orthogonalEdgeStyle;rounded=0;orthogonalLoop=1;jettySize=auto;html=1;entryX=1.024;entryY=0.902;entryDx=0;entryDy=0;exitX=1;exitY=0.5;exitDx=0;exitDy=0;endArrow=none;endFill=0;entryPerimeter=0;" parent="8BG0fOGD8Of8e3mBtdMV-1" source="8BG0fOGD8Of8e3mBtdMV-243" target="8BG0fOGD8Of8e3mBtdMV-249" edge="1">
          <mxGeometry relative="1" as="geometry">
            <Array as="points">
              <mxPoint x="621" y="618" />
              <mxPoint x="621" y="644" />
              <mxPoint x="621" y="644" />
            </Array>
          </mxGeometry>
        </mxCell>
        <mxCell id="8BG0fOGD8Of8e3mBtdMV-243" value="essere" style="shape=rhombus;perimeter=rhombusPerimeter;whiteSpace=wrap;html=1;align=center;" parent="8BG0fOGD8Of8e3mBtdMV-1" vertex="1">
          <mxGeometry x="365" y="588" width="120" height="60" as="geometry" />
        </mxCell>
        <mxCell id="8BG0fOGD8Of8e3mBtdMV-244" value="(1, 1)" style="text;html=1;align=center;verticalAlign=middle;resizable=0;points=[];autosize=1;strokeColor=none;fillColor=none;" parent="8BG0fOGD8Of8e3mBtdMV-1" vertex="1">
          <mxGeometry x="608" y="384" width="50" height="30" as="geometry" />
        </mxCell>
        <mxCell id="8BG0fOGD8Of8e3mBtdMV-247" value="(1, 1)" style="text;html=1;align=center;verticalAlign=middle;resizable=0;points=[];autosize=1;strokeColor=none;fillColor=none;" parent="8BG0fOGD8Of8e3mBtdMV-1" vertex="1">
          <mxGeometry x="282.5" y="568" width="50" height="30" as="geometry" />
        </mxCell>
        <mxCell id="8BG0fOGD8Of8e3mBtdMV-248" value="(1, 1)" style="text;html=1;align=center;verticalAlign=middle;resizable=0;points=[];autosize=1;strokeColor=none;fillColor=none;" parent="8BG0fOGD8Of8e3mBtdMV-1" vertex="1">
          <mxGeometry x="327.5" y="592" width="50" height="30" as="geometry" />
        </mxCell>
        <mxCell id="8BG0fOGD8Of8e3mBtdMV-249" value="(1, 1)" style="text;html=1;align=center;verticalAlign=middle;resizable=0;points=[];autosize=1;strokeColor=none;fillColor=none;" parent="8BG0fOGD8Of8e3mBtdMV-1" vertex="1">
          <mxGeometry x="570" y="622" width="50" height="30" as="geometry" />
        </mxCell>
        <mxCell id="kp45ph1VdNlzl7LDdBvh-0" value="data" style="text;html=1;align=center;verticalAlign=middle;resizable=0;points=[];autosize=1;strokeColor=none;fillColor=none;" parent="8BG0fOGD8Of8e3mBtdMV-1" vertex="1">
          <mxGeometry x="727" y="1126" width="50" height="30" as="geometry" />
        </mxCell>
        <mxCell id="kp45ph1VdNlzl7LDdBvh-1" style="edgeStyle=orthogonalEdgeStyle;rounded=0;orthogonalLoop=1;jettySize=auto;html=1;entryX=0;entryY=0.25;entryDx=0;entryDy=0;endArrow=none;endFill=0;" parent="8BG0fOGD8Of8e3mBtdMV-1" source="kp45ph1VdNlzl7LDdBvh-2" edge="1">
          <mxGeometry relative="1" as="geometry">
            <mxPoint x="740" y="1130" as="sourcePoint" />
            <mxPoint x="760" y="1075" as="targetPoint" />
            <Array as="points">
              <mxPoint x="752" y="1130" />
              <mxPoint x="752" y="1075" />
            </Array>
          </mxGeometry>
        </mxCell>
        <mxCell id="kp45ph1VdNlzl7LDdBvh-2" value="" style="shape=waypoint;sketch=0;size=6;pointerEvents=1;points=[];fillColor=none;resizable=0;rotatable=0;perimeter=centerPerimeter;snapToPoint=1;" parent="8BG0fOGD8Of8e3mBtdMV-1" vertex="1">
          <mxGeometry x="744.5" y="1120" width="20" height="20" as="geometry" />
        </mxCell>
        <mxCell id="8BG0fOGD8Of8e3mBtdMV-152" value="conseguire" style="shape=rhombus;perimeter=rhombusPerimeter;whiteSpace=wrap;html=1;align=center;" parent="8BG0fOGD8Of8e3mBtdMV-1" vertex="1">
          <mxGeometry x="767.5" y="638" width="82.5" height="60" as="geometry" />
        </mxCell>
        <mxCell id="mId-Vv5sklvMfK8vx71V-4" style="edgeStyle=orthogonalEdgeStyle;rounded=0;orthogonalLoop=1;jettySize=auto;html=1;entryX=0.5;entryY=0;entryDx=0;entryDy=0;endArrow=none;endFill=0;" parent="8BG0fOGD8Of8e3mBtdMV-1" source="mId-Vv5sklvMfK8vx71V-1" target="8BG0fOGD8Of8e3mBtdMV-158" edge="1">
          <mxGeometry relative="1" as="geometry">
            <Array as="points" />
          </mxGeometry>
        </mxCell>
        <mxCell id="mId-Vv5sklvMfK8vx71V-1" value="svolgersi" style="shape=rhombus;perimeter=rhombusPerimeter;whiteSpace=wrap;html=1;align=center;" parent="8BG0fOGD8Of8e3mBtdMV-1" vertex="1">
          <mxGeometry x="746.5" y="908.5" width="125" height="62" as="geometry" />
        </mxCell>
        <mxCell id="mId-Vv5sklvMfK8vx71V-2" style="edgeStyle=orthogonalEdgeStyle;rounded=0;orthogonalLoop=1;jettySize=auto;html=1;entryX=1;entryY=0.5;entryDx=0;entryDy=0;endArrow=none;endFill=0;exitX=0.25;exitY=1;exitDx=0;exitDy=0;exitPerimeter=0;" parent="8BG0fOGD8Of8e3mBtdMV-1" target="mId-Vv5sklvMfK8vx71V-1" edge="1">
          <mxGeometry relative="1" as="geometry">
            <mxPoint x="894.5" y="939.4999999999998" as="sourcePoint" />
          </mxGeometry>
        </mxCell>
        <mxCell id="DXTjQT6H8C6_kK3sB-3q-0" value="" style="endArrow=none;html=1;rounded=0;" parent="8BG0fOGD8Of8e3mBtdMV-1" edge="1">
          <mxGeometry width="50" height="50" relative="1" as="geometry">
            <mxPoint x="750" y="870" as="sourcePoint" />
            <mxPoint x="828" y="871" as="targetPoint" />
            <Array as="points">
              <mxPoint x="790" y="870" />
            </Array>
          </mxGeometry>
        </mxCell>
        <mxCell id="DXTjQT6H8C6_kK3sB-3q-1" value="" style="endArrow=none;html=1;rounded=0;" parent="8BG0fOGD8Of8e3mBtdMV-1" edge="1">
          <mxGeometry width="50" height="50" relative="1" as="geometry">
            <mxPoint x="750" y="870" as="sourcePoint" />
            <mxPoint x="750" y="770" as="targetPoint" />
          </mxGeometry>
        </mxCell>
        <mxCell id="DXTjQT6H8C6_kK3sB-3q-2" value="" style="endArrow=none;html=1;rounded=0;" parent="8BG0fOGD8Of8e3mBtdMV-1" edge="1">
          <mxGeometry width="50" height="50" relative="1" as="geometry">
            <mxPoint x="750" y="770" as="sourcePoint" />
            <mxPoint x="820" y="770" as="targetPoint" />
          </mxGeometry>
        </mxCell>
        <mxCell id="9DC7TSEpv67OUNuYlrX9-0" value="" style="shape=waypoint;sketch=0;fillStyle=solid;size=6;pointerEvents=1;points=[];fillColor=none;resizable=0;rotatable=0;perimeter=centerPerimeter;snapToPoint=1;" parent="8BG0fOGD8Of8e3mBtdMV-1" vertex="1">
          <mxGeometry x="818" y="860.5" width="20" height="20" as="geometry" />
        </mxCell>
        <mxCell id="hbFpyJYfArFoQJRns8xh-0" value="" style="ellipse;whiteSpace=wrap;html=1;aspect=fixed;" parent="8BG0fOGD8Of8e3mBtdMV-1" vertex="1">
          <mxGeometry x="885" y="791.5" width="7" height="7" as="geometry" />
        </mxCell>
        <mxCell id="hbFpyJYfArFoQJRns8xh-1" value="" style="ellipse;whiteSpace=wrap;html=1;aspect=fixed;" parent="8BG0fOGD8Of8e3mBtdMV-1" vertex="1">
          <mxGeometry x="885" y="809.5" width="7" height="7" as="geometry" />
        </mxCell>
        <mxCell id="s72CQvIzvjm3wRxzv4Je-0" value="" style="ellipse;whiteSpace=wrap;html=1;aspect=fixed;" parent="8BG0fOGD8Of8e3mBtdMV-1" vertex="1">
          <mxGeometry x="894.5" y="936" width="7" height="7" as="geometry" />
        </mxCell>
        <mxCell id="76yEp_k0Ww3UQ_fWosR0-0" style="edgeStyle=orthogonalEdgeStyle;rounded=0;orthogonalLoop=1;jettySize=auto;html=1;entryX=0.25;entryY=1;entryDx=0;entryDy=0;endArrow=none;endFill=0;" parent="8BG0fOGD8Of8e3mBtdMV-1" source="76yEp_k0Ww3UQ_fWosR0-1" edge="1">
          <mxGeometry relative="1" as="geometry">
            <mxPoint x="338" y="989" as="targetPoint" />
            <Array as="points">
              <mxPoint x="339" y="989" />
            </Array>
          </mxGeometry>
        </mxCell>
        <mxCell id="76yEp_k0Ww3UQ_fWosR0-1" value="" style="ellipse;whiteSpace=wrap;html=1;aspect=fixed;" parent="8BG0fOGD8Of8e3mBtdMV-1" vertex="1">
          <mxGeometry x="335.5" y="1011.5" width="7" height="7" as="geometry" />
        </mxCell>
        <mxCell id="76yEp_k0Ww3UQ_fWosR0-2" style="edgeStyle=orthogonalEdgeStyle;rounded=0;orthogonalLoop=1;jettySize=auto;html=1;endArrow=none;endFill=0;entryX=0.623;entryY=0.989;entryDx=0;entryDy=0;entryPerimeter=0;" parent="8BG0fOGD8Of8e3mBtdMV-1" source="76yEp_k0Ww3UQ_fWosR0-3" edge="1">
          <mxGeometry relative="1" as="geometry">
            <mxPoint x="375" y="988" as="targetPoint" />
            <Array as="points">
              <mxPoint x="375" y="992" />
              <mxPoint x="375" y="992" />
            </Array>
          </mxGeometry>
        </mxCell>
        <mxCell id="76yEp_k0Ww3UQ_fWosR0-3" value="" style="ellipse;whiteSpace=wrap;html=1;aspect=fixed;" parent="8BG0fOGD8Of8e3mBtdMV-1" vertex="1">
          <mxGeometry x="371.5" y="1011.5" width="7" height="7" as="geometry" />
        </mxCell>
        <mxCell id="rie2V8sK27GLRcNZtGxI-0" value="" style="shape=waypoint;sketch=0;size=6;pointerEvents=1;points=[];fillColor=none;resizable=0;rotatable=0;perimeter=centerPerimeter;snapToPoint=1;" parent="8BG0fOGD8Of8e3mBtdMV-1" vertex="1">
          <mxGeometry x="447" y="932" width="20" height="20" as="geometry" />
        </mxCell>
        <mxCell id="rie2V8sK27GLRcNZtGxI-1" value="" style="endArrow=none;html=1;rounded=0;entryX=1.018;entryY=0.003;entryDx=0;entryDy=0;entryPerimeter=0;" parent="8BG0fOGD8Of8e3mBtdMV-1" edge="1">
          <mxGeometry width="50" height="50" relative="1" as="geometry">
            <mxPoint x="459" y="1044" as="sourcePoint" />
            <mxPoint x="456.4000000000001" y="939.5899999999999" as="targetPoint" />
          </mxGeometry>
        </mxCell>
        <mxCell id="ptc5ClG6x2B-NeqX_qr0-0" value="corso_laurea" style="whiteSpace=wrap;html=1;align=center;" parent="8BG0fOGD8Of8e3mBtdMV-1" vertex="1">
          <mxGeometry x="250" y="150" width="100" height="40" as="geometry" />
        </mxCell>
        <mxCell id="ptc5ClG6x2B-NeqX_qr0-1" value="IDCorso" style="text;html=1;align=center;verticalAlign=middle;resizable=0;points=[];autosize=1;strokeColor=none;fillColor=none;fontStyle=4" parent="8BG0fOGD8Of8e3mBtdMV-1" vertex="1">
          <mxGeometry x="267.5" y="29.04" width="70" height="30" as="geometry" />
        </mxCell>
        <mxCell id="ptc5ClG6x2B-NeqX_qr0-2" value="nome" style="text;html=1;align=center;verticalAlign=middle;resizable=0;points=[];autosize=1;strokeColor=none;fillColor=none;" parent="8BG0fOGD8Of8e3mBtdMV-1" vertex="1">
          <mxGeometry x="287.5" y="59.04" width="50" height="30" as="geometry" />
        </mxCell>
        <mxCell id="ptc5ClG6x2B-NeqX_qr0-3" value="anniTotali" style="text;html=1;align=center;verticalAlign=middle;resizable=0;points=[];autosize=1;strokeColor=none;fillColor=none;" parent="8BG0fOGD8Of8e3mBtdMV-1" vertex="1">
          <mxGeometry x="307.5" y="87.04" width="70" height="30" as="geometry" />
        </mxCell>
        <mxCell id="ptc5ClG6x2B-NeqX_qr0-4" value="" style="shape=waypoint;sketch=0;fillStyle=solid;size=6;pointerEvents=1;points=[];fillColor=none;resizable=0;rotatable=0;perimeter=centerPerimeter;snapToPoint=1;" parent="8BG0fOGD8Of8e3mBtdMV-1" vertex="1">
          <mxGeometry x="277.5" y="49.04" width="20" height="20" as="geometry" />
        </mxCell>
        <mxCell id="ptc5ClG6x2B-NeqX_qr0-5" value="" style="endArrow=none;html=1;rounded=0;" parent="8BG0fOGD8Of8e3mBtdMV-1" target="ptc5ClG6x2B-NeqX_qr0-4" edge="1">
          <mxGeometry width="50" height="50" relative="1" as="geometry">
            <mxPoint x="287.5" y="149.04" as="sourcePoint" />
            <mxPoint x="307.5" y="85.04" as="targetPoint" />
          </mxGeometry>
        </mxCell>
        <mxCell id="ptc5ClG6x2B-NeqX_qr0-6" value="" style="endArrow=none;html=1;rounded=0;exitX=0.201;exitY=0.048;exitDx=0;exitDy=0;exitPerimeter=0;" parent="8BG0fOGD8Of8e3mBtdMV-1" edge="1">
          <mxGeometry width="50" height="50" relative="1" as="geometry">
            <mxPoint x="302.5999999999999" y="150.96000000000006" as="sourcePoint" />
            <mxPoint x="302.5" y="85.04000000000005" as="targetPoint" />
          </mxGeometry>
        </mxCell>
        <mxCell id="ptc5ClG6x2B-NeqX_qr0-7" value="" style="endArrow=none;html=1;rounded=0;entryX=0.417;entryY=0.695;entryDx=0;entryDy=0;entryPerimeter=0;exitX=0.453;exitY=-0.025;exitDx=0;exitDy=0;exitPerimeter=0;" parent="8BG0fOGD8Of8e3mBtdMV-1" edge="1">
          <mxGeometry width="50" height="50" relative="1" as="geometry">
            <mxPoint x="327.7999999999997" y="148.04" as="sourcePoint" />
            <mxPoint x="327.5" y="115.04000000000002" as="targetPoint" />
          </mxGeometry>
        </mxCell>
        <mxCell id="ptc5ClG6x2B-NeqX_qr0-8" value="attivo" style="text;html=1;align=center;verticalAlign=middle;resizable=0;points=[];autosize=1;strokeColor=none;fillColor=none;" parent="8BG0fOGD8Of8e3mBtdMV-1" vertex="1">
          <mxGeometry x="250" y="210" width="50" height="30" as="geometry" />
        </mxCell>
        <mxCell id="ptc5ClG6x2B-NeqX_qr0-9" value="" style="endArrow=none;html=1;rounded=0;exitX=0.104;exitY=1.042;exitDx=0;exitDy=0;exitPerimeter=0;" parent="8BG0fOGD8Of8e3mBtdMV-1" edge="1">
          <mxGeometry width="50" height="50" relative="1" as="geometry">
            <mxPoint x="285.4000000000001" y="189.16" as="sourcePoint" />
            <mxPoint x="285" y="210" as="targetPoint" />
          </mxGeometry>
        </mxCell>
        <mxCell id="ptc5ClG6x2B-NeqX_qr0-10" value="valoreLode" style="text;html=1;align=center;verticalAlign=middle;resizable=0;points=[];autosize=1;strokeColor=none;fillColor=none;" parent="8BG0fOGD8Of8e3mBtdMV-1" vertex="1">
          <mxGeometry x="300" y="212" width="80" height="30" as="geometry" />
        </mxCell>
        <mxCell id="ptc5ClG6x2B-NeqX_qr0-11" style="edgeStyle=orthogonalEdgeStyle;rounded=0;orthogonalLoop=1;jettySize=auto;html=1;entryX=0.407;entryY=0.988;entryDx=0;entryDy=0;entryPerimeter=0;endArrow=none;endFill=0;" parent="8BG0fOGD8Of8e3mBtdMV-1" edge="1">
          <mxGeometry relative="1" as="geometry">
            <mxPoint x="315.6999999999998" y="189.99999999999997" as="targetPoint" />
            <mxPoint x="315" y="209.48000000000002" as="sourcePoint" />
          </mxGeometry>
        </mxCell>
        <mxCell id="ptc5ClG6x2B-NeqX_qr0-12" value="" style="ellipse;whiteSpace=wrap;html=1;aspect=fixed;" parent="8BG0fOGD8Of8e3mBtdMV-1" vertex="1">
          <mxGeometry x="282.5" y="208" width="7" height="7" as="geometry" />
        </mxCell>
        <mxCell id="ptc5ClG6x2B-NeqX_qr0-13" value="" style="ellipse;whiteSpace=wrap;html=1;aspect=fixed;" parent="8BG0fOGD8Of8e3mBtdMV-1" vertex="1">
          <mxGeometry x="311.5" y="208" width="7" height="7" as="geometry" />
        </mxCell>
        <mxCell id="ptc5ClG6x2B-NeqX_qr0-14" value="" style="ellipse;whiteSpace=wrap;html=1;aspect=fixed;" parent="8BG0fOGD8Of8e3mBtdMV-1" vertex="1">
          <mxGeometry x="323" y="110.04" width="7" height="7" as="geometry" />
        </mxCell>
        <mxCell id="ptc5ClG6x2B-NeqX_qr0-15" value="" style="ellipse;whiteSpace=wrap;html=1;aspect=fixed;" parent="8BG0fOGD8Of8e3mBtdMV-1" vertex="1">
          <mxGeometry x="300" y="80.04" width="7" height="7" as="geometry" />
        </mxCell>
        <mxCell id="BLCUnH57tIbt14RoEKnB-0" value="anno" style="text;html=1;align=center;verticalAlign=middle;resizable=0;points=[];autosize=1;strokeColor=none;fillColor=none;" parent="8BG0fOGD8Of8e3mBtdMV-1" vertex="1">
          <mxGeometry x="520" y="104" width="50" height="30" as="geometry" />
        </mxCell>
        <mxCell id="BLCUnH57tIbt14RoEKnB-1" value="" style="endArrow=none;html=1;rounded=0;entryX=0.372;entryY=0.406;entryDx=0;entryDy=0;entryPerimeter=0;" parent="8BG0fOGD8Of8e3mBtdMV-1" edge="1">
          <mxGeometry width="50" height="50" relative="1" as="geometry">
            <mxPoint x="546" y="160" as="sourcePoint" />
            <mxPoint x="546" y="128" as="targetPoint" />
          </mxGeometry>
        </mxCell>
        <mxCell id="BLCUnH57tIbt14RoEKnB-2" value="" style="shape=waypoint;sketch=0;fillStyle=solid;size=6;pointerEvents=1;points=[];fillColor=none;resizable=0;rotatable=0;perimeter=centerPerimeter;snapToPoint=1;" parent="8BG0fOGD8Of8e3mBtdMV-1" vertex="1">
          <mxGeometry x="570" y="178" width="20" height="20" as="geometry" />
        </mxCell>
        <mxCell id="BLCUnH57tIbt14RoEKnB-3" value="" style="endArrow=none;html=1;rounded=0;" parent="8BG0fOGD8Of8e3mBtdMV-1" source="BLCUnH57tIbt14RoEKnB-2" edge="1">
          <mxGeometry width="50" height="50" relative="1" as="geometry">
            <mxPoint x="550" y="240" as="sourcePoint" />
            <mxPoint x="580" y="100" as="targetPoint" />
          </mxGeometry>
        </mxCell>
        <mxCell id="BLCUnH57tIbt14RoEKnB-4" value="" style="endArrow=none;html=1;rounded=0;" parent="8BG0fOGD8Of8e3mBtdMV-1" edge="1">
          <mxGeometry width="50" height="50" relative="1" as="geometry">
            <mxPoint x="420" y="100" as="sourcePoint" />
            <mxPoint x="580" y="100" as="targetPoint" />
          </mxGeometry>
        </mxCell>
        <mxCell id="BLCUnH57tIbt14RoEKnB-5" value="" style="endArrow=none;html=1;rounded=0;" parent="8BG0fOGD8Of8e3mBtdMV-1" edge="1">
          <mxGeometry width="50" height="50" relative="1" as="geometry">
            <mxPoint x="420" y="190" as="sourcePoint" />
            <mxPoint x="420" y="100" as="targetPoint" />
          </mxGeometry>
        </mxCell>
        <mxCell id="v4awI-vOiwdZ-Vb9N2Dd-0" value="" style="ellipse;whiteSpace=wrap;html=1;aspect=fixed;" parent="8BG0fOGD8Of8e3mBtdMV-1" vertex="1">
          <mxGeometry x="543" y="125.03999999999999" width="7" height="7" as="geometry" />
        </mxCell>
        <mxCell id="1Gtoqn3a7T2-MtDvgWGY-0" value="nome" style="text;html=1;align=center;verticalAlign=middle;resizable=0;points=[];autosize=1;strokeColor=none;fillColor=none;" parent="8BG0fOGD8Of8e3mBtdMV-1" vertex="1">
          <mxGeometry x="490" y="245" width="50" height="30" as="geometry" />
        </mxCell>
        <mxCell id="1Gtoqn3a7T2-MtDvgWGY-1" style="edgeStyle=orthogonalEdgeStyle;rounded=0;orthogonalLoop=1;jettySize=auto;html=1;endArrow=none;endFill=0;" parent="8BG0fOGD8Of8e3mBtdMV-1" source="1Gtoqn3a7T2-MtDvgWGY-8" edge="1">
          <mxGeometry relative="1" as="geometry">
            <mxPoint x="570" y="247" as="targetPoint" />
            <Array as="points">
              <mxPoint x="540" y="247" />
            </Array>
            <mxPoint x="540" y="260" as="sourcePoint" />
          </mxGeometry>
        </mxCell>
        <mxCell id="1Gtoqn3a7T2-MtDvgWGY-2" style="edgeStyle=orthogonalEdgeStyle;rounded=0;orthogonalLoop=1;jettySize=auto;html=1;endArrow=none;endFill=0;" parent="8BG0fOGD8Of8e3mBtdMV-1" source="1Gtoqn3a7T2-MtDvgWGY-3" edge="1">
          <mxGeometry relative="1" as="geometry">
            <mxPoint x="570" y="240" as="targetPoint" />
            <Array as="points">
              <mxPoint x="570" y="238" />
            </Array>
          </mxGeometry>
        </mxCell>
        <mxCell id="1Gtoqn3a7T2-MtDvgWGY-3" value="" style="ellipse;whiteSpace=wrap;html=1;aspect=fixed;" parent="8BG0fOGD8Of8e3mBtdMV-1" vertex="1">
          <mxGeometry x="535" y="233" width="7" height="7" as="geometry" />
        </mxCell>
        <mxCell id="1Gtoqn3a7T2-MtDvgWGY-4" value="crediti" style="text;html=1;align=center;verticalAlign=middle;resizable=0;points=[];autosize=1;strokeColor=none;fillColor=none;" parent="8BG0fOGD8Of8e3mBtdMV-1" vertex="1">
          <mxGeometry x="490" y="275" width="60" height="30" as="geometry" />
        </mxCell>
        <mxCell id="1Gtoqn3a7T2-MtDvgWGY-5" style="edgeStyle=orthogonalEdgeStyle;rounded=0;orthogonalLoop=1;jettySize=auto;html=1;entryX=0.116;entryY=1.053;entryDx=0;entryDy=0;entryPerimeter=0;endArrow=none;endFill=0;" parent="8BG0fOGD8Of8e3mBtdMV-1" edge="1">
          <mxGeometry relative="1" as="geometry">
            <mxPoint x="545" y="290" as="sourcePoint" />
            <mxPoint x="582" y="252" as="targetPoint" />
          </mxGeometry>
        </mxCell>
        <mxCell id="1Gtoqn3a7T2-MtDvgWGY-6" value="annoAttivazione" style="text;html=1;align=center;verticalAlign=middle;resizable=0;points=[];autosize=1;strokeColor=none;fillColor=none;" parent="8BG0fOGD8Of8e3mBtdMV-1" vertex="1">
          <mxGeometry x="467" y="300" width="110" height="30" as="geometry" />
        </mxCell>
        <mxCell id="1Gtoqn3a7T2-MtDvgWGY-7" style="edgeStyle=orthogonalEdgeStyle;rounded=0;orthogonalLoop=1;jettySize=auto;html=1;entryX=0.25;entryY=1;entryDx=0;entryDy=0;endArrow=none;endFill=0;" parent="8BG0fOGD8Of8e3mBtdMV-1" source="1Gtoqn3a7T2-MtDvgWGY-10" edge="1">
          <mxGeometry relative="1" as="geometry">
            <Array as="points">
              <mxPoint x="595" y="315" />
            </Array>
            <mxPoint x="575" y="315" as="sourcePoint" />
            <mxPoint x="595" y="250" as="targetPoint" />
          </mxGeometry>
        </mxCell>
        <mxCell id="1Gtoqn3a7T2-MtDvgWGY-8" value="" style="ellipse;whiteSpace=wrap;html=1;aspect=fixed;" parent="8BG0fOGD8Of8e3mBtdMV-1" vertex="1">
          <mxGeometry x="536.5" y="256.5" width="7" height="7" as="geometry" />
        </mxCell>
        <mxCell id="1Gtoqn3a7T2-MtDvgWGY-9" value="" style="ellipse;whiteSpace=wrap;html=1;aspect=fixed;" parent="8BG0fOGD8Of8e3mBtdMV-1" vertex="1">
          <mxGeometry x="540" y="285" width="7" height="7" as="geometry" />
        </mxCell>
        <mxCell id="1Gtoqn3a7T2-MtDvgWGY-10" value="" style="ellipse;whiteSpace=wrap;html=1;aspect=fixed;" parent="8BG0fOGD8Of8e3mBtdMV-1" vertex="1">
          <mxGeometry x="570" y="311.5" width="7" height="7" as="geometry" />
        </mxCell>
        <mxCell id="E2A-FYLP_tAy_OMkdAN3-0" value="" style="endArrow=none;html=1;rounded=0;entryX=0.43;entryY=0.68;entryDx=0;entryDy=0;entryPerimeter=0;" parent="8BG0fOGD8Of8e3mBtdMV-1" edge="1">
          <mxGeometry width="50" height="50" relative="1" as="geometry">
            <mxPoint x="800" y="200" as="sourcePoint" />
            <mxPoint x="919" y="200" as="targetPoint" />
          </mxGeometry>
        </mxCell>
        <mxCell id="E2A-FYLP_tAy_OMkdAN3-1" value="" style="endArrow=none;html=1;rounded=0;" parent="8BG0fOGD8Of8e3mBtdMV-1" edge="1">
          <mxGeometry width="50" height="50" relative="1" as="geometry">
            <mxPoint x="800" y="280" as="sourcePoint" />
            <mxPoint x="800" y="200" as="targetPoint" />
          </mxGeometry>
        </mxCell>
        <mxCell id="E2A-FYLP_tAy_OMkdAN3-2" value="" style="endArrow=none;html=1;rounded=0;" parent="8BG0fOGD8Of8e3mBtdMV-1" edge="1">
          <mxGeometry width="50" height="50" relative="1" as="geometry">
            <mxPoint x="800" y="280" as="sourcePoint" />
            <mxPoint x="910" y="280" as="targetPoint" />
            <Array as="points">
              <mxPoint x="850" y="280" />
            </Array>
          </mxGeometry>
        </mxCell>
        <mxCell id="xnUlpdj-8zvysU3fHgc3-0" value="" style="shape=waypoint;sketch=0;fillStyle=solid;size=6;pointerEvents=1;points=[];fillColor=none;resizable=0;rotatable=0;perimeter=centerPerimeter;snapToPoint=1;" parent="8BG0fOGD8Of8e3mBtdMV-1" vertex="1">
          <mxGeometry x="909" y="190" width="20" height="20" as="geometry" />
        </mxCell>
        <mxCell id="sfYsTDg2t7zMl0j8Gl5o-0" value="lode" style="text;html=1;align=center;verticalAlign=middle;resizable=0;points=[];autosize=1;strokeColor=none;fillColor=none;" parent="8BG0fOGD8Of8e3mBtdMV-1" vertex="1">
          <mxGeometry x="740.25" y="572" width="50" height="30" as="geometry" />
        </mxCell>
        <mxCell id="sfYsTDg2t7zMl0j8Gl5o-1" value="" style="shape=waypoint;sketch=0;size=6;pointerEvents=1;points=[];fillColor=none;resizable=0;rotatable=0;perimeter=centerPerimeter;snapToPoint=1;" parent="8BG0fOGD8Of8e3mBtdMV-1" vertex="1">
          <mxGeometry x="887.25" y="517" width="20" height="20" as="geometry" />
        </mxCell>
        <mxCell id="sfYsTDg2t7zMl0j8Gl5o-2" value="stato" style="text;html=1;align=center;verticalAlign=middle;resizable=0;points=[];autosize=1;strokeColor=none;fillColor=none;" parent="8BG0fOGD8Of8e3mBtdMV-1" vertex="1">
          <mxGeometry x="830.75" y="572" width="50" height="30" as="geometry" />
        </mxCell>
        <mxCell id="sfYsTDg2t7zMl0j8Gl5o-3" style="edgeStyle=orthogonalEdgeStyle;rounded=0;orthogonalLoop=1;jettySize=auto;html=1;entryX=0;entryY=1;entryDx=0;entryDy=0;endArrow=none;endFill=0;" parent="8BG0fOGD8Of8e3mBtdMV-1" edge="1">
          <mxGeometry relative="1" as="geometry">
            <mxPoint x="787.75" y="587" as="sourcePoint" />
            <mxPoint x="787.75" y="566" as="targetPoint" />
          </mxGeometry>
        </mxCell>
        <mxCell id="sfYsTDg2t7zMl0j8Gl5o-4" style="edgeStyle=orthogonalEdgeStyle;rounded=0;orthogonalLoop=1;jettySize=auto;html=1;entryX=0.625;entryY=0.874;entryDx=0;entryDy=0;entryPerimeter=0;endArrow=none;endFill=0;" parent="8BG0fOGD8Of8e3mBtdMV-1" edge="1">
          <mxGeometry relative="1" as="geometry">
            <mxPoint x="832.75" y="587" as="sourcePoint" />
            <mxPoint x="832.75" y="573" as="targetPoint" />
          </mxGeometry>
        </mxCell>
        <mxCell id="sfYsTDg2t7zMl0j8Gl5o-5" value="voto" style="text;html=1;align=center;verticalAlign=middle;resizable=0;points=[];autosize=1;strokeColor=none;fillColor=none;" parent="8BG0fOGD8Of8e3mBtdMV-1" vertex="1">
          <mxGeometry x="732.75" y="507" width="50" height="30" as="geometry" />
        </mxCell>
        <mxCell id="sfYsTDg2t7zMl0j8Gl5o-13" style="edgeStyle=orthogonalEdgeStyle;rounded=0;orthogonalLoop=1;jettySize=auto;html=1;entryX=0.314;entryY=0.161;entryDx=0;entryDy=0;entryPerimeter=0;endArrow=none;endFill=0;" parent="8BG0fOGD8Of8e3mBtdMV-1" source="sfYsTDg2t7zMl0j8Gl5o-7" target="8BG0fOGD8Of8e3mBtdMV-52" edge="1">
          <mxGeometry relative="1" as="geometry">
            <Array as="points">
              <mxPoint x="795" y="520" />
            </Array>
          </mxGeometry>
        </mxCell>
        <mxCell id="sfYsTDg2t7zMl0j8Gl5o-7" value="" style="ellipse;whiteSpace=wrap;html=1;aspect=fixed;" parent="8BG0fOGD8Of8e3mBtdMV-1" vertex="1">
          <mxGeometry x="775.75" y="519" width="7" height="7" as="geometry" />
        </mxCell>
        <mxCell id="sfYsTDg2t7zMl0j8Gl5o-8" value="" style="ellipse;whiteSpace=wrap;html=1;aspect=fixed;" parent="8BG0fOGD8Of8e3mBtdMV-1" vertex="1">
          <mxGeometry x="784.25" y="584.5" width="7" height="7" as="geometry" />
        </mxCell>
        <mxCell id="sfYsTDg2t7zMl0j8Gl5o-9" value="" style="ellipse;whiteSpace=wrap;html=1;aspect=fixed;" parent="8BG0fOGD8Of8e3mBtdMV-1" vertex="1">
          <mxGeometry x="829.25" y="585.5" width="7" height="7" as="geometry" />
        </mxCell>
        <mxCell id="sfYsTDg2t7zMl0j8Gl5o-10" value="" style="endArrow=none;html=1;rounded=0;exitX=0.577;exitY=0.686;exitDx=0;exitDy=0;exitPerimeter=0;" parent="8BG0fOGD8Of8e3mBtdMV-1" source="sfYsTDg2t7zMl0j8Gl5o-1" edge="1">
          <mxGeometry width="50" height="50" relative="1" as="geometry">
            <mxPoint x="727.75" y="609" as="sourcePoint" />
            <mxPoint x="897.75" y="609" as="targetPoint" />
            <Array as="points">
              <mxPoint x="897.75" y="569" />
            </Array>
          </mxGeometry>
        </mxCell>
        <mxCell id="sfYsTDg2t7zMl0j8Gl5o-11" value="" style="endArrow=none;html=1;rounded=0;" parent="8BG0fOGD8Of8e3mBtdMV-1" edge="1">
          <mxGeometry width="50" height="50" relative="1" as="geometry">
            <mxPoint x="727.75" y="609" as="sourcePoint" />
            <mxPoint x="897.75" y="609" as="targetPoint" />
          </mxGeometry>
        </mxCell>
        <mxCell id="sfYsTDg2t7zMl0j8Gl5o-12" value="" style="endArrow=none;html=1;rounded=0;" parent="8BG0fOGD8Of8e3mBtdMV-1" edge="1">
          <mxGeometry width="50" height="50" relative="1" as="geometry">
            <mxPoint x="727.75" y="609" as="sourcePoint" />
            <mxPoint x="727.75" y="539" as="targetPoint" />
          </mxGeometry>
        </mxCell>
        <mxCell id="mfota4W_3HeJpYJiYZn0-2" style="edgeStyle=orthogonalEdgeStyle;rounded=0;orthogonalLoop=1;jettySize=auto;html=1;endArrow=none;endFill=0;" parent="8BG0fOGD8Of8e3mBtdMV-1" source="mfota4W_3HeJpYJiYZn0-0" edge="1">
          <mxGeometry relative="1" as="geometry">
            <mxPoint x="1043" y="568" as="targetPoint" />
          </mxGeometry>
        </mxCell>
        <mxCell id="mfota4W_3HeJpYJiYZn0-0" value="" style="ellipse;whiteSpace=wrap;html=1;aspect=fixed;" parent="8BG0fOGD8Of8e3mBtdMV-1" vertex="1">
          <mxGeometry x="1039.5" y="583.5" width="7" height="7" as="geometry" />
        </mxCell>
        <mxCell id="yl0p7okcxdcBhSiyZVLr-0" value="dataImmatricolazione" style="text;html=1;align=center;verticalAlign=middle;resizable=0;points=[];autosize=1;strokeColor=none;fillColor=none;" parent="8BG0fOGD8Of8e3mBtdMV-1" vertex="1">
          <mxGeometry x="432.5" y="534" width="140" height="30" as="geometry" />
        </mxCell>
        <mxCell id="yl0p7okcxdcBhSiyZVLr-4" style="edgeStyle=orthogonalEdgeStyle;rounded=0;orthogonalLoop=1;jettySize=auto;html=1;entryX=0.158;entryY=0.339;entryDx=0;entryDy=0;entryPerimeter=0;endArrow=none;endFill=0;" parent="8BG0fOGD8Of8e3mBtdMV-1" source="yl0p7okcxdcBhSiyZVLr-3" target="8BG0fOGD8Of8e3mBtdMV-145" edge="1">
          <mxGeometry relative="1" as="geometry" />
        </mxCell>
        <mxCell id="yl0p7okcxdcBhSiyZVLr-3" value="" style="ellipse;whiteSpace=wrap;html=1;aspect=fixed;" parent="8BG0fOGD8Of8e3mBtdMV-1" vertex="1">
          <mxGeometry x="566.5" y="547" width="7" height="7" as="geometry" />
        </mxCell>
        <mxCell id="2tY_0totb3_0HgcU7dh3-21" value="" style="endArrow=none;html=1;rounded=0;entryX=0.296;entryY=0.985;entryDx=0;entryDy=0;entryPerimeter=0;" parent="8BG0fOGD8Of8e3mBtdMV-1" target="8BG0fOGD8Of8e3mBtdMV-3" edge="1">
          <mxGeometry width="50" height="50" relative="1" as="geometry">
            <mxPoint x="261.5" y="663" as="sourcePoint" />
            <mxPoint x="261.5" y="635" as="targetPoint" />
          </mxGeometry>
        </mxCell>
        <mxCell id="2tY_0totb3_0HgcU7dh3-22" value="" style="shape=waypoint;sketch=0;fillStyle=solid;size=6;pointerEvents=1;points=[];fillColor=none;resizable=0;rotatable=0;perimeter=centerPerimeter;snapToPoint=1;" parent="8BG0fOGD8Of8e3mBtdMV-1" vertex="1">
          <mxGeometry x="251.5" y="653" width="20" height="20" as="geometry" />
        </mxCell>
        <mxCell id="2tY_0totb3_0HgcU7dh3-23" value="nome" style="text;html=1;align=center;verticalAlign=middle;resizable=0;points=[];autosize=1;strokeColor=none;fillColor=none;" parent="8BG0fOGD8Of8e3mBtdMV-1" vertex="1">
          <mxGeometry x="180.25" y="663" width="50" height="30" as="geometry" />
        </mxCell>
        <mxCell id="2tY_0totb3_0HgcU7dh3-24" value="" style="endArrow=none;html=1;rounded=0;exitX=0.744;exitY=0.208;exitDx=0;exitDy=0;exitPerimeter=0;entryX=0;entryY=0.867;entryDx=0;entryDy=0;entryPerimeter=0;" parent="8BG0fOGD8Of8e3mBtdMV-1" source="2tY_0totb3_0HgcU7dh3-34" edge="1">
          <mxGeometry width="50" height="50" relative="1" as="geometry">
            <mxPoint x="200.25" y="640" as="sourcePoint" />
            <mxPoint x="232.75" y="628" as="targetPoint" />
          </mxGeometry>
        </mxCell>
        <mxCell id="2tY_0totb3_0HgcU7dh3-25" value="cognome" style="text;html=1;align=center;verticalAlign=middle;resizable=0;points=[];autosize=1;strokeColor=none;fillColor=none;" parent="8BG0fOGD8Of8e3mBtdMV-1" vertex="1">
          <mxGeometry x="139.5" y="640" width="70" height="30" as="geometry" />
        </mxCell>
        <mxCell id="2tY_0totb3_0HgcU7dh3-26" value="" style="endArrow=none;html=1;rounded=0;" parent="8BG0fOGD8Of8e3mBtdMV-1" source="2tY_0totb3_0HgcU7dh3-32" edge="1">
          <mxGeometry width="50" height="50" relative="1" as="geometry">
            <mxPoint x="202.75" y="607" as="sourcePoint" />
            <mxPoint x="232.75" y="607" as="targetPoint" />
          </mxGeometry>
        </mxCell>
        <mxCell id="2tY_0totb3_0HgcU7dh3-27" value="email" style="text;html=1;align=center;verticalAlign=middle;resizable=0;points=[];autosize=1;strokeColor=none;fillColor=none;" parent="8BG0fOGD8Of8e3mBtdMV-1" vertex="1">
          <mxGeometry x="152.75" y="591" width="50" height="30" as="geometry" />
        </mxCell>
        <mxCell id="2tY_0totb3_0HgcU7dh3-28" value="" style="endArrow=none;html=1;rounded=0;" parent="8BG0fOGD8Of8e3mBtdMV-1" edge="1">
          <mxGeometry width="50" height="50" relative="1" as="geometry">
            <mxPoint x="202.75" y="627" as="sourcePoint" />
            <mxPoint x="232.75" y="627" as="targetPoint" />
          </mxGeometry>
        </mxCell>
        <mxCell id="2tY_0totb3_0HgcU7dh3-29" value="password" style="text;html=1;align=center;verticalAlign=middle;resizable=0;points=[];autosize=1;strokeColor=none;fillColor=none;" parent="8BG0fOGD8Of8e3mBtdMV-1" vertex="1">
          <mxGeometry x="132.25" y="610" width="70" height="30" as="geometry" />
        </mxCell>
        <mxCell id="2tY_0totb3_0HgcU7dh3-30" value="IDUtente" style="text;html=1;align=center;verticalAlign=middle;resizable=0;points=[];autosize=1;strokeColor=none;fillColor=none;fontStyle=4" parent="8BG0fOGD8Of8e3mBtdMV-1" vertex="1">
          <mxGeometry x="221.5" y="663" width="70" height="30" as="geometry" />
        </mxCell>
        <mxCell id="2tY_0totb3_0HgcU7dh3-31" value="" style="endArrow=none;html=1;rounded=0;" parent="8BG0fOGD8Of8e3mBtdMV-1" target="2tY_0totb3_0HgcU7dh3-32" edge="1">
          <mxGeometry width="50" height="50" relative="1" as="geometry">
            <mxPoint x="202.75" y="602" as="sourcePoint" />
            <mxPoint x="232.75" y="602" as="targetPoint" />
          </mxGeometry>
        </mxCell>
        <mxCell id="2tY_0totb3_0HgcU7dh3-32" value="" style="ellipse;whiteSpace=wrap;html=1;aspect=fixed;" parent="8BG0fOGD8Of8e3mBtdMV-1" vertex="1">
          <mxGeometry x="200.25" y="603" width="7" height="7" as="geometry" />
        </mxCell>
        <mxCell id="2tY_0totb3_0HgcU7dh3-33" value="" style="ellipse;whiteSpace=wrap;html=1;aspect=fixed;" parent="8BG0fOGD8Of8e3mBtdMV-1" vertex="1">
          <mxGeometry x="200.25" y="623.5" width="7" height="7" as="geometry" />
        </mxCell>
        <mxCell id="2tY_0totb3_0HgcU7dh3-34" value="" style="ellipse;whiteSpace=wrap;html=1;aspect=fixed;" parent="8BG0fOGD8Of8e3mBtdMV-1" vertex="1">
          <mxGeometry x="202.75" y="644.5" width="7" height="7" as="geometry" />
        </mxCell>
        <mxCell id="2tY_0totb3_0HgcU7dh3-35" value="" style="endArrow=none;html=1;rounded=0;exitX=0;exitY=1;exitDx=0;exitDy=0;" parent="8BG0fOGD8Of8e3mBtdMV-1" target="2tY_0totb3_0HgcU7dh3-36" edge="1">
          <mxGeometry width="50" height="50" relative="1" as="geometry">
            <mxPoint x="232.75" y="633" as="sourcePoint" />
            <mxPoint x="192.74999999999977" y="658" as="targetPoint" />
          </mxGeometry>
        </mxCell>
        <mxCell id="2tY_0totb3_0HgcU7dh3-36" value="" style="ellipse;whiteSpace=wrap;html=1;aspect=fixed;" parent="8BG0fOGD8Of8e3mBtdMV-1" vertex="1">
          <mxGeometry x="214.5" y="663" width="7" height="7" as="geometry" />
        </mxCell>
        <mxCell id="2tY_0totb3_0HgcU7dh3-37" value="cellulare" style="text;html=1;align=center;verticalAlign=middle;resizable=0;points=[];autosize=1;strokeColor=none;fillColor=none;" parent="8BG0fOGD8Of8e3mBtdMV-1" vertex="1">
          <mxGeometry x="139.75" y="573" width="70" height="30" as="geometry" />
        </mxCell>
        <mxCell id="2tY_0totb3_0HgcU7dh3-38" style="edgeStyle=orthogonalEdgeStyle;rounded=0;orthogonalLoop=1;jettySize=auto;html=1;entryX=0;entryY=0;entryDx=0;entryDy=0;endArrow=none;endFill=0;" parent="8BG0fOGD8Of8e3mBtdMV-1" source="2tY_0totb3_0HgcU7dh3-39" target="8BG0fOGD8Of8e3mBtdMV-3" edge="1">
          <mxGeometry relative="1" as="geometry">
            <mxPoint x="233.75" y="596" as="targetPoint" />
            <Array as="points">
              <mxPoint x="230" y="590" />
              <mxPoint x="233" y="590" />
            </Array>
          </mxGeometry>
        </mxCell>
        <mxCell id="2tY_0totb3_0HgcU7dh3-39" value="" style="ellipse;whiteSpace=wrap;html=1;aspect=fixed;" parent="8BG0fOGD8Of8e3mBtdMV-1" vertex="1">
          <mxGeometry x="202.75" y="586" width="7" height="7" as="geometry" />
        </mxCell>
        <mxCell id="YAfTxS5WWM58vG7oZU0y-0" value="codiceFiscale" style="text;html=1;align=center;verticalAlign=middle;resizable=0;points=[];autosize=1;strokeColor=none;fillColor=none;" parent="8BG0fOGD8Of8e3mBtdMV-1" vertex="1">
          <mxGeometry x="470" y="668" width="100" height="30" as="geometry" />
        </mxCell>
        <mxCell id="YAfTxS5WWM58vG7oZU0y-1" style="edgeStyle=orthogonalEdgeStyle;rounded=0;orthogonalLoop=1;jettySize=auto;html=1;endArrow=none;endFill=0;entryX=-0.004;entryY=0.873;entryDx=0;entryDy=0;entryPerimeter=0;" parent="8BG0fOGD8Of8e3mBtdMV-1" edge="1">
          <mxGeometry relative="1" as="geometry">
            <mxPoint x="585" y="683" as="targetPoint" />
            <mxPoint x="567" y="683" as="sourcePoint" />
          </mxGeometry>
        </mxCell>
        <mxCell id="YAfTxS5WWM58vG7oZU0y-2" value="" style="ellipse;whiteSpace=wrap;html=1;aspect=fixed;" parent="8BG0fOGD8Of8e3mBtdMV-1" vertex="1">
          <mxGeometry x="565" y="679.5" width="7" height="7" as="geometry" />
        </mxCell>
        <mxCell id="x7Yt5bJNIqVU0nxUXlPz-0" value="voto" style="text;html=1;align=center;verticalAlign=middle;resizable=0;points=[];autosize=1;strokeColor=none;fillColor=none;" parent="8BG0fOGD8Of8e3mBtdMV-1" vertex="1">
          <mxGeometry x="244" y="817.24" width="50" height="30" as="geometry" />
        </mxCell>
        <mxCell id="x7Yt5bJNIqVU0nxUXlPz-1" value="lode" style="text;html=1;align=center;verticalAlign=middle;resizable=0;points=[];autosize=1;strokeColor=none;fillColor=none;" parent="8BG0fOGD8Of8e3mBtdMV-1" vertex="1">
          <mxGeometry x="243" y="789" width="50" height="30" as="geometry" />
        </mxCell>
        <mxCell id="x7Yt5bJNIqVU0nxUXlPz-2" value="stato" style="text;html=1;align=center;verticalAlign=middle;resizable=0;points=[];autosize=1;strokeColor=none;fillColor=none;" parent="8BG0fOGD8Of8e3mBtdMV-1" vertex="1">
          <mxGeometry x="244" y="804.24" width="50" height="30" as="geometry" />
        </mxCell>
        <mxCell id="x7Yt5bJNIqVU0nxUXlPz-6" value="data" style="text;html=1;align=center;verticalAlign=middle;resizable=0;points=[];autosize=1;strokeColor=none;fillColor=none;" parent="8BG0fOGD8Of8e3mBtdMV-1" vertex="1">
          <mxGeometry x="442.5" y="801.5" width="50" height="30" as="geometry" />
        </mxCell>
        <mxCell id="x7Yt5bJNIqVU0nxUXlPz-8" value="" style="edgeStyle=orthogonalEdgeStyle;rounded=0;orthogonalLoop=1;jettySize=auto;html=1;entryX=0.117;entryY=0.371;entryDx=0;entryDy=0;entryPerimeter=0;endArrow=none;endFill=0;" parent="8BG0fOGD8Of8e3mBtdMV-1" target="x7Yt5bJNIqVU0nxUXlPz-9" edge="1">
          <mxGeometry relative="1" as="geometry">
            <mxPoint x="293" y="804" as="sourcePoint" />
            <mxPoint x="344.5" y="826.5" as="targetPoint" />
          </mxGeometry>
        </mxCell>
        <mxCell id="hcLIDiOPyytXkOGspdhJ-20" style="edgeStyle=orthogonalEdgeStyle;rounded=0;orthogonalLoop=1;jettySize=auto;html=1;" edge="1" parent="8BG0fOGD8Of8e3mBtdMV-1" source="x7Yt5bJNIqVU0nxUXlPz-9">
          <mxGeometry relative="1" as="geometry">
            <mxPoint x="306.18181355794263" y="804" as="targetPoint" />
          </mxGeometry>
        </mxCell>
        <mxCell id="x7Yt5bJNIqVU0nxUXlPz-9" value="" style="ellipse;whiteSpace=wrap;html=1;aspect=fixed;" parent="8BG0fOGD8Of8e3mBtdMV-1" vertex="1">
          <mxGeometry x="290.5" y="800.5" width="7" height="7" as="geometry" />
        </mxCell>
        <mxCell id="hcLIDiOPyytXkOGspdhJ-21" style="edgeStyle=orthogonalEdgeStyle;rounded=0;orthogonalLoop=1;jettySize=auto;html=1;entryX=0;entryY=0.5;entryDx=0;entryDy=0;" edge="1" parent="8BG0fOGD8Of8e3mBtdMV-1" source="x7Yt5bJNIqVU0nxUXlPz-10" target="hcLIDiOPyytXkOGspdhJ-9">
          <mxGeometry relative="1" as="geometry" />
        </mxCell>
        <mxCell id="x7Yt5bJNIqVU0nxUXlPz-10" value="" style="ellipse;whiteSpace=wrap;html=1;aspect=fixed;" parent="8BG0fOGD8Of8e3mBtdMV-1" vertex="1">
          <mxGeometry x="290.5" y="815.74" width="7" height="7" as="geometry" />
        </mxCell>
        <mxCell id="hcLIDiOPyytXkOGspdhJ-22" style="edgeStyle=orthogonalEdgeStyle;rounded=0;orthogonalLoop=1;jettySize=auto;html=1;entryX=0.002;entryY=0.804;entryDx=0;entryDy=0;entryPerimeter=0;" edge="1" parent="8BG0fOGD8Of8e3mBtdMV-1" source="x7Yt5bJNIqVU0nxUXlPz-11" target="hcLIDiOPyytXkOGspdhJ-9">
          <mxGeometry relative="1" as="geometry" />
        </mxCell>
        <mxCell id="x7Yt5bJNIqVU0nxUXlPz-11" value="" style="ellipse;whiteSpace=wrap;html=1;aspect=fixed;" parent="8BG0fOGD8Of8e3mBtdMV-1" vertex="1">
          <mxGeometry x="290.5" y="828.74" width="7" height="7" as="geometry" />
        </mxCell>
        <mxCell id="hcLIDiOPyytXkOGspdhJ-15" style="edgeStyle=orthogonalEdgeStyle;rounded=0;orthogonalLoop=1;jettySize=auto;html=1;entryX=1.003;entryY=0.641;entryDx=0;entryDy=0;entryPerimeter=0;endArrow=none;endFill=0;" edge="1" parent="8BG0fOGD8Of8e3mBtdMV-1" source="x7Yt5bJNIqVU0nxUXlPz-12">
          <mxGeometry relative="1" as="geometry">
            <mxPoint x="416.3209999999999" y="818.03734" as="targetPoint" />
            <Array as="points">
              <mxPoint x="427" y="817" />
              <mxPoint x="416" y="817" />
            </Array>
          </mxGeometry>
        </mxCell>
        <mxCell id="x7Yt5bJNIqVU0nxUXlPz-12" value="" style="ellipse;whiteSpace=wrap;html=1;aspect=fixed;" parent="8BG0fOGD8Of8e3mBtdMV-1" vertex="1">
          <mxGeometry x="447" y="813.76" width="7" height="7" as="geometry" />
        </mxCell>
        <mxCell id="00AzE-AbvhS1chxQrZSt-0" value="" style="endArrow=none;html=1;rounded=0;" parent="8BG0fOGD8Of8e3mBtdMV-1" edge="1">
          <mxGeometry width="50" height="50" relative="1" as="geometry">
            <mxPoint x="491" y="520" as="sourcePoint" />
            <mxPoint x="491" y="483" as="targetPoint" />
          </mxGeometry>
        </mxCell>
        <mxCell id="00AzE-AbvhS1chxQrZSt-1" value="" style="endArrow=none;html=1;rounded=0;" parent="8BG0fOGD8Of8e3mBtdMV-1" edge="1">
          <mxGeometry width="50" height="50" relative="1" as="geometry">
            <mxPoint x="371" y="520" as="sourcePoint" />
            <mxPoint x="491" y="520" as="targetPoint" />
          </mxGeometry>
        </mxCell>
        <mxCell id="00AzE-AbvhS1chxQrZSt-2" value="" style="endArrow=none;html=1;rounded=0;" parent="8BG0fOGD8Of8e3mBtdMV-1" edge="1">
          <mxGeometry width="50" height="50" relative="1" as="geometry">
            <mxPoint x="370" y="520" as="sourcePoint" />
            <mxPoint x="370" y="450" as="targetPoint" />
          </mxGeometry>
        </mxCell>
        <mxCell id="00AzE-AbvhS1chxQrZSt-3" value="" style="endArrow=none;html=1;rounded=0;" parent="8BG0fOGD8Of8e3mBtdMV-1" edge="1">
          <mxGeometry width="50" height="50" relative="1" as="geometry">
            <mxPoint x="440" y="450" as="sourcePoint" />
            <mxPoint x="370" y="450" as="targetPoint" />
          </mxGeometry>
        </mxCell>
        <mxCell id="00AzE-AbvhS1chxQrZSt-4" value="" style="shape=waypoint;sketch=0;fillStyle=solid;size=6;pointerEvents=1;points=[];fillColor=none;resizable=0;rotatable=0;perimeter=centerPerimeter;snapToPoint=1;" parent="8BG0fOGD8Of8e3mBtdMV-1" vertex="1">
          <mxGeometry x="429.5" y="441" width="20" height="20" as="geometry" />
        </mxCell>
        <mxCell id="eHEyWwRXvEUDRWXHBrVZ-0" value="incrementoVoto" style="text;html=1;align=center;verticalAlign=middle;resizable=0;points=[];autosize=1;strokeColor=none;fillColor=none;" parent="8BG0fOGD8Of8e3mBtdMV-1" vertex="1">
          <mxGeometry x="892" y="924.5" width="110" height="30" as="geometry" />
        </mxCell>
        <mxCell id="9OBKpfKfX9twKYsLK_j1-0" value="ruolo" style="text;html=1;align=center;verticalAlign=middle;resizable=0;points=[];autosize=1;strokeColor=none;fillColor=none;" parent="8BG0fOGD8Of8e3mBtdMV-1" vertex="1">
          <mxGeometry x="293" y="663" width="50" height="30" as="geometry" />
        </mxCell>
        <mxCell id="YzR_SRddj8snVQp76hzL-1" style="edgeStyle=orthogonalEdgeStyle;rounded=0;orthogonalLoop=1;jettySize=auto;html=1;entryX=0.793;entryY=0.952;entryDx=0;entryDy=0;entryPerimeter=0;endArrow=none;endFill=0;" parent="8BG0fOGD8Of8e3mBtdMV-1" edge="1">
          <mxGeometry relative="1" as="geometry">
            <mxPoint x="312.4999999999998" y="661.5" as="sourcePoint" />
            <mxPoint x="312.29999999999995" y="638.08" as="targetPoint" />
          </mxGeometry>
        </mxCell>
        <mxCell id="9OBKpfKfX9twKYsLK_j1-1" value="" style="ellipse;whiteSpace=wrap;html=1;aspect=fixed;" parent="8BG0fOGD8Of8e3mBtdMV-1" vertex="1">
          <mxGeometry x="309" y="659.5" width="7" height="7" as="geometry" />
        </mxCell>
        <mxCell id="A1LIh92BlnugWysrk99j-2" value="" style="endArrow=none;html=1;rounded=0;" parent="8BG0fOGD8Of8e3mBtdMV-1" target="A1LIh92BlnugWysrk99j-1" edge="1">
          <mxGeometry width="50" height="50" relative="1" as="geometry">
            <mxPoint x="717" y="425" as="sourcePoint" />
            <mxPoint x="752" y="424.7" as="targetPoint" />
          </mxGeometry>
        </mxCell>
        <mxCell id="3e7HaWktir2AnIge4Ibi-3" style="edgeStyle=orthogonalEdgeStyle;rounded=0;orthogonalLoop=1;jettySize=auto;html=1;entryX=0.676;entryY=1.024;entryDx=0;entryDy=0;entryPerimeter=0;endArrow=none;endFill=0;" parent="8BG0fOGD8Of8e3mBtdMV-1" source="A1LIh92BlnugWysrk99j-1" target="8BG0fOGD8Of8e3mBtdMV-9" edge="1">
          <mxGeometry relative="1" as="geometry">
            <Array as="points">
              <mxPoint x="717" y="410" />
              <mxPoint x="718" y="410" />
            </Array>
          </mxGeometry>
        </mxCell>
        <mxCell id="A1LIh92BlnugWysrk99j-1" value="" style="ellipse;whiteSpace=wrap;html=1;aspect=fixed;" parent="8BG0fOGD8Of8e3mBtdMV-1" vertex="1">
          <mxGeometry x="713.5" y="421" width="7" height="7" as="geometry" />
        </mxCell>
        <mxCell id="3e7HaWktir2AnIge4Ibi-0" style="edgeStyle=orthogonalEdgeStyle;rounded=0;orthogonalLoop=1;jettySize=auto;html=1;entryX=0.805;entryY=1;entryDx=0;entryDy=0;entryPerimeter=0;endArrow=none;endFill=0;" parent="8BG0fOGD8Of8e3mBtdMV-1" source="A1LIh92BlnugWysrk99j-3" target="8BG0fOGD8Of8e3mBtdMV-9" edge="1">
          <mxGeometry relative="1" as="geometry" />
        </mxCell>
        <mxCell id="A1LIh92BlnugWysrk99j-3" value="" style="ellipse;whiteSpace=wrap;html=1;aspect=fixed;" parent="8BG0fOGD8Of8e3mBtdMV-1" vertex="1">
          <mxGeometry x="727" y="441" width="7" height="7" as="geometry" />
        </mxCell>
        <mxCell id="A1LIh92BlnugWysrk99j-7" value="" style="endArrow=none;html=1;rounded=0;entryX=-0.004;entryY=0.544;entryDx=0;entryDy=0;entryPerimeter=0;" parent="8BG0fOGD8Of8e3mBtdMV-1" source="A1LIh92BlnugWysrk99j-8" target="8BG0fOGD8Of8e3mBtdMV-244" edge="1">
          <mxGeometry width="50" height="50" relative="1" as="geometry">
            <mxPoint x="610" y="380" as="sourcePoint" />
            <mxPoint x="634.33" y="400" as="targetPoint" />
          </mxGeometry>
        </mxCell>
        <mxCell id="A1LIh92BlnugWysrk99j-9" value="" style="endArrow=none;html=1;rounded=0;entryDx=0;entryDy=0;entryPerimeter=0;" parent="8BG0fOGD8Of8e3mBtdMV-1" target="A1LIh92BlnugWysrk99j-8" edge="1">
          <mxGeometry width="50" height="50" relative="1" as="geometry">
            <mxPoint x="610" y="380" as="sourcePoint" />
            <mxPoint x="610" y="400" as="targetPoint" />
          </mxGeometry>
        </mxCell>
        <mxCell id="A1LIh92BlnugWysrk99j-8" value="" style="shape=waypoint;sketch=0;fillStyle=solid;size=6;pointerEvents=1;points=[];fillColor=none;resizable=0;rotatable=0;perimeter=centerPerimeter;snapToPoint=1;" parent="8BG0fOGD8Of8e3mBtdMV-1" vertex="1">
          <mxGeometry x="600" y="392" width="20" height="20" as="geometry" />
        </mxCell>
        <mxCell id="hcLIDiOPyytXkOGspdhJ-3" style="edgeStyle=orthogonalEdgeStyle;rounded=0;orthogonalLoop=1;jettySize=auto;html=1;entryX=0.5;entryY=1;entryDx=0;entryDy=0;endArrow=none;endFill=0;" edge="1" parent="8BG0fOGD8Of8e3mBtdMV-1" source="Zmu3LOhdlAaRU9iE0CBH-0" target="Zmu3LOhdlAaRU9iE0CBH-2">
          <mxGeometry relative="1" as="geometry">
            <Array as="points">
              <mxPoint x="1163" y="759" />
            </Array>
          </mxGeometry>
        </mxCell>
        <mxCell id="hcLIDiOPyytXkOGspdhJ-4" style="edgeStyle=orthogonalEdgeStyle;rounded=0;orthogonalLoop=1;jettySize=auto;html=1;entryX=0.438;entryY=0.421;entryDx=0;entryDy=0;entryPerimeter=0;endArrow=none;endFill=0;" edge="1" parent="8BG0fOGD8Of8e3mBtdMV-1" source="Zmu3LOhdlAaRU9iE0CBH-0" target="Zmu3LOhdlAaRU9iE0CBH-8">
          <mxGeometry relative="1" as="geometry">
            <Array as="points">
              <mxPoint x="268" y="747" />
              <mxPoint x="268" y="770" />
            </Array>
          </mxGeometry>
        </mxCell>
        <mxCell id="Zmu3LOhdlAaRU9iE0CBH-0" value="storico_insegnamento" style="whiteSpace=wrap;html=1;align=center;" vertex="1" parent="8BG0fOGD8Of8e3mBtdMV-1">
          <mxGeometry x="100.5" y="738.74" width="140" height="40" as="geometry" />
        </mxCell>
        <mxCell id="Zmu3LOhdlAaRU9iE0CBH-21" style="edgeStyle=orthogonalEdgeStyle;rounded=0;orthogonalLoop=1;jettySize=auto;html=1;entryX=0.097;entryY=0.937;entryDx=0;entryDy=0;entryPerimeter=0;endArrow=none;endFill=0;" edge="1" parent="8BG0fOGD8Of8e3mBtdMV-1" source="Zmu3LOhdlAaRU9iE0CBH-2" target="8BG0fOGD8Of8e3mBtdMV-226">
          <mxGeometry relative="1" as="geometry" />
        </mxCell>
        <mxCell id="Zmu3LOhdlAaRU9iE0CBH-2" value="ex_responsabile" style="shape=rhombus;perimeter=rhombusPerimeter;whiteSpace=wrap;html=1;align=center;" vertex="1" parent="8BG0fOGD8Of8e3mBtdMV-1">
          <mxGeometry x="1107" y="352" width="111.5" height="77" as="geometry" />
        </mxCell>
        <mxCell id="Zmu3LOhdlAaRU9iE0CBH-3" value="annoInizio" style="text;html=1;align=center;verticalAlign=middle;resizable=0;points=[];autosize=1;strokeColor=none;fillColor=none;" vertex="1" parent="8BG0fOGD8Of8e3mBtdMV-1">
          <mxGeometry x="143" y="798" width="80" height="30" as="geometry" />
        </mxCell>
        <mxCell id="Zmu3LOhdlAaRU9iE0CBH-4" value="annoFine" style="text;html=1;align=center;verticalAlign=middle;resizable=0;points=[];autosize=1;strokeColor=none;fillColor=none;" vertex="1" parent="8BG0fOGD8Of8e3mBtdMV-1">
          <mxGeometry x="125.5" y="825.5" width="70" height="30" as="geometry" />
        </mxCell>
        <mxCell id="Zmu3LOhdlAaRU9iE0CBH-5" value="(1, 1)" style="text;html=1;align=center;verticalAlign=middle;resizable=0;points=[];autosize=1;strokeColor=none;fillColor=none;" vertex="1" parent="8BG0fOGD8Of8e3mBtdMV-1">
          <mxGeometry x="267.5" y="755" width="50" height="30" as="geometry" />
        </mxCell>
        <mxCell id="Zmu3LOhdlAaRU9iE0CBH-6" value="IDInsegnamento" style="text;html=1;align=center;verticalAlign=middle;resizable=0;points=[];autosize=1;strokeColor=none;fillColor=none;fontStyle=4" vertex="1" parent="8BG0fOGD8Of8e3mBtdMV-1">
          <mxGeometry x="234" y="717" width="110" height="30" as="geometry" />
        </mxCell>
        <mxCell id="Zmu3LOhdlAaRU9iE0CBH-8" value="" style="shape=waypoint;sketch=0;size=6;pointerEvents=1;points=[];fillColor=none;resizable=0;rotatable=0;perimeter=centerPerimeter;snapToPoint=1;" vertex="1" parent="8BG0fOGD8Of8e3mBtdMV-1">
          <mxGeometry x="257.5" y="759.5" width="20" height="20" as="geometry" />
        </mxCell>
        <mxCell id="Zmu3LOhdlAaRU9iE0CBH-9" value="nome" style="text;html=1;align=center;verticalAlign=middle;resizable=0;points=[];autosize=1;strokeColor=none;fillColor=none;" vertex="1" parent="8BG0fOGD8Of8e3mBtdMV-1">
          <mxGeometry x="78" y="821.76" width="50" height="30" as="geometry" />
        </mxCell>
        <mxCell id="Zmu3LOhdlAaRU9iE0CBH-10" value="crediti" style="text;html=1;align=center;verticalAlign=middle;resizable=0;points=[];autosize=1;strokeColor=none;fillColor=none;" vertex="1" parent="8BG0fOGD8Of8e3mBtdMV-1">
          <mxGeometry x="68" y="675.74" width="60" height="30" as="geometry" />
        </mxCell>
        <mxCell id="Zmu3LOhdlAaRU9iE0CBH-11" style="edgeStyle=orthogonalEdgeStyle;rounded=0;orthogonalLoop=1;jettySize=auto;html=1;entryX=1;entryY=1;entryDx=0;entryDy=0;endArrow=none;endFill=0;" edge="1" parent="8BG0fOGD8Of8e3mBtdMV-1" source="Zmu3LOhdlAaRU9iE0CBH-15">
          <mxGeometry relative="1" as="geometry">
            <mxPoint x="159.00000000000023" y="803.5" as="sourcePoint" />
            <Array as="points">
              <mxPoint x="159" y="790.5" />
              <mxPoint x="159" y="790.5" />
            </Array>
            <mxPoint x="159" y="778.5" as="targetPoint" />
          </mxGeometry>
        </mxCell>
        <mxCell id="Zmu3LOhdlAaRU9iE0CBH-12" style="edgeStyle=orthogonalEdgeStyle;rounded=0;orthogonalLoop=1;jettySize=auto;html=1;entryX=0.871;entryY=0.981;entryDx=0;entryDy=0;entryPerimeter=0;endArrow=none;endFill=0;" edge="1" parent="8BG0fOGD8Of8e3mBtdMV-1" source="Zmu3LOhdlAaRU9iE0CBH-17">
          <mxGeometry relative="1" as="geometry">
            <mxPoint x="141.50000000000023" y="828.5" as="sourcePoint" />
            <mxPoint x="140.94000000000005" y="777.74" as="targetPoint" />
          </mxGeometry>
        </mxCell>
        <mxCell id="Zmu3LOhdlAaRU9iE0CBH-13" style="edgeStyle=orthogonalEdgeStyle;rounded=0;orthogonalLoop=1;jettySize=auto;html=1;entryX=0.097;entryY=-0.023;entryDx=0;entryDy=0;entryPerimeter=0;endArrow=none;endFill=0;exitX=1;exitY=1;exitDx=0;exitDy=0;" edge="1" parent="8BG0fOGD8Of8e3mBtdMV-1" source="Zmu3LOhdlAaRU9iE0CBH-20" target="Zmu3LOhdlAaRU9iE0CBH-0">
          <mxGeometry relative="1" as="geometry">
            <mxPoint x="115.5" y="803.74" as="sourcePoint" />
          </mxGeometry>
        </mxCell>
        <mxCell id="Zmu3LOhdlAaRU9iE0CBH-14" value="" style="edgeStyle=orthogonalEdgeStyle;rounded=0;orthogonalLoop=1;jettySize=auto;html=1;entryX=1;entryY=1;entryDx=0;entryDy=0;endArrow=none;endFill=0;" edge="1" parent="8BG0fOGD8Of8e3mBtdMV-1" target="Zmu3LOhdlAaRU9iE0CBH-15">
          <mxGeometry relative="1" as="geometry">
            <mxPoint x="159.00000000000023" y="803.5" as="sourcePoint" />
            <mxPoint x="159" y="778.5" as="targetPoint" />
          </mxGeometry>
        </mxCell>
        <mxCell id="Zmu3LOhdlAaRU9iE0CBH-15" value="" style="ellipse;whiteSpace=wrap;html=1;aspect=fixed;" vertex="1" parent="8BG0fOGD8Of8e3mBtdMV-1">
          <mxGeometry x="157" y="800.5" width="7" height="7" as="geometry" />
        </mxCell>
        <mxCell id="Zmu3LOhdlAaRU9iE0CBH-16" value="" style="edgeStyle=orthogonalEdgeStyle;rounded=0;orthogonalLoop=1;jettySize=auto;html=1;entryX=0.871;entryY=0.981;entryDx=0;entryDy=0;entryPerimeter=0;endArrow=none;endFill=0;" edge="1" parent="8BG0fOGD8Of8e3mBtdMV-1" target="Zmu3LOhdlAaRU9iE0CBH-17">
          <mxGeometry relative="1" as="geometry">
            <mxPoint x="141.50000000000023" y="828.5" as="sourcePoint" />
            <mxPoint x="141" y="777.5" as="targetPoint" />
          </mxGeometry>
        </mxCell>
        <mxCell id="Zmu3LOhdlAaRU9iE0CBH-17" value="" style="ellipse;whiteSpace=wrap;html=1;aspect=fixed;" vertex="1" parent="8BG0fOGD8Of8e3mBtdMV-1">
          <mxGeometry x="138" y="825.5" width="7" height="7" as="geometry" />
        </mxCell>
        <mxCell id="Zmu3LOhdlAaRU9iE0CBH-18" style="edgeStyle=orthogonalEdgeStyle;rounded=0;orthogonalLoop=1;jettySize=auto;html=1;endArrow=none;endFill=0;entryX=0.265;entryY=1.012;entryDx=0;entryDy=0;entryPerimeter=0;" edge="1" parent="8BG0fOGD8Of8e3mBtdMV-1" source="Zmu3LOhdlAaRU9iE0CBH-19">
          <mxGeometry relative="1" as="geometry">
            <mxPoint x="115.09999999999991" y="778.7399999999999" as="targetPoint" />
          </mxGeometry>
        </mxCell>
        <mxCell id="Zmu3LOhdlAaRU9iE0CBH-19" value="" style="ellipse;whiteSpace=wrap;html=1;aspect=fixed;" vertex="1" parent="8BG0fOGD8Of8e3mBtdMV-1">
          <mxGeometry x="111.5" y="821.76" width="7" height="7" as="geometry" />
        </mxCell>
        <mxCell id="Zmu3LOhdlAaRU9iE0CBH-20" value="" style="ellipse;whiteSpace=wrap;html=1;aspect=fixed;" vertex="1" parent="8BG0fOGD8Of8e3mBtdMV-1">
          <mxGeometry x="107.5" y="698.74" width="7" height="7" as="geometry" />
        </mxCell>
        <mxCell id="Q6u4__YiCcJC8aBW1LLF-0" value="orario" style="text;html=1;align=center;verticalAlign=middle;resizable=0;points=[];autosize=1;strokeColor=none;fillColor=none;" vertex="1" parent="8BG0fOGD8Of8e3mBtdMV-1">
          <mxGeometry x="950" y="574" width="50" height="30" as="geometry" />
        </mxCell>
        <mxCell id="Q6u4__YiCcJC8aBW1LLF-1" style="edgeStyle=orthogonalEdgeStyle;rounded=0;orthogonalLoop=1;jettySize=auto;html=1;endArrow=none;endFill=0;" edge="1" parent="8BG0fOGD8Of8e3mBtdMV-1" source="Q6u4__YiCcJC8aBW1LLF-2">
          <mxGeometry relative="1" as="geometry">
            <mxPoint x="998.5" y="569" as="targetPoint" />
          </mxGeometry>
        </mxCell>
        <mxCell id="Q6u4__YiCcJC8aBW1LLF-2" value="" style="ellipse;whiteSpace=wrap;html=1;aspect=fixed;" vertex="1" parent="8BG0fOGD8Of8e3mBtdMV-1">
          <mxGeometry x="995" y="585.5" width="7" height="7" as="geometry" />
        </mxCell>
        <mxCell id="hcLIDiOPyytXkOGspdhJ-0" value="" style="edgeStyle=none;orthogonalLoop=1;jettySize=auto;html=1;rounded=0;endArrow=none;endFill=0;" edge="1" parent="8BG0fOGD8Of8e3mBtdMV-1">
          <mxGeometry width="100" relative="1" as="geometry">
            <mxPoint x="460" y="1044" as="sourcePoint" />
            <mxPoint x="268" y="1045" as="targetPoint" />
            <Array as="points">
              <mxPoint x="354" y="1044" />
            </Array>
          </mxGeometry>
        </mxCell>
        <mxCell id="hcLIDiOPyytXkOGspdhJ-1" value="" style="endArrow=none;html=1;rounded=0;" edge="1" parent="8BG0fOGD8Of8e3mBtdMV-1">
          <mxGeometry width="50" height="50" relative="1" as="geometry">
            <mxPoint x="268" y="1044" as="sourcePoint" />
            <mxPoint x="265.90999999999997" y="941.5" as="targetPoint" />
          </mxGeometry>
        </mxCell>
        <mxCell id="hcLIDiOPyytXkOGspdhJ-8" value="(0, N)" style="text;html=1;align=center;verticalAlign=middle;resizable=0;points=[];autosize=1;strokeColor=none;fillColor=none;" vertex="1" parent="8BG0fOGD8Of8e3mBtdMV-1">
          <mxGeometry x="364.5" y="924.5" width="48" height="26" as="geometry" />
        </mxCell>
        <mxCell id="hcLIDiOPyytXkOGspdhJ-14" style="edgeStyle=orthogonalEdgeStyle;rounded=0;orthogonalLoop=1;jettySize=auto;html=1;endArrow=none;endFill=0;" edge="1" parent="8BG0fOGD8Of8e3mBtdMV-1" source="hcLIDiOPyytXkOGspdhJ-9" target="8BG0fOGD8Of8e3mBtdMV-216">
          <mxGeometry relative="1" as="geometry">
            <Array as="points">
              <mxPoint x="427" y="804" />
              <mxPoint x="427" y="804" />
            </Array>
          </mxGeometry>
        </mxCell>
        <mxCell id="hcLIDiOPyytXkOGspdhJ-24" style="edgeStyle=orthogonalEdgeStyle;rounded=0;orthogonalLoop=1;jettySize=auto;html=1;entryX=0.5;entryY=0;entryDx=0;entryDy=0;endArrow=none;endFill=0;" edge="1" parent="8BG0fOGD8Of8e3mBtdMV-1" source="hcLIDiOPyytXkOGspdhJ-9" target="hcLIDiOPyytXkOGspdhJ-13">
          <mxGeometry relative="1" as="geometry" />
        </mxCell>
        <mxCell id="hcLIDiOPyytXkOGspdhJ-9" value="storico_esame" style="whiteSpace=wrap;html=1;" vertex="1" parent="8BG0fOGD8Of8e3mBtdMV-1">
          <mxGeometry x="309" y="798" width="107" height="43.74" as="geometry" />
        </mxCell>
        <mxCell id="hcLIDiOPyytXkOGspdhJ-23" style="edgeStyle=orthogonalEdgeStyle;rounded=0;orthogonalLoop=1;jettySize=auto;html=1;entryX=-0.043;entryY=0.858;entryDx=0;entryDy=0;entryPerimeter=0;endArrow=none;endFill=0;" edge="1" parent="8BG0fOGD8Of8e3mBtdMV-1" source="hcLIDiOPyytXkOGspdhJ-13" target="hcLIDiOPyytXkOGspdhJ-8">
          <mxGeometry relative="1" as="geometry" />
        </mxCell>
        <mxCell id="hcLIDiOPyytXkOGspdhJ-13" value="sostenere" style="rhombus;whiteSpace=wrap;html=1;" vertex="1" parent="8BG0fOGD8Of8e3mBtdMV-1">
          <mxGeometry x="319" y="867" width="87" height="50" as="geometry" />
        </mxCell>
        <mxCell id="hcLIDiOPyytXkOGspdhJ-25" value="(1, 1)" style="text;html=1;align=center;verticalAlign=middle;resizable=0;points=[];autosize=1;strokeColor=none;fillColor=none;" vertex="1" parent="8BG0fOGD8Of8e3mBtdMV-1">
          <mxGeometry x="359" y="839.5" width="46" height="26" as="geometry" />
        </mxCell>
        <mxCell id="hcLIDiOPyytXkOGspdhJ-26" value="IDDocente" style="text;html=1;align=center;verticalAlign=middle;resizable=0;points=[];autosize=1;strokeColor=none;fillColor=none;" vertex="1" parent="8BG0fOGD8Of8e3mBtdMV-1">
          <mxGeometry x="447.6" y="817.24" width="75" height="26" as="geometry" />
        </mxCell>
        <mxCell id="hcLIDiOPyytXkOGspdhJ-27" style="edgeStyle=orthogonalEdgeStyle;rounded=0;orthogonalLoop=1;jettySize=auto;html=1;entryX=1.003;entryY=0.641;entryDx=0;entryDy=0;entryPerimeter=0;endArrow=none;endFill=0;" edge="1" parent="8BG0fOGD8Of8e3mBtdMV-1" source="hcLIDiOPyytXkOGspdhJ-28">
          <mxGeometry relative="1" as="geometry">
            <mxPoint x="416.92099999999994" y="830.29734" as="targetPoint" />
            <Array as="points">
              <mxPoint x="427.6" y="829.26" />
              <mxPoint x="416.6" y="829.26" />
            </Array>
          </mxGeometry>
        </mxCell>
        <mxCell id="hcLIDiOPyytXkOGspdhJ-28" value="" style="ellipse;whiteSpace=wrap;html=1;aspect=fixed;" vertex="1" parent="8BG0fOGD8Of8e3mBtdMV-1">
          <mxGeometry x="447.6" y="826.02" width="7" height="7" as="geometry" />
        </mxCell>
        <mxCell id="hcLIDiOPyytXkOGspdhJ-29" value="IDInsegnamento" style="text;html=1;align=center;verticalAlign=middle;resizable=0;points=[];autosize=1;strokeColor=none;fillColor=none;" vertex="1" parent="8BG0fOGD8Of8e3mBtdMV-1">
          <mxGeometry x="447.6" y="833.02" width="106" height="26" as="geometry" />
        </mxCell>
        <mxCell id="hcLIDiOPyytXkOGspdhJ-30" style="edgeStyle=orthogonalEdgeStyle;rounded=0;orthogonalLoop=1;jettySize=auto;html=1;entryX=1.003;entryY=0.641;entryDx=0;entryDy=0;entryPerimeter=0;endArrow=none;endFill=0;" edge="1" parent="8BG0fOGD8Of8e3mBtdMV-1" source="hcLIDiOPyytXkOGspdhJ-31">
          <mxGeometry relative="1" as="geometry">
            <mxPoint x="416.3209999999999" y="841.53734" as="targetPoint" />
            <Array as="points">
              <mxPoint x="427" y="840.5" />
              <mxPoint x="416" y="840.5" />
            </Array>
          </mxGeometry>
        </mxCell>
        <mxCell id="hcLIDiOPyytXkOGspdhJ-31" value="" style="ellipse;whiteSpace=wrap;html=1;aspect=fixed;" vertex="1" parent="8BG0fOGD8Of8e3mBtdMV-1">
          <mxGeometry x="447" y="837.26" width="7" height="7" as="geometry" />
        </mxCell>
      </root>
    </mxGraphModel>
  </diagram>
</mxfile>
